BusraRef-ExtraLight.ufo
<glyph name="exclam" format="2">
  <advance width="1162"/>
  <unicode hex="0021"/>
  <outline>
    <contour>
      <point x="544" y="375" type="curve"/>
      <point x="694" y="375" type="line"/>
      <point x="765" y="750"/>
      <point x="787" y="1215"/>
      <point x="787" y="1590" type="curve" smooth="yes"/>
      <point x="787" y="1665"/>
      <point x="712" y="1740"/>
      <point x="619" y="1740" type="curve" smooth="yes"/>
      <point x="525" y="1740"/>
      <point x="450" y="1665"/>
      <point x="450" y="1590" type="curve" smooth="yes"/>
      <point x="450" y="1215"/>
      <point x="472" y="750"/>
    </contour>
    <contour>
      <point x="484" y="135" type="curve" smooth="yes"/>
      <point x="484" y="64"/>
      <point x="547" y="0"/>
      <point x="619" y="0" type="curve" smooth="yes"/>
      <point x="690" y="0"/>
      <point x="754" y="64"/>
      <point x="754" y="135" type="curve" smooth="yes"/>
      <point x="754" y="206"/>
      <point x="690" y="270"/>
      <point x="619" y="270" type="curve" smooth="yes"/>
      <point x="547" y="270"/>
      <point x="484" y="206"/>
    </contour>
  </outline>
</glyph>
<glyph name="quotedbl" format="2">
  <advance width="697"/>
  <unicode hex="0022"/>
  <outline>
    <contour>
      <point x="191" y="855" type="line"/>
      <point x="217" y="1069"/>
      <point x="274" y="1189"/>
      <point x="274" y="1365" type="curve" smooth="yes"/>
      <point x="274" y="1425"/>
      <point x="225" y="1474"/>
      <point x="165" y="1474" type="curve" smooth="yes"/>
      <point x="105" y="1474"/>
      <point x="56" y="1425"/>
      <point x="56" y="1365" type="curve" smooth="yes"/>
      <point x="56" y="1189"/>
      <point x="112" y="1069"/>
      <point x="139" y="855" type="curve"/>
    </contour>
    <contour>
      <point x="547" y="855" type="line"/>
      <point x="574" y="1069"/>
      <point x="634" y="1189"/>
      <point x="634" y="1365" type="curve" smooth="yes"/>
      <point x="634" y="1425"/>
      <point x="585" y="1474"/>
      <point x="521" y="1474" type="curve" smooth="yes"/>
      <point x="461" y="1474"/>
      <point x="412" y="1425"/>
      <point x="412" y="1365" type="curve" smooth="yes"/>
      <point x="412" y="1189"/>
      <point x="469" y="1069"/>
      <point x="499" y="855" type="curve"/>
    </contour>
  </outline>
</glyph>
<glyph name="numbersign" format="2">
  <advance width="1190"/>
  <unicode hex="0023"/>
  <outline>
    <contour>
      <point x="109" y="937" type="line"/>
      <point x="94" y="855" type="line"/>
      <point x="344" y="855" type="line"/>
      <point x="265" y="499" type="line"/>
      <point x="15" y="499" type="line"/>
      <point x="0" y="416" type="line"/>
      <point x="250" y="416" type="line"/>
      <point x="149" y="-53" type="line"/>
      <point x="258" y="-53" type="line"/>
      <point x="359" y="416" type="line"/>
      <point x="719" y="416" type="line"/>
      <point x="618" y="-53" type="line"/>
      <point x="727" y="-53" type="line"/>
      <point x="828" y="416" type="line"/>
      <point x="1078" y="416" type="line"/>
      <point x="1097" y="499" type="line"/>
      <point x="847" y="499" type="line"/>
      <point x="922" y="855" type="line"/>
      <point x="1172" y="855" type="line"/>
      <point x="1190" y="937" type="line"/>
      <point x="940" y="937" type="line"/>
      <point x="1045" y="1440" type="line"/>
      <point x="937" y="1440" type="line"/>
      <point x="828" y="937" type="line"/>
      <point x="468" y="937" type="line"/>
      <point x="577" y="1440" type="line"/>
      <point x="468" y="1440" type="line"/>
      <point x="359" y="937" type="line"/>
    </contour>
    <contour>
      <point x="453" y="855" type="line"/>
      <point x="813" y="855" type="line"/>
      <point x="738" y="499" type="line"/>
      <point x="378" y="499" type="line"/>
    </contour>
  </outline>
</glyph>
<glyph name="dollar" format="2">
  <advance width="1050"/>
  <unicode hex="0024"/>
  <outline>
    <contour>
      <point x="472" y="49" type="line"/>
      <point x="259" y="49"/>
      <point x="161" y="135"/>
      <point x="135" y="356" type="curve"/>
      <point x="86" y="356" type="line"/>
      <point x="86" y="64" type="line"/>
      <point x="202" y="-4"/>
      <point x="319" y="-30"/>
      <point x="472" y="-34" type="curve"/>
      <point x="472" y="-131" type="line"/>
      <point x="559" y="-131" type="line"/>
      <point x="559" y="-34" type="line"/>
      <point x="814" y="-19"/>
      <point x="982" y="157"/>
      <point x="982" y="364" type="curve" smooth="yes"/>
      <point x="982" y="589"/>
      <point x="765" y="735"/>
      <point x="559" y="844" type="curve"/>
      <point x="559" y="1391" type="line"/>
      <point x="739" y="1365"/>
      <point x="855" y="1316"/>
      <point x="889" y="1054" type="curve"/>
      <point x="930" y="1054" type="line"/>
      <point x="930" y="1372" type="line"/>
      <point x="818" y="1420"/>
      <point x="712" y="1466"/>
      <point x="559" y="1474" type="curve"/>
      <point x="559" y="1575" type="line"/>
      <point x="472" y="1575" type="line"/>
      <point x="472" y="1474" type="line"/>
      <point x="255" y="1459"/>
      <point x="86" y="1305"/>
      <point x="86" y="1121" type="curve" smooth="yes"/>
      <point x="86" y="892"/>
      <point x="270" y="761"/>
      <point x="472" y="649" type="curve"/>
    </contour>
    <contour>
      <point x="559" y="596" type="line"/>
      <point x="694" y="525"/>
      <point x="795" y="431"/>
      <point x="795" y="307" type="curve" smooth="yes"/>
      <point x="795" y="187"/>
      <point x="694" y="71"/>
      <point x="559" y="49" type="curve"/>
    </contour>
    <contour>
      <point x="472" y="900" type="line"/>
      <point x="356" y="967"/>
      <point x="270" y="1061"/>
      <point x="270" y="1170" type="curve" smooth="yes"/>
      <point x="270" y="1275"/>
      <point x="356" y="1372"/>
      <point x="472" y="1391" type="curve"/>
    </contour>
  </outline>
</glyph>
<glyph name="parenright" format="2">
  <advance width="975"/>
  <unicode hex="0029"/>
  <outline>
    <contour>
      <point x="600" y="720" type="curve" smooth="yes"/>
      <point x="600" y="510"/>
      <point x="469" y="-4"/>
      <point x="319" y="-113" type="curve"/>
      <point x="307" y="-124"/>
      <point x="300" y="-131"/>
      <point x="300" y="-139" type="curve" smooth="yes"/>
      <point x="300" y="-146"/>
      <point x="307" y="-150"/>
      <point x="319" y="-150" type="curve"/>
      <point x="427" y="-120"/>
      <point x="750" y="326"/>
      <point x="750" y="720" type="curve" smooth="yes"/>
      <point x="750" y="1114"/>
      <point x="427" y="1560"/>
      <point x="319" y="1590" type="curve"/>
      <point x="307" y="1590"/>
      <point x="300" y="1586"/>
      <point x="300" y="1579" type="curve" smooth="yes"/>
      <point x="300" y="1571"/>
      <point x="307" y="1564"/>
      <point x="319" y="1552" type="curve"/>
      <point x="469" y="1444"/>
      <point x="600" y="930"/>
    </contour>
  </outline>
</glyph>
<glyph name="period" format="2">
  <advance width="600"/>
  <unicode hex="002E"/>
  <outline>
    <contour>
      <point x="150" y="112" type="curve" smooth="yes"/>
      <point x="150" y="56"/>
      <point x="206" y="0"/>
      <point x="262" y="0" type="curve" smooth="yes"/>
      <point x="319" y="0"/>
      <point x="375" y="56"/>
      <point x="375" y="112" type="curve" smooth="yes"/>
      <point x="375" y="169"/>
      <point x="319" y="225"/>
      <point x="262" y="225" type="curve" smooth="yes"/>
      <point x="206" y="225"/>
      <point x="150" y="169"/>
    </contour>
  </outline>
</glyph>
<glyph name="zero" format="2">
  <advance width="1080"/>
  <unicode hex="0030"/>
  <outline>
    <contour>
      <point x="540" y="-34" type="curve" smooth="yes"/>
      <point x="829" y="-34"/>
      <point x="1024" y="285"/>
      <point x="1024" y="727" type="curve" smooth="yes"/>
      <point x="1024" y="1136"/>
      <point x="829" y="1474"/>
      <point x="540" y="1474" type="curve" smooth="yes"/>
      <point x="251" y="1474"/>
      <point x="56" y="1136"/>
      <point x="56" y="727" type="curve" smooth="yes"/>
      <point x="56" y="285"/>
      <point x="251" y="-34"/>
    </contour>
    <contour>
      <point x="540" y="37" type="curve" smooth="yes"/>
      <point x="364" y="37"/>
      <point x="277" y="364"/>
      <point x="277" y="727" type="curve" smooth="yes"/>
      <point x="277" y="1091"/>
      <point x="364" y="1402"/>
      <point x="540" y="1402" type="curve" smooth="yes"/>
      <point x="716" y="1402"/>
      <point x="802" y="1091"/>
      <point x="802" y="727" type="curve" smooth="yes"/>
      <point x="802" y="364"/>
      <point x="716" y="37"/>
    </contour>
  </outline>
</glyph>
<glyph name="one" format="2">
  <advance width="1080"/>
  <unicode hex="0031"/>
  <outline>
    <contour>
      <point x="855" y="0" type="line"/>
      <point x="855" y="37" type="line"/>
      <point x="716" y="37"/>
      <point x="649" y="112"/>
      <point x="649" y="225" type="curve" smooth="yes"/>
      <point x="649" y="1474" type="line"/>
      <point x="619" y="1474" type="line"/>
      <point x="244" y="1282" type="line"/>
      <point x="244" y="1241" type="line"/>
      <point x="292" y="1257"/>
      <point x="337" y="1271"/>
      <point x="371" y="1271" type="curve" smooth="yes"/>
      <point x="454" y="1271"/>
      <point x="465" y="1192"/>
      <point x="465" y="1057" type="curve" smooth="yes"/>
      <point x="465" y="225" type="line" smooth="yes"/>
      <point x="465" y="90"/>
      <point x="405" y="37"/>
      <point x="259" y="37" type="curve"/>
      <point x="259" y="0" type="line"/>
    </contour>
  </outline>
</glyph>
<glyph name="two" format="2">
  <advance width="1080"/>
  <unicode hex="0032"/>
  <outline>
    <contour>
      <point x="930" y="0" type="line"/>
      <point x="1031" y="277" type="line"/>
      <point x="979" y="277" type="line"/>
      <point x="930" y="184"/>
      <point x="832" y="161"/>
      <point x="746" y="161" type="curve" smooth="yes"/>
      <point x="304" y="161" type="line"/>
      <point x="596" y="465" type="line" smooth="yes"/>
      <point x="769" y="645"/>
      <point x="937" y="855"/>
      <point x="937" y="1076" type="curve" smooth="yes"/>
      <point x="937" y="1290"/>
      <point x="795" y="1474"/>
      <point x="525" y="1474" type="curve" smooth="yes"/>
      <point x="311" y="1474"/>
      <point x="120" y="1282"/>
      <point x="105" y="1042" type="curve"/>
      <point x="142" y="1042" type="line"/>
      <point x="165" y="1189"/>
      <point x="311" y="1305"/>
      <point x="457" y="1305" type="curve" smooth="yes"/>
      <point x="645" y="1305"/>
      <point x="742" y="1144"/>
      <point x="742" y="971" type="curve" smooth="yes"/>
      <point x="742" y="795"/>
      <point x="654" y="645"/>
      <point x="525" y="510" type="curve" smooth="yes"/>
      <point x="71" y="37" type="line"/>
      <point x="71" y="0" type="line"/>
    </contour>
  </outline>
</glyph>
<glyph name="three" format="2">
  <advance width="1080"/>
  <unicode hex="0033"/>
  <outline>
    <contour>
      <point x="488" y="64" type="curve" smooth="yes"/>
      <point x="461" y="64"/>
      <point x="430" y="72"/>
      <point x="400" y="90" type="curve" smooth="yes"/>
      <point x="326" y="134"/>
      <point x="313" y="218"/>
      <point x="199" y="218" type="curve" smooth="yes"/>
      <point x="156" y="218"/>
      <point x="107" y="198"/>
      <point x="107" y="142" type="curve" smooth="yes"/>
      <point x="107" y="103"/>
      <point x="133" y="61"/>
      <point x="182" y="29" type="curve" smooth="yes"/>
      <point x="254" y="-18"/>
      <point x="343" y="-34"/>
      <point x="409" y="-34" type="curve" smooth="yes"/>
      <point x="656" y="-34"/>
      <point x="930" y="135"/>
      <point x="930" y="472" type="curve" smooth="yes"/>
      <point x="930" y="634"/>
      <point x="810" y="806"/>
      <point x="660" y="855" type="curve"/>
      <point x="769" y="941"/>
      <point x="859" y="1080"/>
      <point x="859" y="1170" type="curve" smooth="yes"/>
      <point x="859" y="1342"/>
      <point x="701" y="1474"/>
      <point x="514" y="1474" type="curve" smooth="yes"/>
      <point x="311" y="1474"/>
      <point x="180" y="1331"/>
      <point x="124" y="1159" type="curve"/>
      <point x="161" y="1140" type="line"/>
      <point x="214" y="1241"/>
      <point x="337" y="1320"/>
      <point x="435" y="1320" type="curve" smooth="yes"/>
      <point x="577" y="1320"/>
      <point x="671" y="1219"/>
      <point x="671" y="1091" type="curve" smooth="yes"/>
      <point x="671" y="904"/>
      <point x="532" y="772"/>
      <point x="334" y="750" type="curve"/>
      <point x="334" y="712" type="line"/>
      <point x="630" y="712"/>
      <point x="769" y="562"/>
      <point x="769" y="364" type="curve" smooth="yes"/>
      <point x="769" y="206"/>
      <point x="668" y="64"/>
    </contour>
  </outline>
</glyph>
<glyph name="seven" format="2">
  <advance width="1080"/>
  <unicode hex="0037"/>
  <outline>
    <contour>
      <point x="982" y="1440" type="line"/>
      <point x="191" y="1440" type="line"/>
      <point x="67" y="1095" type="line"/>
      <point x="109" y="1084" type="line"/>
      <point x="176" y="1204"/>
      <point x="266" y="1264"/>
      <point x="412" y="1264" type="curve" smooth="yes"/>
      <point x="810" y="1264" type="line"/>
      <point x="379" y="-34" type="line"/>
      <point x="502" y="-34" type="line"/>
      <point x="982" y="1402" type="line"/>
    </contour>
  </outline>
</glyph>
<glyph name="less" format="2">
  <advance width="1271"/>
  <unicode hex="003C"/>
  <outline>
    <contour>
      <point x="79" y="761" type="line"/>
      <point x="79" y="701" type="line"/>
      <point x="1170" y="247" type="line"/>
      <point x="1170" y="349" type="line"/>
      <point x="251" y="731" type="line"/>
      <point x="1170" y="1136" type="line"/>
      <point x="1170" y="1234" type="line"/>
    </contour>
  </outline>
</glyph>
<glyph name="greater" format="2">
  <advance width="1271"/>
  <unicode hex="003E"/>
  <outline>
    <contour>
      <point x="1170" y="761" type="line"/>
      <point x="79" y="1234" type="line"/>
      <point x="79" y="1136" type="line"/>
      <point x="1001" y="731" type="line"/>
      <point x="79" y="349" type="line"/>
      <point x="79" y="247" type="line"/>
      <point x="1170" y="701" type="line"/>
    </contour>
  </outline>
</glyph>
<glyph name="question" format="2">
  <advance width="1687"/>
  <unicode hex="003F"/>
  <outline>
    <contour>
      <point x="699" y="101" type="curve" smooth="yes"/>
      <point x="699" y="40"/>
      <point x="764" y="-25"/>
      <point x="825" y="-25" type="curve" smooth="yes"/>
      <point x="895" y="-25"/>
      <point x="951" y="40"/>
      <point x="951" y="101" type="curve" smooth="yes"/>
      <point x="951" y="171"/>
      <point x="895" y="227"/>
      <point x="825" y="227" type="curve" smooth="yes"/>
      <point x="764" y="227"/>
      <point x="699" y="171"/>
    </contour>
    <contour>
      <point x="562" y="1410" type="curve" smooth="yes"/>
      <point x="562" y="1481"/>
      <point x="634" y="1571"/>
      <point x="825" y="1571" type="curve" smooth="yes"/>
      <point x="1042" y="1571"/>
      <point x="1125" y="1425"/>
      <point x="1125" y="1327" type="curve" smooth="yes"/>
      <point x="1125" y="1147"/>
      <point x="690" y="754"/>
      <point x="690" y="484" type="curve" smooth="yes"/>
      <point x="690" y="397"/>
      <point x="701" y="356"/>
      <point x="720" y="315" type="curve"/>
      <point x="900" y="315" type="line"/>
      <point x="881" y="356"/>
      <point x="877" y="412"/>
      <point x="877" y="484" type="curve" smooth="yes"/>
      <point x="877" y="701"/>
      <point x="1312" y="1042"/>
      <point x="1312" y="1346" type="curve" smooth="yes"/>
      <point x="1312" y="1500"/>
      <point x="1170" y="1740"/>
      <point x="825" y="1740" type="curve" smooth="yes"/>
      <point x="484" y="1740"/>
      <point x="375" y="1519"/>
      <point x="375" y="1384" type="curve" smooth="yes"/>
      <point x="375" y="1260"/>
      <point x="409" y="1192"/>
      <point x="469" y="1132" type="curve" smooth="yes"/>
      <point x="506" y="1095"/>
      <point x="562" y="1076"/>
      <point x="634" y="1076" type="curve" smooth="yes"/>
      <point x="705" y="1076"/>
      <point x="802" y="1125"/>
      <point x="802" y="1219" type="curve" smooth="yes"/>
      <point x="802" y="1282"/>
      <point x="750" y="1346"/>
      <point x="690" y="1346" type="curve" smooth="yes"/>
      <point x="649" y="1346"/>
      <point x="619" y="1331"/>
      <point x="592" y="1297" type="curve"/>
      <point x="566" y="1316"/>
      <point x="562" y="1365"/>
    </contour>
  </outline>
</glyph>
<glyph name="D" format="2">
  <advance width="1560"/>
  <unicode hex="0044"/>
  <outline>
    <contour>
      <point x="247" y="229" type="line"/>
      <point x="247" y="75"/>
      <point x="191" y="37"/>
      <point x="41" y="37" type="curve"/>
      <point x="41" y="0" type="line"/>
      <point x="735" y="0" type="line" smooth="yes"/>
      <point x="1222" y="0"/>
      <point x="1492" y="330"/>
      <point x="1492" y="731" type="curve" smooth="yes"/>
      <point x="1492" y="945"/>
      <point x="1417" y="1129"/>
      <point x="1271" y="1267" type="curve" smooth="yes"/>
      <point x="1141" y="1389"/>
      <point x="949" y="1440"/>
      <point x="682" y="1440" type="curve" smooth="yes"/>
      <point x="41" y="1440" type="line"/>
      <point x="41" y="1402" type="line"/>
      <point x="191" y="1402"/>
      <point x="247" y="1365"/>
      <point x="247" y="1211" type="curve" smooth="yes"/>
    </contour>
    <contour>
      <point x="465" y="1331" type="line"/>
      <point x="532" y="1351"/>
      <point x="592" y="1369"/>
      <point x="697" y="1369" type="curve" smooth="yes"/>
      <point x="1009" y="1369"/>
      <point x="1234" y="1084"/>
      <point x="1234" y="727" type="curve" smooth="yes"/>
      <point x="1234" y="322"/>
      <point x="994" y="71"/>
      <point x="697" y="71" type="curve" smooth="yes"/>
      <point x="615" y="71"/>
      <point x="536" y="79"/>
      <point x="465" y="105" type="curve"/>
    </contour>
  </outline>
</glyph>
<glyph name="F" format="2">
  <advance width="1170"/>
  <unicode hex="0046"/>
  <outline>
    <contour>
      <point x="41" y="1440" type="line"/>
      <point x="41" y="1402" type="line"/>
      <point x="191" y="1402"/>
      <point x="247" y="1365"/>
      <point x="247" y="1211" type="curve" smooth="yes"/>
      <point x="247" y="229" type="line" smooth="yes"/>
      <point x="247" y="75"/>
      <point x="191" y="37"/>
      <point x="41" y="37" type="curve"/>
      <point x="41" y="0" type="line"/>
      <point x="667" y="0" type="line"/>
      <point x="667" y="37" type="line"/>
      <point x="521" y="37"/>
      <point x="465" y="75"/>
      <point x="465" y="229" type="curve" smooth="yes"/>
      <point x="465" y="750" type="line"/>
      <point x="690" y="750" type="line" smooth="yes"/>
      <point x="806" y="750"/>
      <point x="900" y="694"/>
      <point x="900" y="521" type="curve"/>
      <point x="937" y="521" type="line"/>
      <point x="937" y="1009" type="line"/>
      <point x="900" y="1009" type="line"/>
      <point x="900" y="870"/>
      <point x="802" y="821"/>
      <point x="682" y="821" type="curve" smooth="yes"/>
      <point x="465" y="821" type="line"/>
      <point x="465" y="1369" type="line"/>
      <point x="791" y="1369" type="line" smooth="yes"/>
      <point x="979" y="1369"/>
      <point x="1054" y="1271"/>
      <point x="1087" y="1099" type="curve"/>
      <point x="1125" y="1099" type="line"/>
      <point x="1110" y="1440" type="line"/>
    </contour>
  </outline>
</glyph>
<glyph name="H" format="2">
  <advance width="1590"/>
  <unicode hex="0048"/>
  <outline>
    <contour>
      <point x="1125" y="712" type="line"/>
      <point x="1125" y="229" type="line" smooth="yes"/>
      <point x="1125" y="75"/>
      <point x="1069" y="37"/>
      <point x="922" y="37" type="curve"/>
      <point x="922" y="0" type="line"/>
      <point x="1549" y="0" type="line"/>
      <point x="1549" y="37" type="line"/>
      <point x="1399" y="37"/>
      <point x="1346" y="75"/>
      <point x="1346" y="229" type="curve" smooth="yes"/>
      <point x="1346" y="1211" type="line" smooth="yes"/>
      <point x="1346" y="1365"/>
      <point x="1399" y="1402"/>
      <point x="1549" y="1402" type="curve"/>
      <point x="1549" y="1440" type="line"/>
      <point x="922" y="1440" type="line"/>
      <point x="922" y="1402" type="line"/>
      <point x="1069" y="1402"/>
      <point x="1125" y="1365"/>
      <point x="1125" y="1211" type="curve" smooth="yes"/>
      <point x="1125" y="784" type="line"/>
      <point x="465" y="784" type="line"/>
      <point x="465" y="1211" type="line" smooth="yes"/>
      <point x="465" y="1365"/>
      <point x="521" y="1402"/>
      <point x="667" y="1402" type="curve"/>
      <point x="667" y="1440" type="line"/>
      <point x="41" y="1440" type="line"/>
      <point x="41" y="1402" type="line"/>
      <point x="191" y="1402"/>
      <point x="247" y="1365"/>
      <point x="247" y="1211" type="curve" smooth="yes"/>
      <point x="247" y="229" type="line" smooth="yes"/>
      <point x="247" y="75"/>
      <point x="191" y="37"/>
      <point x="41" y="37" type="curve"/>
      <point x="41" y="0" type="line"/>
      <point x="667" y="0" type="line"/>
      <point x="667" y="37" type="line"/>
      <point x="521" y="37"/>
      <point x="465" y="75"/>
      <point x="465" y="229" type="curve" smooth="yes"/>
      <point x="465" y="712" type="line"/>
    </contour>
  </outline>
</glyph>
<glyph name="N" format="2">
  <advance width="1564"/>
  <unicode hex="004E"/>
  <outline>
    <contour>
      <point x="240" y="229" type="line" smooth="yes"/>
      <point x="240" y="75"/>
      <point x="184" y="37"/>
      <point x="37" y="37" type="curve"/>
      <point x="37" y="0" type="line"/>
      <point x="540" y="0" type="line"/>
      <point x="540" y="37" type="line"/>
      <point x="390" y="37"/>
      <point x="337" y="75"/>
      <point x="337" y="229" type="curve" smooth="yes"/>
      <point x="337" y="1136" type="line"/>
      <point x="345" y="1136" type="line"/>
      <point x="1275" y="-34" type="line"/>
      <point x="1327" y="-34" type="line"/>
      <point x="1327" y="1211" type="line" smooth="yes"/>
      <point x="1327" y="1365"/>
      <point x="1380" y="1402"/>
      <point x="1530" y="1402" type="curve"/>
      <point x="1530" y="1440" type="line"/>
      <point x="1024" y="1440" type="line"/>
      <point x="1024" y="1402" type="line"/>
      <point x="1174" y="1402"/>
      <point x="1230" y="1365"/>
      <point x="1230" y="1211" type="curve" smooth="yes"/>
      <point x="1230" y="386" type="line"/>
      <point x="1219" y="386" type="line"/>
      <point x="364" y="1440" type="line"/>
      <point x="0" y="1440" type="line"/>
      <point x="0" y="1402" type="line"/>
      <point x="131" y="1402"/>
      <point x="240" y="1320"/>
      <point x="240" y="1200" type="curve" smooth="yes"/>
    </contour>
  </outline>
</glyph>
<glyph name="Q" format="2">
  <advance width="1564"/>
  <unicode hex="0051"/>
  <outline>
    <contour>
      <point x="1485" y="-413" type="line"/>
      <point x="1234" y="-413"/>
      <point x="1012" y="-203"/>
      <point x="952" y="-11" type="curve"/>
      <point x="1267" y="60"/>
      <point x="1496" y="397"/>
      <point x="1496" y="727" type="curve" smooth="yes"/>
      <point x="1496" y="1140"/>
      <point x="1189" y="1474"/>
      <point x="780" y="1474" type="curve" smooth="yes"/>
      <point x="375" y="1474"/>
      <point x="67" y="1140"/>
      <point x="67" y="727" type="curve" smooth="yes"/>
      <point x="67" y="412"/>
      <point x="281" y="75"/>
      <point x="577" y="-4" type="curve"/>
      <point x="720" y="-195"/>
      <point x="1102" y="-450"/>
      <point x="1485" y="-450" type="curve"/>
    </contour>
    <contour>
      <point x="780" y="37" type="curve"/>
      <point x="476" y="37"/>
      <point x="319" y="330"/>
      <point x="319" y="727" type="curve" smooth="yes"/>
      <point x="319" y="1125"/>
      <point x="476" y="1402"/>
      <point x="780" y="1402" type="curve" smooth="yes"/>
      <point x="1080" y="1402"/>
      <point x="1245" y="1125"/>
      <point x="1245" y="727" type="curve" smooth="yes"/>
      <point x="1245" y="330"/>
      <point x="1076" y="75"/>
    </contour>
  </outline>
</glyph>
<glyph name="S" format="2">
  <advance width="1185"/>
  <unicode hex="0053"/>
  <outline>
    <contour>
      <point x="986" y="971" type="line"/>
      <point x="986" y="1474" type="line"/>
      <point x="945" y="1474" type="line"/>
      <point x="945" y="1440"/>
      <point x="907" y="1395"/>
      <point x="870" y="1395" type="curve" smooth="yes"/>
      <point x="825" y="1395"/>
      <point x="780" y="1423"/>
      <point x="731" y="1440" type="curve" smooth="yes"/>
      <point x="675" y="1460"/>
      <point x="634" y="1474"/>
      <point x="551" y="1474" type="curve" smooth="yes"/>
      <point x="296" y="1474"/>
      <point x="124" y="1305"/>
      <point x="124" y="1087" type="curve" smooth="yes"/>
      <point x="124" y="649"/>
      <point x="889" y="634"/>
      <point x="889" y="285" type="curve" smooth="yes"/>
      <point x="889" y="139"/>
      <point x="757" y="45"/>
      <point x="615" y="45" type="curve" smooth="yes"/>
      <point x="401" y="45"/>
      <point x="199" y="191"/>
      <point x="176" y="454" type="curve"/>
      <point x="139" y="454" type="line"/>
      <point x="139" y="-34" type="line"/>
      <point x="176" y="-34" type="line"/>
      <point x="184" y="7"/>
      <point x="206" y="45"/>
      <point x="244" y="45" type="curve" smooth="yes"/>
      <point x="292" y="45"/>
      <point x="330" y="29"/>
      <point x="375" y="7" type="curve" smooth="yes"/>
      <point x="432" y="-21"/>
      <point x="502" y="-34"/>
      <point x="600" y="-34" type="curve" smooth="yes"/>
      <point x="904" y="-34"/>
      <point x="1080" y="154"/>
      <point x="1080" y="379" type="curve" smooth="yes"/>
      <point x="1080" y="784"/>
      <point x="292" y="859"/>
      <point x="292" y="1162" type="curve" smooth="yes"/>
      <point x="292" y="1267"/>
      <point x="390" y="1395"/>
      <point x="551" y="1395" type="curve" smooth="yes"/>
      <point x="780" y="1395"/>
      <point x="919" y="1234"/>
      <point x="945" y="971" type="curve"/>
    </contour>
  </outline>
</glyph>
<glyph name="W" format="2">
  <advance width="2002"/>
  <unicode hex="0057"/>
  <outline>
    <contour>
      <point x="0" y="1440" type="line"/>
      <point x="0" y="1402" type="line"/>
      <point x="120" y="1402"/>
      <point x="150" y="1330"/>
      <point x="206" y="1174" type="curve" smooth="yes"/>
      <point x="641" y="-34" type="line"/>
      <point x="690" y="-34" type="line"/>
      <point x="1012" y="877" type="line"/>
      <point x="1346" y="-34" type="line"/>
      <point x="1399" y="-34" type="line"/>
      <point x="1811" y="1181" type="line" smooth="yes"/>
      <point x="1860" y="1324"/>
      <point x="1886" y="1402"/>
      <point x="2010" y="1402" type="curve"/>
      <point x="2010" y="1440" type="line"/>
      <point x="1582" y="1440" type="line"/>
      <point x="1582" y="1402" type="line"/>
      <point x="1692" y="1402"/>
      <point x="1738" y="1367"/>
      <point x="1738" y="1296" type="curve" smooth="yes"/>
      <point x="1738" y="1266"/>
      <point x="1729" y="1229"/>
      <point x="1714" y="1185" type="curve" smooth="yes"/>
      <point x="1421" y="345" type="line"/>
      <point x="1132" y="1177" type="line" smooth="yes"/>
      <point x="1111" y="1238"/>
      <point x="1102" y="1286"/>
      <point x="1102" y="1320" type="curve" smooth="yes"/>
      <point x="1102" y="1365"/>
      <point x="1140" y="1402"/>
      <point x="1245" y="1402" type="curve"/>
      <point x="1245" y="1440" type="line"/>
      <point x="682" y="1440" type="line"/>
      <point x="682" y="1402" type="line"/>
      <point x="821" y="1402"/>
      <point x="855" y="1315"/>
      <point x="907" y="1174" type="curve" smooth="yes"/>
      <point x="964" y="1020" type="line"/>
      <point x="724" y="345" type="line"/>
      <point x="427" y="1181" type="line" smooth="yes"/>
      <point x="405" y="1241"/>
      <point x="390" y="1290"/>
      <point x="390" y="1324" type="curve" smooth="yes"/>
      <point x="390" y="1365"/>
      <point x="427" y="1402"/>
      <point x="532" y="1402" type="curve"/>
      <point x="532" y="1440" type="line"/>
    </contour>
  </outline>
</glyph>
<glyph name="i" format="2">
  <advance width="589"/>
  <unicode hex="0069"/>
  <outline>
    <contour>
      <point x="304" y="1474" type="curve" smooth="yes"/>
      <point x="251" y="1474"/>
      <point x="202" y="1429"/>
      <point x="202" y="1376" type="curve" smooth="yes"/>
      <point x="202" y="1324"/>
      <point x="251" y="1279"/>
      <point x="304" y="1279" type="curve" smooth="yes"/>
      <point x="360" y="1279"/>
      <point x="405" y="1324"/>
      <point x="405" y="1376" type="curve" smooth="yes"/>
      <point x="405" y="1429"/>
      <point x="360" y="1474"/>
    </contour>
    <contour>
      <point x="217" y="225" type="line" smooth="yes"/>
      <point x="217" y="90"/>
      <point x="195" y="37"/>
      <point x="67" y="37" type="curve"/>
      <point x="67" y="0" type="line"/>
      <point x="547" y="0" type="line"/>
      <point x="547" y="37" type="line"/>
      <point x="420" y="37"/>
      <point x="394" y="90"/>
      <point x="394" y="225" type="curve" smooth="yes"/>
      <point x="394" y="994" type="line"/>
      <point x="341" y="994" type="line"/>
      <point x="52" y="862" type="line"/>
      <point x="67" y="825" type="line"/>
      <point x="105" y="836"/>
      <point x="135" y="844"/>
      <point x="154" y="844" type="curve" smooth="yes"/>
      <point x="217" y="844"/>
      <point x="217" y="795"/>
      <point x="217" y="682" type="curve" smooth="yes"/>
    </contour>
  </outline>
</glyph>
<glyph name="n" format="2">
  <advance width="1099"/>
  <unicode hex="006E"/>
  <outline>
    <contour>
      <point x="187" y="225" type="line" smooth="yes"/>
      <point x="187" y="90"/>
      <point x="161" y="37"/>
      <point x="34" y="37" type="curve"/>
      <point x="34" y="0" type="line"/>
      <point x="514" y="0" type="line"/>
      <point x="514" y="37" type="line"/>
      <point x="386" y="37"/>
      <point x="364" y="90"/>
      <point x="364" y="225" type="curve" smooth="yes"/>
      <point x="364" y="724" type="line"/>
      <point x="439" y="806"/>
      <point x="536" y="862"/>
      <point x="611" y="862" type="curve" smooth="yes"/>
      <point x="694" y="862"/>
      <point x="750" y="795"/>
      <point x="750" y="667" type="curve" smooth="yes"/>
      <point x="750" y="225" type="line" smooth="yes"/>
      <point x="750" y="90"/>
      <point x="727" y="37"/>
      <point x="600" y="37" type="curve"/>
      <point x="600" y="0" type="line"/>
      <point x="1080" y="0" type="line"/>
      <point x="1080" y="37" type="line"/>
      <point x="952" y="37"/>
      <point x="926" y="90"/>
      <point x="926" y="225" type="curve" smooth="yes"/>
      <point x="926" y="697" type="line" smooth="yes"/>
      <point x="926" y="862"/>
      <point x="829" y="994"/>
      <point x="705" y="994" type="curve" smooth="yes"/>
      <point x="585" y="994"/>
      <point x="469" y="926"/>
      <point x="364" y="795" type="curve"/>
      <point x="364" y="994" type="line"/>
      <point x="311" y="994" type="line"/>
      <point x="22" y="862" type="line"/>
      <point x="37" y="825" type="line"/>
      <point x="75" y="837"/>
      <point x="101" y="844"/>
      <point x="124" y="844" type="curve" smooth="yes"/>
      <point x="187" y="844"/>
      <point x="187" y="795"/>
      <point x="187" y="682" type="curve" smooth="yes"/>
    </contour>
  </outline>
</glyph>
<glyph name="w" format="2">
  <advance width="1594"/>
  <unicode hex="0077"/>
  <outline>
    <contour>
      <point x="0" y="971" type="line"/>
      <point x="0" y="934" type="line"/>
      <point x="109" y="934"/>
      <point x="122" y="913"/>
      <point x="195" y="727" type="curve" smooth="yes"/>
      <point x="487" y="-23" type="line"/>
      <point x="540" y="-23" type="line"/>
      <point x="791" y="630" type="line"/>
      <point x="1042" y="-23" type="line"/>
      <point x="1095" y="-23" type="line"/>
      <point x="1372" y="739" type="line" smooth="yes"/>
      <point x="1435" y="912"/>
      <point x="1500" y="934"/>
      <point x="1594" y="934" type="curve"/>
      <point x="1594" y="971" type="line"/>
      <point x="1234" y="971" type="line"/>
      <point x="1234" y="934" type="line"/>
      <point x="1305" y="934"/>
      <point x="1327" y="911"/>
      <point x="1327" y="870" type="curve" smooth="yes"/>
      <point x="1327" y="840"/>
      <point x="1303" y="765"/>
      <point x="1286" y="716" type="curve" smooth="yes"/>
      <point x="1125" y="262" type="line"/>
      <point x="937" y="739" type="line"/>
      <point x="911" y="795"/>
      <point x="900" y="844"/>
      <point x="900" y="862" type="curve" smooth="yes"/>
      <point x="900" y="911"/>
      <point x="960" y="934"/>
      <point x="1035" y="934" type="curve"/>
      <point x="1035" y="971" type="line"/>
      <point x="544" y="971" type="line"/>
      <point x="544" y="934" type="line"/>
      <point x="649" y="934"/>
      <point x="712" y="832"/>
      <point x="731" y="784" type="curve"/>
      <point x="750" y="727" type="line"/>
      <point x="570" y="262" type="line"/>
      <point x="379" y="739" type="line" smooth="yes"/>
      <point x="360" y="787"/>
      <point x="341" y="847"/>
      <point x="341" y="881" type="curve" smooth="yes"/>
      <point x="341" y="919"/>
      <point x="367" y="934"/>
      <point x="424" y="934" type="curve"/>
      <point x="424" y="971" type="line"/>
    </contour>
  </outline>
</glyph>
<glyph name="braceleft" format="2">
  <advance width="715"/>
  <unicode hex="007B"/>
  <outline>
    <contour>
      <point x="675" y="1780" type="line"/>
      <point x="442" y="1780"/>
      <point x="251" y="1575"/>
      <point x="251" y="1323" type="curve" smooth="yes"/>
      <point x="251" y="1249"/>
      <point x="285" y="1171"/>
      <point x="285" y="1034" type="curve" smooth="yes"/>
      <point x="285" y="881"/>
      <point x="176" y="758"/>
      <point x="41" y="758" type="curve"/>
      <point x="41" y="699" type="line"/>
      <point x="176" y="699"/>
      <point x="285" y="576"/>
      <point x="285" y="419" type="curve" smooth="yes"/>
      <point x="285" y="299"/>
      <point x="251" y="225"/>
      <point x="251" y="130" type="curve" smooth="yes"/>
      <point x="251" y="-126"/>
      <point x="442" y="-340"/>
      <point x="675" y="-340" type="curve"/>
      <point x="675" y="-300" type="line"/>
      <point x="525" y="-284"/>
      <point x="405" y="-126"/>
      <point x="405" y="59" type="curve" smooth="yes"/>
      <point x="405" y="175"/>
      <point x="439" y="246"/>
      <point x="439" y="345" type="curve" smooth="yes"/>
      <point x="439" y="513"/>
      <point x="311" y="692"/>
      <point x="154" y="732" type="curve"/>
      <point x="311" y="786"/>
      <point x="439" y="960"/>
      <point x="439" y="1108" type="curve" smooth="yes"/>
      <point x="439" y="1195"/>
      <point x="405" y="1273"/>
      <point x="405" y="1393" type="curve" smooth="yes"/>
      <point x="405" y="1570"/>
      <point x="525" y="1724"/>
      <point x="675" y="1740" type="curve"/>
    </contour>
  </outline>
</glyph>
<glyph name="braceright" format="2">
  <advance width="709"/>
  <unicode hex="007D"/>
  <outline>
    <contour>
      <point x="40" y="1740" type="line"/>
      <point x="190" y="1724"/>
      <point x="310" y="1570"/>
      <point x="310" y="1393" type="curve"/>
      <point x="310" y="1273"/>
      <point x="276" y="1195"/>
      <point x="276" y="1108" type="curve" smooth="yes"/>
      <point x="276" y="960"/>
      <point x="404" y="786"/>
      <point x="561" y="732" type="curve"/>
      <point x="404" y="692"/>
      <point x="276" y="513"/>
      <point x="276" y="345" type="curve"/>
      <point x="276" y="246"/>
      <point x="310" y="175"/>
      <point x="310" y="59" type="curve" smooth="yes"/>
      <point x="310" y="-126"/>
      <point x="190" y="-284"/>
      <point x="40" y="-300" type="curve"/>
      <point x="40" y="-340" type="line"/>
      <point x="273" y="-340"/>
      <point x="464" y="-126"/>
      <point x="464" y="130" type="curve"/>
      <point x="464" y="225"/>
      <point x="430" y="299"/>
      <point x="430" y="419" type="curve" smooth="yes"/>
      <point x="430" y="576"/>
      <point x="539" y="699"/>
      <point x="674" y="699" type="curve"/>
      <point x="674" y="758" type="line"/>
      <point x="539" y="758"/>
      <point x="430" y="881"/>
      <point x="430" y="1034" type="curve"/>
      <point x="430" y="1171"/>
      <point x="464" y="1249"/>
      <point x="464" y="1323" type="curve" smooth="yes"/>
      <point x="464" y="1575"/>
      <point x="273" y="1780"/>
      <point x="40" y="1780" type="curve"/>
    </contour>
  </outline>
</glyph>
<glyph name="exclamdown" format="2">
  <advance width="409"/>
  <unicode hex="00A1"/>
  <outline>
    <contour>
      <point x="172" y="1072" type="line"/>
      <point x="161" y="754"/>
      <point x="79" y="409"/>
      <point x="79" y="139" type="curve" smooth="yes"/>
      <point x="79" y="30"/>
      <point x="142" y="-34"/>
      <point x="206" y="-34" type="curve" smooth="yes"/>
      <point x="281" y="-34"/>
      <point x="334" y="30"/>
      <point x="334" y="139" type="curve" smooth="yes"/>
      <point x="334" y="409"/>
      <point x="270" y="754"/>
      <point x="240" y="1072" type="curve"/>
    </contour>
    <contour>
      <point x="206" y="1474" type="curve" smooth="yes"/>
      <point x="142" y="1474"/>
      <point x="90" y="1421"/>
      <point x="90" y="1361" type="curve" smooth="yes"/>
      <point x="90" y="1297"/>
      <point x="142" y="1245"/>
      <point x="206" y="1245" type="curve" smooth="yes"/>
      <point x="274" y="1245"/>
      <point x="326" y="1297"/>
      <point x="326" y="1361" type="curve" smooth="yes"/>
      <point x="326" y="1421"/>
      <point x="274" y="1474"/>
    </contour>
  </outline>
</glyph>
<glyph name="currency" format="2">
  <advance width="1121"/>
  <unicode hex="00A4"/>
  <outline>
    <contour>
      <point x="161" y="724" type="curve" smooth="yes"/>
      <point x="161" y="934"/>
      <point x="341" y="1106"/>
      <point x="562" y="1106" type="curve" smooth="yes"/>
      <point x="780" y="1106"/>
      <point x="960" y="934"/>
      <point x="960" y="724" type="curve" smooth="yes"/>
      <point x="960" y="510"/>
      <point x="780" y="337"/>
      <point x="562" y="337" type="curve" smooth="yes"/>
      <point x="341" y="337"/>
      <point x="161" y="510"/>
    </contour>
    <contour>
      <point x="251" y="364" type="line"/>
      <point x="330" y="289"/>
      <point x="442" y="251"/>
      <point x="562" y="251" type="curve" smooth="yes"/>
      <point x="682" y="251"/>
      <point x="791" y="289"/>
      <point x="874" y="364" type="curve"/>
      <point x="1039" y="202" type="line"/>
      <point x="1102" y="266" type="line"/>
      <point x="937" y="424" type="line"/>
      <point x="1009" y="502"/>
      <point x="1054" y="607"/>
      <point x="1054" y="724" type="curve" smooth="yes"/>
      <point x="1054" y="836"/>
      <point x="1009" y="941"/>
      <point x="937" y="1020" type="curve"/>
      <point x="1102" y="1181" type="line"/>
      <point x="1039" y="1241" type="line"/>
      <point x="874" y="1084" type="line"/>
      <point x="791" y="1155"/>
      <point x="682" y="1192"/>
      <point x="562" y="1192" type="curve" smooth="yes"/>
      <point x="442" y="1192"/>
      <point x="330" y="1155"/>
      <point x="251" y="1084" type="curve"/>
      <point x="86" y="1241" type="line"/>
      <point x="22" y="1181" type="line"/>
      <point x="187" y="1020" type="line"/>
      <point x="112" y="937"/>
      <point x="71" y="836"/>
      <point x="71" y="724" type="curve" smooth="yes"/>
      <point x="71" y="607"/>
      <point x="112" y="499"/>
      <point x="187" y="424" type="curve"/>
      <point x="22" y="266" type="line"/>
      <point x="86" y="202" type="line"/>
    </contour>
  </outline>
</glyph>
<glyph name="brokenbar" format="2">
  <advance width="379"/>
  <unicode hex="00A6"/>
  <outline>
    <contour>
      <point x="240" y="281" type="line"/>
      <point x="139" y="281" type="line"/>
      <point x="139" y="-413" type="line"/>
      <point x="240" y="-413" type="line"/>
    </contour>
    <contour>
      <point x="240" y="1440" type="line"/>
      <point x="139" y="1440" type="line"/>
      <point x="139" y="776" type="line"/>
      <point x="240" y="776" type="line"/>
    </contour>
  </outline>
</glyph>
<glyph name="section" format="2">
  <advance width="1057"/>
  <unicode hex="00A7"/>
  <outline>
    <contour>
      <point x="371" y="896" type="curve"/>
      <point x="232" y="817"/>
      <point x="127" y="690"/>
      <point x="127" y="529" type="curve" smooth="yes"/>
      <point x="127" y="184"/>
      <point x="697" y="56"/>
      <point x="697" y="-218" type="curve" smooth="yes"/>
      <point x="697" y="-304"/>
      <point x="592" y="-398"/>
      <point x="499" y="-398" type="curve" smooth="yes"/>
      <point x="450" y="-398"/>
      <point x="364" y="-383"/>
      <point x="364" y="-323" type="curve" smooth="yes"/>
      <point x="364" y="-285"/>
      <point x="382" y="-251"/>
      <point x="382" y="-210" type="curve" smooth="yes"/>
      <point x="382" y="-161"/>
      <point x="356" y="-113"/>
      <point x="300" y="-113" type="curve" smooth="yes"/>
      <point x="251" y="-113"/>
      <point x="214" y="-161"/>
      <point x="214" y="-206" type="curve" smooth="yes"/>
      <point x="214" y="-349"/>
      <point x="352" y="-450"/>
      <point x="491" y="-450" type="curve" smooth="yes"/>
      <point x="675" y="-450"/>
      <point x="814" y="-300"/>
      <point x="814" y="-120" type="curve" smooth="yes"/>
      <point x="814" y="-11"/>
      <point x="746" y="67"/>
      <point x="675" y="142" type="curve"/>
      <point x="806" y="210"/>
      <point x="919" y="352"/>
      <point x="919" y="502" type="curve" smooth="yes"/>
      <point x="919" y="870"/>
      <point x="352" y="964"/>
      <point x="352" y="1245" type="curve" smooth="yes"/>
      <point x="352" y="1350"/>
      <point x="450" y="1421"/>
      <point x="551" y="1421" type="curve" smooth="yes"/>
      <point x="615" y="1421"/>
      <point x="675" y="1391"/>
      <point x="675" y="1327" type="curve" smooth="yes"/>
      <point x="675" y="1290"/>
      <point x="656" y="1256"/>
      <point x="656" y="1222" type="curve" smooth="yes"/>
      <point x="656" y="1174"/>
      <point x="697" y="1140"/>
      <point x="746" y="1140" type="curve" smooth="yes"/>
      <point x="795" y="1140"/>
      <point x="832" y="1185"/>
      <point x="832" y="1234" type="curve" smooth="yes"/>
      <point x="832" y="1376"/>
      <point x="697" y="1474"/>
      <point x="551" y="1474" type="curve" smooth="yes"/>
      <point x="371" y="1474"/>
      <point x="232" y="1339"/>
      <point x="232" y="1162" type="curve" smooth="yes"/>
      <point x="232" y="1061"/>
      <point x="300" y="967"/>
    </contour>
    <contour>
      <point x="409" y="862" type="curve"/>
      <point x="544" y="731"/>
      <point x="806" y="611"/>
      <point x="806" y="401" type="curve" smooth="yes"/>
      <point x="806" y="304"/>
      <point x="724" y="221"/>
      <point x="637" y="172" type="curve"/>
      <point x="506" y="296"/>
      <point x="240" y="427"/>
      <point x="240" y="622" type="curve" smooth="yes"/>
      <point x="240" y="731"/>
      <point x="315" y="810"/>
    </contour>
  </outline>
</glyph>
<glyph name="guillemotleft" format="2">
  <advance width="1237"/>
  <unicode hex="00AB"/>
  <outline>
    <contour>
      <point x="1050" y="1177" type="line"/>
      <point x="562" y="720" type="line"/>
      <point x="1050" y="262" type="line"/>
      <point x="731" y="720" type="line"/>
    </contour>
    <contour>
      <point x="750" y="1177" type="line"/>
      <point x="262" y="720" type="line"/>
      <point x="750" y="262" type="line"/>
      <point x="431" y="720" type="line"/>
    </contour>
  </outline>
</glyph>
<glyph name="logicalnot" format="2">
  <advance width="1282"/>
  <unicode hex="00AC"/>
  <outline>
    <contour>
      <point x="41" y="971" type="line"/>
      <point x="41" y="877" type="line"/>
      <point x="1147" y="877" type="line"/>
      <point x="1147" y="536" type="line"/>
      <point x="1237" y="536" type="line"/>
      <point x="1237" y="971" type="line"/>
    </contour>
  </outline>
</glyph>
<glyph name="threesuperior" format="2">
  <advance width="634"/>
  <unicode hex="00B3"/>
  <outline>
    <contour>
      <point x="206" y="1069" type="line"/>
      <point x="349" y="1069"/>
      <point x="461" y="1024"/>
      <point x="461" y="892" type="curve" smooth="yes"/>
      <point x="461" y="814"/>
      <point x="390" y="746"/>
      <point x="315" y="746" type="curve" smooth="yes"/>
      <point x="236" y="746"/>
      <point x="190" y="822"/>
      <point x="134" y="822" type="curve" smooth="yes"/>
      <point x="104" y="822"/>
      <point x="74" y="811"/>
      <point x="74" y="781" type="curve" smooth="yes"/>
      <point x="74" y="721"/>
      <point x="194" y="686"/>
      <point x="275" y="686" type="curve" smooth="yes"/>
      <point x="414" y="686"/>
      <point x="577" y="765"/>
      <point x="577" y="956" type="curve" smooth="yes"/>
      <point x="577" y="1057"/>
      <point x="521" y="1117"/>
      <point x="431" y="1151" type="curve"/>
      <point x="484" y="1189"/>
      <point x="529" y="1252"/>
      <point x="529" y="1316" type="curve" smooth="yes"/>
      <point x="529" y="1425"/>
      <point x="424" y="1474"/>
      <point x="326" y="1474" type="curve" smooth="yes"/>
      <point x="206" y="1474"/>
      <point x="116" y="1410"/>
      <point x="71" y="1309" type="curve"/>
      <point x="112" y="1290" type="line"/>
      <point x="150" y="1342"/>
      <point x="206" y="1384"/>
      <point x="274" y="1384" type="curve" smooth="yes"/>
      <point x="352" y="1384"/>
      <point x="401" y="1346"/>
      <point x="401" y="1267" type="curve" smooth="yes"/>
      <point x="401" y="1166"/>
      <point x="304" y="1106"/>
      <point x="206" y="1106" type="curve"/>
    </contour>
  </outline>
</glyph>
<glyph name="periodcentered" format="2">
  <advance width="514"/>
  <unicode hex="00B7"/>
  <unicode hex="2219"/>
  <outline>
    <contour>
      <point x="255" y="817" type="curve" smooth="yes"/>
      <point x="322" y="817"/>
      <point x="375" y="765"/>
      <point x="375" y="701" type="curve"/>
      <point x="375" y="641"/>
      <point x="322" y="589"/>
      <point x="255" y="589" type="curve" smooth="yes"/>
      <point x="191" y="589"/>
      <point x="139" y="641"/>
      <point x="139" y="701" type="curve" smooth="yes"/>
      <point x="139" y="765"/>
      <point x="191" y="817"/>
    </contour>
  </outline>
</glyph>
<glyph name="onesuperior" format="2">
  <advance width="634"/>
  <unicode hex="00B9"/>
  <outline>
    <contour>
      <point x="157" y="709" type="line"/>
      <point x="521" y="709" type="line"/>
      <point x="521" y="746" type="line"/>
      <point x="427" y="746"/>
      <point x="409" y="761"/>
      <point x="409" y="829" type="curve" smooth="yes"/>
      <point x="409" y="1474" type="line"/>
      <point x="364" y="1474" type="line"/>
      <point x="139" y="1380" type="line"/>
      <point x="157" y="1346" type="line"/>
      <point x="180" y="1357"/>
      <point x="206" y="1369"/>
      <point x="232" y="1369" type="curve" smooth="yes"/>
      <point x="266" y="1369"/>
      <point x="270" y="1350"/>
      <point x="270" y="1256" type="curve" smooth="yes"/>
      <point x="270" y="829" type="line" smooth="yes"/>
      <point x="270" y="761"/>
      <point x="255" y="746"/>
      <point x="157" y="746" type="curve"/>
    </contour>
  </outline>
</glyph>
<glyph name="ordmasculine" format="2">
  <advance width="739"/>
  <unicode hex="00BA"/>
  <outline>
    <contour>
      <point x="690" y="1159" type="curve" smooth="yes"/>
      <point x="690" y="1331"/>
      <point x="562" y="1474"/>
      <point x="379" y="1474" type="curve" smooth="yes"/>
      <point x="176" y="1474"/>
      <point x="41" y="1331"/>
      <point x="41" y="1140" type="curve" smooth="yes"/>
      <point x="41" y="964"/>
      <point x="184" y="832"/>
      <point x="364" y="832" type="curve" smooth="yes"/>
      <point x="540" y="832"/>
      <point x="690" y="990"/>
    </contour>
    <contour>
      <point x="536" y="1091" type="curve" smooth="yes"/>
      <point x="536" y="990"/>
      <point x="502" y="889"/>
      <point x="382" y="889" type="curve" smooth="yes"/>
      <point x="244" y="889"/>
      <point x="199" y="1121"/>
      <point x="199" y="1219" type="curve" smooth="yes"/>
      <point x="199" y="1301"/>
      <point x="225" y="1421"/>
      <point x="334" y="1421" type="curve" smooth="yes"/>
      <point x="484" y="1421"/>
      <point x="536" y="1204"/>
    </contour>
  </outline>
</glyph>
<glyph name="guillemotright" format="2">
  <advance width="1237"/>
  <unicode hex="00BB"/>
  <outline>
    <contour>
      <point x="750" y="720" type="line"/>
      <point x="262" y="1177" type="line"/>
      <point x="581" y="720" type="line"/>
      <point x="262" y="262" type="line"/>
    </contour>
    <contour>
      <point x="1050" y="720" type="line"/>
      <point x="562" y="1177" type="line"/>
      <point x="881" y="720" type="line"/>
      <point x="562" y="262" type="line"/>
    </contour>
  </outline>
</glyph>
<glyph name="onequarter" format="2">
  <advance width="1740"/>
  <unicode hex="00BC"/>
  <outline>
    <contour>
      <point x="1537" y="0" type="line"/>
      <point x="1537" y="191" type="line"/>
      <point x="1657" y="191" type="line"/>
      <point x="1657" y="274" type="line"/>
      <point x="1537" y="274" type="line"/>
      <point x="1537" y="765" type="line"/>
      <point x="1436" y="765" type="line"/>
      <point x="1020" y="274" type="line"/>
      <point x="1020" y="191" type="line"/>
      <point x="1399" y="191" type="line"/>
      <point x="1399" y="0" type="line"/>
    </contour>
    <contour>
      <point x="1399" y="274" type="line"/>
      <point x="1110" y="274" type="line"/>
      <point x="1395" y="615" type="line"/>
      <point x="1399" y="615" type="line"/>
    </contour>
    <contour>
      <point x="150" y="709" type="line"/>
      <point x="514" y="709" type="line"/>
      <point x="514" y="746" type="line"/>
      <point x="416" y="746"/>
      <point x="397" y="761"/>
      <point x="397" y="829" type="curve" smooth="yes"/>
      <point x="397" y="1474" type="line"/>
      <point x="352" y="1474" type="line"/>
      <point x="127" y="1380" type="line"/>
      <point x="150" y="1346" type="line"/>
      <point x="169" y="1357"/>
      <point x="199" y="1369"/>
      <point x="221" y="1369" type="curve" smooth="yes"/>
      <point x="255" y="1369"/>
      <point x="259" y="1350"/>
      <point x="259" y="1256" type="curve" smooth="yes"/>
      <point x="259" y="829" type="line" smooth="yes"/>
      <point x="259" y="761"/>
      <point x="247" y="746"/>
      <point x="150" y="746" type="curve"/>
    </contour>
    <contour>
      <point x="1399" y="1474" type="line"/>
      <point x="1301" y="1474" type="line"/>
      <point x="270" y="-53" type="line"/>
      <point x="367" y="-53" type="line"/>
    </contour>
  </outline>
</glyph>
<glyph name="onehalf" format="2">
  <advance width="1714"/>
  <unicode hex="00BD"/>
  <outline>
    <contour>
      <point x="150" y="709" type="line"/>
      <point x="514" y="709" type="line"/>
      <point x="514" y="746" type="line"/>
      <point x="416" y="746"/>
      <point x="397" y="761"/>
      <point x="397" y="829" type="curve" smooth="yes"/>
      <point x="397" y="1474" type="line"/>
      <point x="352" y="1474" type="line"/>
      <point x="127" y="1380" type="line"/>
      <point x="150" y="1346" type="line"/>
      <point x="169" y="1357"/>
      <point x="199" y="1369"/>
      <point x="221" y="1369" type="curve" smooth="yes"/>
      <point x="255" y="1369"/>
      <point x="259" y="1350"/>
      <point x="259" y="1256" type="curve" smooth="yes"/>
      <point x="259" y="829" type="line" smooth="yes"/>
      <point x="259" y="761"/>
      <point x="247" y="746"/>
      <point x="150" y="746" type="curve"/>
    </contour>
    <contour>
      <point x="1384" y="1474" type="line"/>
      <point x="1286" y="1474" type="line"/>
      <point x="255" y="-53" type="line"/>
      <point x="352" y="-53" type="line"/>
    </contour>
    <contour>
      <point x="1035" y="0" type="line"/>
      <point x="1575" y="0" type="line"/>
      <point x="1639" y="161" type="line"/>
      <point x="1586" y="161" type="line"/>
      <point x="1564" y="109"/>
      <point x="1507" y="101"/>
      <point x="1444" y="101" type="curve" smooth="yes"/>
      <point x="1207" y="101" type="line"/>
      <point x="1339" y="206"/>
      <point x="1590" y="382"/>
      <point x="1590" y="551" type="curve" smooth="yes"/>
      <point x="1590" y="682"/>
      <point x="1492" y="765"/>
      <point x="1327" y="765" type="curve" smooth="yes"/>
      <point x="1204" y="765"/>
      <point x="1087" y="667"/>
      <point x="1069" y="544" type="curve"/>
      <point x="1121" y="544" type="line"/>
      <point x="1147" y="622"/>
      <point x="1204" y="667"/>
      <point x="1290" y="667" type="curve" smooth="yes"/>
      <point x="1380" y="667"/>
      <point x="1451" y="604"/>
      <point x="1451" y="517" type="curve" smooth="yes"/>
      <point x="1451" y="341"/>
      <point x="1170" y="137"/>
      <point x="1035" y="37" type="curve"/>
    </contour>
  </outline>
</glyph>
<glyph name="Aacute" format="2">
  <advance width="1590"/>
  <unicode hex="00C1"/>
  <outline>
    <contour>
      <point x="724" y="1140" type="line"/>
      <point x="960" y="562" type="line"/>
      <point x="472" y="562" type="line"/>
    </contour>
    <contour>
      <point x="1087" y="1811" type="line"/>
      <point x="821" y="1811" type="line"/>
      <point x="634" y="1511" type="line"/>
      <point x="690" y="1511" type="line"/>
    </contour>
    <contour>
      <point x="754" y="1474" type="line"/>
      <point x="217" y="225" type="line" smooth="yes"/>
      <point x="169" y="112"/>
      <point x="116" y="37"/>
      <point x="11" y="37" type="curve"/>
      <point x="11" y="0" type="line"/>
      <point x="472" y="0" type="line"/>
      <point x="472" y="37" type="line"/>
      <point x="347" y="37"/>
      <point x="306" y="76"/>
      <point x="306" y="132" type="curve" smooth="yes"/>
      <point x="306" y="160"/>
      <point x="316" y="192"/>
      <point x="330" y="225" type="curve" smooth="yes"/>
      <point x="439" y="480" type="line"/>
      <point x="1001" y="480" type="line"/>
      <point x="1110" y="225" type="line" smooth="yes"/>
      <point x="1126" y="188"/>
      <point x="1134" y="156"/>
      <point x="1134" y="130" type="curve" smooth="yes"/>
      <point x="1134" y="68"/>
      <point x="1087" y="37"/>
      <point x="979" y="37" type="curve"/>
      <point x="979" y="0" type="line"/>
      <point x="1571" y="0" type="line"/>
      <point x="1571" y="37" type="line"/>
      <point x="1432" y="37"/>
      <point x="1386" y="94"/>
      <point x="1331" y="225" type="curve" smooth="yes"/>
      <point x="806" y="1474" type="line"/>
    </contour>
  </outline>
</glyph>
<glyph name="AE" format="2">
  <advance width="2092"/>
  <unicode hex="00C6"/>
  <outline>
    <contour>
      <point x="960" y="1440" type="line"/>
      <point x="217" y="225" type="line" smooth="yes"/>
      <point x="150" y="116"/>
      <point x="101" y="37"/>
      <point x="11" y="37" type="curve"/>
      <point x="11" y="0" type="line"/>
      <point x="472" y="0" type="line"/>
      <point x="472" y="37" type="line"/>
      <point x="345" y="37"/>
      <point x="296" y="80"/>
      <point x="296" y="137" type="curve" smooth="yes"/>
      <point x="296" y="164"/>
      <point x="307" y="194"/>
      <point x="326" y="225" type="curve" smooth="yes"/>
      <point x="649" y="750" type="line"/>
      <point x="960" y="750" type="line"/>
      <point x="960" y="229" type="line" smooth="yes"/>
      <point x="960" y="75"/>
      <point x="904" y="37"/>
      <point x="754" y="37" type="curve"/>
      <point x="754" y="0" type="line"/>
      <point x="1867" y="0" type="line"/>
      <point x="1999" y="405" type="line"/>
      <point x="1946" y="405" type="line"/>
      <point x="1890" y="221"/>
      <point x="1766" y="71"/>
      <point x="1564" y="71" type="curve" smooth="yes"/>
      <point x="1264" y="71" type="line" smooth="yes"/>
      <point x="1215" y="71"/>
      <point x="1181" y="112"/>
      <point x="1177" y="161" type="curve"/>
      <point x="1177" y="750" type="line"/>
      <point x="1492" y="750" type="line" smooth="yes"/>
      <point x="1609" y="750"/>
      <point x="1706" y="694"/>
      <point x="1706" y="521" type="curve"/>
      <point x="1744" y="521" type="line"/>
      <point x="1744" y="1009" type="line"/>
      <point x="1706" y="1009" type="line"/>
      <point x="1706" y="870"/>
      <point x="1609" y="821"/>
      <point x="1489" y="821" type="curve" smooth="yes"/>
      <point x="1177" y="821" type="line"/>
      <point x="1177" y="1369" type="line"/>
      <point x="1541" y="1369" type="line" smooth="yes"/>
      <point x="1732" y="1369"/>
      <point x="1804" y="1271"/>
      <point x="1837" y="1099" type="curve"/>
      <point x="1879" y="1099" type="line"/>
      <point x="1860" y="1440" type="line"/>
    </contour>
    <contour>
      <point x="960" y="1260" type="line"/>
      <point x="960" y="832" type="line"/>
      <point x="697" y="832" type="line"/>
    </contour>
  </outline>
</glyph>
<glyph name="Ccedilla" format="2">
  <advance width="1451"/>
  <unicode hex="00C7"/>
  <outline>
    <contour>
      <point x="1309" y="1474" type="line"/>
      <point x="1271" y="1474" type="line"/>
      <point x="1264" y="1421"/>
      <point x="1226" y="1376"/>
      <point x="1192" y="1376" type="curve" smooth="yes"/>
      <point x="1132" y="1376"/>
      <point x="1080" y="1474"/>
      <point x="825" y="1474" type="curve" smooth="yes"/>
      <point x="416" y="1474"/>
      <point x="67" y="1129"/>
      <point x="67" y="701" type="curve" smooth="yes"/>
      <point x="67" y="313"/>
      <point x="355" y="-5"/>
      <point x="760" y="-32" type="curve"/>
      <point x="717" y="-72"/>
      <point x="669" y="-138"/>
      <point x="645" y="-188" type="curve"/>
      <point x="705" y="-191"/>
      <point x="765" y="-225"/>
      <point x="765" y="-281" type="curve" smooth="yes"/>
      <point x="765" y="-326"/>
      <point x="705" y="-379"/>
      <point x="656" y="-379" type="curve" smooth="yes"/>
      <point x="607" y="-379"/>
      <point x="577" y="-368"/>
      <point x="559" y="-353" type="curve"/>
      <point x="536" y="-386" type="line"/>
      <point x="559" y="-413"/>
      <point x="634" y="-443"/>
      <point x="682" y="-443" type="curve" smooth="yes"/>
      <point x="881" y="-443"/>
      <point x="919" y="-330"/>
      <point x="919" y="-248" type="curve" smooth="yes"/>
      <point x="919" y="-180"/>
      <point x="817" y="-131"/>
      <point x="765" y="-128" type="curve"/>
      <point x="779" y="-100"/>
      <point x="816" y="-61"/>
      <point x="854" y="-32" type="curve"/>
      <point x="1089" y="-16"/>
      <point x="1276" y="151"/>
      <point x="1380" y="337" type="curve"/>
      <point x="1346" y="356" type="line"/>
      <point x="1237" y="191"/>
      <point x="1076" y="49"/>
      <point x="892" y="49" type="curve" smooth="yes"/>
      <point x="577" y="49"/>
      <point x="326" y="289"/>
      <point x="326" y="694" type="curve" smooth="yes"/>
      <point x="326" y="889"/>
      <point x="375" y="1072"/>
      <point x="469" y="1200" type="curve" smooth="yes"/>
      <point x="566" y="1331"/>
      <point x="712" y="1402"/>
      <point x="859" y="1402" type="curve" smooth="yes"/>
      <point x="1072" y="1402"/>
      <point x="1267" y="1215"/>
      <point x="1294" y="986" type="curve"/>
      <point x="1346" y="986" type="line"/>
    </contour>
  </outline>
</glyph>
<glyph name="Ecircumflex" format="2">
  <advance width="1324"/>
  <unicode hex="00CA"/>
  <outline>
    <contour>
      <point x="41" y="1440" type="line"/>
      <point x="41" y="1402" type="line"/>
      <point x="191" y="1402"/>
      <point x="247" y="1365"/>
      <point x="247" y="1211" type="curve" smooth="yes"/>
      <point x="247" y="229" type="line" smooth="yes"/>
      <point x="247" y="75"/>
      <point x="191" y="37"/>
      <point x="41" y="37" type="curve"/>
      <point x="41" y="0" type="line"/>
      <point x="1155" y="0" type="line"/>
      <point x="1286" y="405" type="line"/>
      <point x="1234" y="405" type="line"/>
      <point x="1177" y="221"/>
      <point x="1054" y="71"/>
      <point x="851" y="71" type="curve" smooth="yes"/>
      <point x="551" y="71" type="line" smooth="yes"/>
      <point x="502" y="71"/>
      <point x="469" y="112"/>
      <point x="465" y="161" type="curve"/>
      <point x="465" y="750" type="line"/>
      <point x="780" y="750" type="line" smooth="yes"/>
      <point x="896" y="750"/>
      <point x="994" y="694"/>
      <point x="994" y="521" type="curve"/>
      <point x="1031" y="521" type="line"/>
      <point x="1031" y="1009" type="line"/>
      <point x="994" y="1009" type="line"/>
      <point x="994" y="870"/>
      <point x="896" y="821"/>
      <point x="776" y="821" type="curve" smooth="yes"/>
      <point x="465" y="821" type="line"/>
      <point x="465" y="1369" type="line"/>
      <point x="829" y="1369" type="line" smooth="yes"/>
      <point x="1020" y="1369"/>
      <point x="1091" y="1271"/>
      <point x="1125" y="1099" type="curve"/>
      <point x="1166" y="1099" type="line"/>
      <point x="1147" y="1440" type="line"/>
    </contour>
    <contour>
      <point x="570" y="1781" type="line"/>
      <point x="360" y="1504" type="line"/>
      <point x="394" y="1504" type="line"/>
      <point x="671" y="1654" type="line"/>
      <point x="949" y="1504" type="line"/>
      <point x="986" y="1504" type="line"/>
      <point x="772" y="1781" type="line"/>
    </contour>
  </outline>
</glyph>
<glyph name="Otilde" format="2">
  <advance width="1579"/>
  <unicode hex="00D5"/>
  <outline>
    <contour>
      <point x="791" y="-34" type="curve" smooth="yes"/>
      <point x="1196" y="-34"/>
      <point x="1511" y="307"/>
      <point x="1511" y="727" type="curve" smooth="yes"/>
      <point x="1511" y="1140"/>
      <point x="1196" y="1474"/>
      <point x="791" y="1474" type="curve" smooth="yes"/>
      <point x="382" y="1474"/>
      <point x="67" y="1140"/>
      <point x="67" y="727" type="curve" smooth="yes"/>
      <point x="67" y="307"/>
      <point x="382" y="-34"/>
    </contour>
    <contour>
      <point x="791" y="37" type="curve" smooth="yes"/>
      <point x="484" y="37"/>
      <point x="326" y="330"/>
      <point x="326" y="727" type="curve" smooth="yes"/>
      <point x="326" y="1125"/>
      <point x="484" y="1402"/>
      <point x="791" y="1402" type="curve" smooth="yes"/>
      <point x="1087" y="1402"/>
      <point x="1252" y="1125"/>
      <point x="1252" y="727" type="curve" smooth="yes"/>
      <point x="1252" y="330"/>
      <point x="1087" y="37"/>
    </contour>
    <contour>
      <point x="506" y="1511" type="line"/>
      <point x="517" y="1571"/>
      <point x="540" y="1624"/>
      <point x="615" y="1624" type="curve" smooth="yes"/>
      <point x="660" y="1624"/>
      <point x="716" y="1605"/>
      <point x="776" y="1567" type="curve" smooth="yes"/>
      <point x="836" y="1530"/>
      <point x="900" y="1511"/>
      <point x="971" y="1511" type="curve" smooth="yes"/>
      <point x="1129" y="1511"/>
      <point x="1181" y="1624"/>
      <point x="1181" y="1755" type="curve"/>
      <point x="1151" y="1755" type="line"/>
      <point x="1140" y="1695"/>
      <point x="1117" y="1646"/>
      <point x="1042" y="1646" type="curve" smooth="yes"/>
      <point x="997" y="1646"/>
      <point x="941" y="1661"/>
      <point x="881" y="1699" type="curve" smooth="yes"/>
      <point x="821" y="1736"/>
      <point x="757" y="1755"/>
      <point x="686" y="1755" type="curve" smooth="yes"/>
      <point x="529" y="1755"/>
      <point x="472" y="1646"/>
      <point x="472" y="1511" type="curve"/>
    </contour>
  </outline>
</glyph>
<glyph name="Oslash" format="2">
  <advance width="1579"/>
  <unicode hex="00D8"/>
  <outline>
    <contour>
      <point x="169" y="22" type="line"/>
      <point x="301" y="163" type="line"/>
      <point x="428" y="40"/>
      <point x="599" y="-34"/>
      <point x="791" y="-34" type="curve" smooth="yes"/>
      <point x="1196" y="-34"/>
      <point x="1511" y="307"/>
      <point x="1511" y="727" type="curve" smooth="yes"/>
      <point x="1511" y="928"/>
      <point x="1436" y="1110"/>
      <point x="1313" y="1244" type="curve"/>
      <point x="1444" y="1384" type="line"/>
      <point x="1391" y="1440" type="line"/>
      <point x="1258" y="1298" type="line"/>
      <point x="1133" y="1408"/>
      <point x="971" y="1474"/>
      <point x="791" y="1474" type="curve" smooth="yes"/>
      <point x="382" y="1474"/>
      <point x="67" y="1140"/>
      <point x="67" y="727" type="curve" smooth="yes"/>
      <point x="67" y="532"/>
      <point x="134" y="354"/>
      <point x="248" y="220" type="curve"/>
      <point x="116" y="79" type="line"/>
    </contour>
    <contour>
      <point x="791" y="37" type="curve" smooth="yes"/>
      <point x="617" y="37"/>
      <point x="491" y="131"/>
      <point x="414" y="284" type="curve"/>
      <point x="1186" y="1109" type="line"/>
      <point x="1229" y="1003"/>
      <point x="1252" y="873"/>
      <point x="1252" y="727" type="curve" smooth="yes"/>
      <point x="1252" y="330"/>
      <point x="1087" y="37"/>
    </contour>
    <contour>
      <point x="326" y="727" type="curve" smooth="yes"/>
      <point x="326" y="1125"/>
      <point x="484" y="1402"/>
      <point x="791" y="1402" type="curve" smooth="yes"/>
      <point x="951" y="1402"/>
      <point x="1073" y="1321"/>
      <point x="1151" y="1183" type="curve"/>
      <point x="381" y="362" type="line"/>
      <point x="344" y="466"/>
      <point x="326" y="590"/>
    </contour>
  </outline>
</glyph>
<glyph name="Ucircumflex" format="2">
  <advance width="1594"/>
  <unicode hex="00DB"/>
  <outline>
    <contour>
      <point x="240" y="510" type="line" smooth="yes"/>
      <point x="240" y="210"/>
      <point x="435" y="-34"/>
      <point x="795" y="-34" type="curve" smooth="yes"/>
      <point x="1204" y="-34"/>
      <point x="1369" y="210"/>
      <point x="1369" y="506" type="curve" smooth="yes"/>
      <point x="1369" y="1211" type="line" smooth="yes"/>
      <point x="1369" y="1365"/>
      <point x="1425" y="1402"/>
      <point x="1575" y="1402" type="curve"/>
      <point x="1575" y="1440" type="line"/>
      <point x="1069" y="1440" type="line"/>
      <point x="1069" y="1402" type="line"/>
      <point x="1219" y="1402"/>
      <point x="1271" y="1365"/>
      <point x="1271" y="1211" type="curve" smooth="yes"/>
      <point x="1271" y="506" type="line" smooth="yes"/>
      <point x="1271" y="259"/>
      <point x="1117" y="60"/>
      <point x="866" y="60" type="curve" smooth="yes"/>
      <point x="619" y="60"/>
      <point x="461" y="259"/>
      <point x="461" y="506" type="curve" smooth="yes"/>
      <point x="461" y="1211" type="line" smooth="yes"/>
      <point x="461" y="1365"/>
      <point x="514" y="1402"/>
      <point x="664" y="1402" type="curve"/>
      <point x="664" y="1440" type="line"/>
      <point x="37" y="1440" type="line"/>
      <point x="37" y="1402" type="line"/>
      <point x="184" y="1402"/>
      <point x="240" y="1365"/>
      <point x="240" y="1211" type="curve" smooth="yes"/>
    </contour>
    <contour>
      <point x="757" y="1781" type="line"/>
      <point x="547" y="1504" type="line"/>
      <point x="581" y="1504" type="line"/>
      <point x="859" y="1654" type="line"/>
      <point x="1136" y="1504" type="line"/>
      <point x="1174" y="1504" type="line"/>
      <point x="960" y="1781" type="line"/>
    </contour>
  </outline>
</glyph>
<glyph name="Udieresis" format="2">
  <advance width="1594"/>
  <unicode hex="00DC"/>
  <outline>
    <contour>
      <point x="240" y="510" type="line" smooth="yes"/>
      <point x="240" y="210"/>
      <point x="435" y="-34"/>
      <point x="795" y="-34" type="curve" smooth="yes"/>
      <point x="1204" y="-34"/>
      <point x="1369" y="210"/>
      <point x="1369" y="506" type="curve" smooth="yes"/>
      <point x="1369" y="1211" type="line" smooth="yes"/>
      <point x="1369" y="1365"/>
      <point x="1425" y="1402"/>
      <point x="1575" y="1402" type="curve"/>
      <point x="1575" y="1440" type="line"/>
      <point x="1069" y="1440" type="line"/>
      <point x="1069" y="1402" type="line"/>
      <point x="1219" y="1402"/>
      <point x="1271" y="1365"/>
      <point x="1271" y="1211" type="curve" smooth="yes"/>
      <point x="1271" y="506" type="line" smooth="yes"/>
      <point x="1271" y="259"/>
      <point x="1117" y="60"/>
      <point x="866" y="60" type="curve" smooth="yes"/>
      <point x="619" y="60"/>
      <point x="461" y="259"/>
      <point x="461" y="506" type="curve" smooth="yes"/>
      <point x="461" y="1211" type="line" smooth="yes"/>
      <point x="461" y="1365"/>
      <point x="514" y="1402"/>
      <point x="664" y="1402" type="curve"/>
      <point x="664" y="1440" type="line"/>
      <point x="37" y="1440" type="line"/>
      <point x="37" y="1402" type="line"/>
      <point x="184" y="1402"/>
      <point x="240" y="1365"/>
      <point x="240" y="1211" type="curve" smooth="yes"/>
    </contour>
    <contour>
      <point x="562" y="1714" type="curve" smooth="yes"/>
      <point x="562" y="1657"/>
      <point x="611" y="1609"/>
      <point x="667" y="1609" type="curve" smooth="yes"/>
      <point x="724" y="1609"/>
      <point x="772" y="1657"/>
      <point x="772" y="1714" type="curve" smooth="yes"/>
      <point x="772" y="1770"/>
      <point x="724" y="1819"/>
      <point x="667" y="1819" type="curve" smooth="yes"/>
      <point x="611" y="1819"/>
      <point x="562" y="1770"/>
    </contour>
    <contour>
      <point x="975" y="1714" type="curve" smooth="yes"/>
      <point x="975" y="1657"/>
      <point x="1024" y="1609"/>
      <point x="1080" y="1609" type="curve" smooth="yes"/>
      <point x="1136" y="1609"/>
      <point x="1185" y="1657"/>
      <point x="1185" y="1714" type="curve" smooth="yes"/>
      <point x="1185" y="1770"/>
      <point x="1136" y="1819"/>
      <point x="1080" y="1819" type="curve" smooth="yes"/>
      <point x="1024" y="1819"/>
      <point x="975" y="1770"/>
    </contour>
  </outline>
</glyph>
<glyph name="atilde" format="2">
  <advance width="941"/>
  <unicode hex="00E3"/>
  <outline>
    <contour>
      <point x="596" y="202" type="line"/>
      <point x="529" y="146"/>
      <point x="465" y="97"/>
      <point x="386" y="97" type="curve" smooth="yes"/>
      <point x="315" y="97"/>
      <point x="244" y="176"/>
      <point x="244" y="274" type="curve" smooth="yes"/>
      <point x="244" y="412"/>
      <point x="446" y="514"/>
      <point x="596" y="566" type="curve"/>
    </contour>
    <contour>
      <point x="131" y="1192" type="line"/>
      <point x="142" y="1252"/>
      <point x="165" y="1342"/>
      <point x="240" y="1342" type="curve" smooth="yes"/>
      <point x="285" y="1342"/>
      <point x="341" y="1306"/>
      <point x="401" y="1267" type="curve" smooth="yes"/>
      <point x="460" y="1229"/>
      <point x="525" y="1192"/>
      <point x="596" y="1192" type="curve" smooth="yes"/>
      <point x="754" y="1192"/>
      <point x="806" y="1342"/>
      <point x="806" y="1474" type="curve"/>
      <point x="776" y="1474" type="line"/>
      <point x="765" y="1414"/>
      <point x="742" y="1327"/>
      <point x="667" y="1327" type="curve" smooth="yes"/>
      <point x="622" y="1327"/>
      <point x="566" y="1361"/>
      <point x="506" y="1399" type="curve" smooth="yes"/>
      <point x="446" y="1436"/>
      <point x="382" y="1474"/>
      <point x="311" y="1474" type="curve" smooth="yes"/>
      <point x="154" y="1474"/>
      <point x="97" y="1327"/>
      <point x="97" y="1192" type="curve"/>
    </contour>
    <contour>
      <point x="772" y="735" type="line"/>
      <point x="772" y="892"/>
      <point x="690" y="994"/>
      <point x="461" y="994" type="curve" smooth="yes"/>
      <point x="266" y="994"/>
      <point x="101" y="896"/>
      <point x="101" y="765" type="curve" smooth="yes"/>
      <point x="101" y="701"/>
      <point x="139" y="652"/>
      <point x="195" y="652" type="curve" smooth="yes"/>
      <point x="266" y="652"/>
      <point x="281" y="712"/>
      <point x="281" y="780" type="curve" smooth="yes"/>
      <point x="281" y="855"/>
      <point x="307" y="930"/>
      <point x="427" y="930" type="curve" smooth="yes"/>
      <point x="532" y="930"/>
      <point x="596" y="870"/>
      <point x="596" y="690" type="curve" smooth="yes"/>
      <point x="596" y="630" type="line"/>
      <point x="367" y="559"/>
      <point x="67" y="472"/>
      <point x="67" y="221" type="curve" smooth="yes"/>
      <point x="67" y="86"/>
      <point x="154" y="-23"/>
      <point x="292" y="-23" type="curve" smooth="yes"/>
      <point x="446" y="-23"/>
      <point x="514" y="64"/>
      <point x="596" y="135" type="curve"/>
      <point x="596" y="67"/>
      <point x="630" y="-23"/>
      <point x="701" y="-23" type="curve" smooth="yes"/>
      <point x="810" y="-23"/>
      <point x="885" y="45"/>
      <point x="930" y="124" type="curve"/>
      <point x="930" y="195" type="line"/>
      <point x="900" y="150"/>
      <point x="870" y="109"/>
      <point x="821" y="109" type="curve" smooth="yes"/>
      <point x="787" y="109"/>
      <point x="772" y="142"/>
      <point x="772" y="184" type="curve" smooth="yes"/>
    </contour>
  </outline>
</glyph>
<glyph name="icircumflex" format="2">
  <advance width="589"/>
  <unicode hex="00EE"/>
  <outline>
    <contour>
      <point x="217" y="225" type="line"/>
      <point x="217" y="90"/>
      <point x="195" y="37"/>
      <point x="67" y="37" type="curve"/>
      <point x="67" y="0" type="line"/>
      <point x="547" y="0" type="line"/>
      <point x="547" y="37" type="line"/>
      <point x="420" y="37"/>
      <point x="394" y="90"/>
      <point x="394" y="225" type="curve" smooth="yes"/>
      <point x="394" y="994" type="line"/>
      <point x="341" y="994" type="line"/>
      <point x="52" y="862" type="line"/>
      <point x="67" y="825" type="line"/>
      <point x="105" y="836"/>
      <point x="135" y="844"/>
      <point x="154" y="844" type="curve" smooth="yes"/>
      <point x="217" y="844"/>
      <point x="217" y="795"/>
      <point x="217" y="682" type="curve" smooth="yes"/>
    </contour>
    <contour>
      <point x="191" y="1474" type="line"/>
      <point x="-19" y="1121" type="line"/>
      <point x="15" y="1121" type="line"/>
      <point x="292" y="1346" type="line"/>
      <point x="570" y="1121" type="line"/>
      <point x="607" y="1121" type="line"/>
      <point x="394" y="1474" type="line"/>
    </contour>
  </outline>
</glyph>
<glyph name="idieresis" format="2">
  <advance width="589"/>
  <unicode hex="00EF"/>
  <outline>
    <contour>
      <point x="217" y="225" type="line"/>
      <point x="217" y="90"/>
      <point x="195" y="37"/>
      <point x="67" y="37" type="curve"/>
      <point x="67" y="0" type="line"/>
      <point x="547" y="0" type="line"/>
      <point x="547" y="37" type="line"/>
      <point x="420" y="37"/>
      <point x="394" y="90"/>
      <point x="394" y="225" type="curve" smooth="yes"/>
      <point x="394" y="994" type="line"/>
      <point x="341" y="994" type="line"/>
      <point x="52" y="862" type="line"/>
      <point x="67" y="825" type="line"/>
      <point x="105" y="836"/>
      <point x="135" y="844"/>
      <point x="154" y="844" type="curve" smooth="yes"/>
      <point x="217" y="844"/>
      <point x="217" y="795"/>
      <point x="217" y="682" type="curve" smooth="yes"/>
    </contour>
    <contour>
      <point x="4" y="1376" type="curve" smooth="yes"/>
      <point x="4" y="1320"/>
      <point x="52" y="1271"/>
      <point x="109" y="1271" type="curve" smooth="yes"/>
      <point x="165" y="1271"/>
      <point x="214" y="1320"/>
      <point x="214" y="1376" type="curve" smooth="yes"/>
      <point x="214" y="1432"/>
      <point x="165" y="1481"/>
      <point x="109" y="1481" type="curve" smooth="yes"/>
      <point x="52" y="1481"/>
      <point x="4" y="1432"/>
    </contour>
    <contour>
      <point x="379" y="1376" type="curve" smooth="yes"/>
      <point x="379" y="1320"/>
      <point x="427" y="1271"/>
      <point x="484" y="1271" type="curve" smooth="yes"/>
      <point x="540" y="1271"/>
      <point x="589" y="1320"/>
      <point x="589" y="1376" type="curve" smooth="yes"/>
      <point x="589" y="1432"/>
      <point x="540" y="1481"/>
      <point x="484" y="1481" type="curve" smooth="yes"/>
      <point x="427" y="1481"/>
      <point x="379" y="1432"/>
    </contour>
  </outline>
</glyph>
<glyph name="ntilde" format="2">
  <advance width="1099"/>
  <unicode hex="00F1"/>
  <outline>
    <contour>
      <point x="187" y="225" type="line" smooth="yes"/>
      <point x="187" y="90"/>
      <point x="161" y="37"/>
      <point x="34" y="37" type="curve"/>
      <point x="34" y="0" type="line"/>
      <point x="514" y="0" type="line"/>
      <point x="514" y="37" type="line"/>
      <point x="386" y="37"/>
      <point x="364" y="90"/>
      <point x="364" y="225" type="curve" smooth="yes"/>
      <point x="364" y="724" type="line"/>
      <point x="439" y="806"/>
      <point x="536" y="862"/>
      <point x="611" y="862" type="curve" smooth="yes"/>
      <point x="694" y="862"/>
      <point x="750" y="795"/>
      <point x="750" y="667" type="curve" smooth="yes"/>
      <point x="750" y="225" type="line" smooth="yes"/>
      <point x="750" y="90"/>
      <point x="727" y="37"/>
      <point x="600" y="37" type="curve"/>
      <point x="600" y="0" type="line"/>
      <point x="1080" y="0" type="line"/>
      <point x="1080" y="37" type="line"/>
      <point x="952" y="37"/>
      <point x="926" y="90"/>
      <point x="926" y="225" type="curve" smooth="yes"/>
      <point x="926" y="697" type="line" smooth="yes"/>
      <point x="926" y="862"/>
      <point x="829" y="994"/>
      <point x="705" y="994" type="curve" smooth="yes"/>
      <point x="585" y="994"/>
      <point x="469" y="926"/>
      <point x="364" y="795" type="curve"/>
      <point x="364" y="994" type="line"/>
      <point x="311" y="994" type="line"/>
      <point x="22" y="862" type="line"/>
      <point x="37" y="825" type="line"/>
      <point x="75" y="837"/>
      <point x="101" y="844"/>
      <point x="124" y="844" type="curve" smooth="yes"/>
      <point x="187" y="844"/>
      <point x="187" y="795"/>
      <point x="187" y="682" type="curve" smooth="yes"/>
    </contour>
    <contour>
      <point x="244" y="1192" type="line"/>
      <point x="255" y="1252"/>
      <point x="277" y="1342"/>
      <point x="352" y="1342" type="curve" smooth="yes"/>
      <point x="397" y="1342"/>
      <point x="454" y="1305"/>
      <point x="514" y="1267" type="curve" smooth="yes"/>
      <point x="574" y="1230"/>
      <point x="637" y="1192"/>
      <point x="709" y="1192" type="curve" smooth="yes"/>
      <point x="866" y="1192"/>
      <point x="919" y="1342"/>
      <point x="919" y="1474" type="curve"/>
      <point x="889" y="1474" type="line"/>
      <point x="877" y="1414"/>
      <point x="855" y="1327"/>
      <point x="780" y="1327" type="curve" smooth="yes"/>
      <point x="735" y="1327"/>
      <point x="679" y="1361"/>
      <point x="619" y="1399" type="curve" smooth="yes"/>
      <point x="559" y="1436"/>
      <point x="495" y="1474"/>
      <point x="424" y="1474" type="curve" smooth="yes"/>
      <point x="266" y="1474"/>
      <point x="210" y="1327"/>
      <point x="210" y="1192" type="curve"/>
    </contour>
  </outline>
</glyph>
<glyph name="OE" format="2">
  <advance width="1999"/>
  <unicode hex="0152"/>
  <outline>
    <contour>
      <point x="791" y="-34" type="curve" smooth="yes"/>
      <point x="866" y="-34"/>
      <point x="937" y="-23"/>
      <point x="1005" y="0" type="curve"/>
      <point x="1830" y="0" type="line"/>
      <point x="1961" y="405" type="line"/>
      <point x="1909" y="405" type="line"/>
      <point x="1852" y="221"/>
      <point x="1729" y="71"/>
      <point x="1526" y="71" type="curve" smooth="yes"/>
      <point x="1301" y="71" type="line" smooth="yes"/>
      <point x="1252" y="71"/>
      <point x="1219" y="112"/>
      <point x="1215" y="161" type="curve"/>
      <point x="1215" y="750" type="line"/>
      <point x="1455" y="750" type="line" smooth="yes"/>
      <point x="1571" y="750"/>
      <point x="1669" y="694"/>
      <point x="1669" y="521" type="curve"/>
      <point x="1706" y="521" type="line"/>
      <point x="1706" y="1009" type="line"/>
      <point x="1669" y="1009" type="line"/>
      <point x="1669" y="870"/>
      <point x="1571" y="821"/>
      <point x="1451" y="821" type="curve" smooth="yes"/>
      <point x="1215" y="821" type="line"/>
      <point x="1215" y="1369" type="line"/>
      <point x="1504" y="1369" type="line" smooth="yes"/>
      <point x="1695" y="1369"/>
      <point x="1766" y="1271"/>
      <point x="1800" y="1099" type="curve"/>
      <point x="1841" y="1099" type="line"/>
      <point x="1822" y="1440" type="line"/>
      <point x="1009" y="1440" type="line"/>
      <point x="941" y="1462"/>
      <point x="866" y="1474"/>
      <point x="791" y="1474" type="curve" smooth="yes"/>
      <point x="382" y="1474"/>
      <point x="67" y="1140"/>
      <point x="67" y="727" type="curve" smooth="yes"/>
      <point x="67" y="307"/>
      <point x="382" y="-34"/>
    </contour>
    <contour>
      <point x="791" y="37" type="curve" smooth="yes"/>
      <point x="484" y="37"/>
      <point x="326" y="330"/>
      <point x="326" y="727" type="curve" smooth="yes"/>
      <point x="326" y="1125"/>
      <point x="484" y="1402"/>
      <point x="791" y="1402" type="curve" smooth="yes"/>
      <point x="855" y="1402"/>
      <point x="892" y="1391"/>
      <point x="926" y="1380" type="curve"/>
      <point x="975" y="1354"/>
      <point x="997" y="1301"/>
      <point x="997" y="1211" type="curve" smooth="yes"/>
      <point x="997" y="229" type="line" smooth="yes"/>
      <point x="997" y="139"/>
      <point x="979" y="86"/>
      <point x="930" y="60" type="curve"/>
      <point x="889" y="45"/>
      <point x="840" y="37"/>
    </contour>
  </outline>
</glyph>
<glyph name="Ydieresis" format="2">
  <advance width="1470"/>
  <unicode hex="0178"/>
  <outline>
    <contour>
      <point x="-34" y="1440" type="line"/>
      <point x="-34" y="1402" type="line"/>
      <point x="75" y="1402"/>
      <point x="121" y="1331"/>
      <point x="184" y="1237" type="curve" smooth="yes"/>
      <point x="607" y="600" type="line"/>
      <point x="607" y="229" type="line" smooth="yes"/>
      <point x="607" y="75"/>
      <point x="551" y="37"/>
      <point x="405" y="37" type="curve"/>
      <point x="405" y="0" type="line"/>
      <point x="1031" y="0" type="line"/>
      <point x="1031" y="37" type="line"/>
      <point x="881" y="37"/>
      <point x="829" y="75"/>
      <point x="829" y="229" type="curve" smooth="yes"/>
      <point x="829" y="622" type="line"/>
      <point x="1204" y="1222" type="line" smooth="yes"/>
      <point x="1284" y="1350"/>
      <point x="1346" y="1402"/>
      <point x="1470" y="1402" type="curve"/>
      <point x="1470" y="1440" type="line"/>
      <point x="967" y="1440" type="line"/>
      <point x="967" y="1402" type="line"/>
      <point x="1069" y="1402"/>
      <point x="1117" y="1365"/>
      <point x="1117" y="1297" type="curve" smooth="yes"/>
      <point x="1117" y="1279"/>
      <point x="1113" y="1251"/>
      <point x="1095" y="1222" type="curve" smooth="yes"/>
      <point x="772" y="701" type="line"/>
      <point x="461" y="1204" type="line" smooth="yes"/>
      <point x="435" y="1247"/>
      <point x="420" y="1275"/>
      <point x="420" y="1301" type="curve" smooth="yes"/>
      <point x="420" y="1365"/>
      <point x="472" y="1402"/>
      <point x="592" y="1402" type="curve"/>
      <point x="592" y="1440" type="line"/>
    </contour>
    <contour>
      <point x="469" y="1714" type="curve" smooth="yes"/>
      <point x="469" y="1657"/>
      <point x="517" y="1609"/>
      <point x="574" y="1609" type="curve" smooth="yes"/>
      <point x="630" y="1609"/>
      <point x="679" y="1657"/>
      <point x="679" y="1714" type="curve" smooth="yes"/>
      <point x="679" y="1770"/>
      <point x="630" y="1819"/>
      <point x="574" y="1819" type="curve" smooth="yes"/>
      <point x="517" y="1819"/>
      <point x="469" y="1770"/>
    </contour>
    <contour>
      <point x="881" y="1714" type="curve" smooth="yes"/>
      <point x="881" y="1657"/>
      <point x="930" y="1609"/>
      <point x="986" y="1609" type="curve" smooth="yes"/>
      <point x="1042" y="1609"/>
      <point x="1091" y="1657"/>
      <point x="1091" y="1714" type="curve" smooth="yes"/>
      <point x="1091" y="1770"/>
      <point x="1042" y="1819"/>
      <point x="986" y="1819" type="curve" smooth="yes"/>
      <point x="930" y="1819"/>
      <point x="881" y="1770"/>
    </contour>
  </outline>
</glyph>
<glyph name="uni0243" format="2">
  <advance width="1418"/>
  <unicode hex="0243"/>
  <outline>
    <contour>
      <point x="41" y="496" type="line"/>
      <point x="41" y="342" type="line"/>
      <point x="247" y="342" type="line"/>
      <point x="247" y="229" type="line" smooth="yes"/>
      <point x="247" y="75"/>
      <point x="191" y="37"/>
      <point x="41" y="37" type="curve"/>
      <point x="41" y="0" type="line"/>
      <point x="857" y="0" type="line" smooth="yes"/>
      <point x="1134" y="0"/>
      <point x="1314" y="172"/>
      <point x="1314" y="389" type="curve" smooth="yes"/>
      <point x="1314" y="580"/>
      <point x="1190" y="711"/>
      <point x="1007" y="741" type="curve"/>
      <point x="1007" y="745" type="line"/>
      <point x="1190" y="842"/>
      <point x="1246" y="928"/>
      <point x="1246" y="1085" type="curve" smooth="yes"/>
      <point x="1246" y="1295"/>
      <point x="1052" y="1437"/>
      <point x="771" y="1437" type="curve" smooth="yes"/>
      <point x="41" y="1437" type="line"/>
      <point x="41" y="1400" type="line"/>
      <point x="191" y="1400"/>
      <point x="247" y="1362"/>
      <point x="247" y="1209" type="curve" smooth="yes"/>
      <point x="247" y="496" type="line"/>
    </contour>
    <contour>
      <point x="464" y="696" type="line"/>
      <point x="551" y="707"/>
      <point x="655" y="711"/>
      <point x="692" y="711" type="curve" smooth="yes"/>
      <point x="973" y="711"/>
      <point x="1075" y="561"/>
      <point x="1075" y="382" type="curve" smooth="yes"/>
      <point x="1075" y="217"/>
      <point x="958" y="83"/>
      <point x="703" y="83" type="curve" smooth="yes"/>
      <point x="625" y="83"/>
      <point x="516" y="94"/>
      <point x="464" y="104" type="curve"/>
      <point x="464" y="342" type="line"/>
      <point x="694" y="342" type="line"/>
      <point x="694" y="496" type="line"/>
      <point x="464" y="496" type="line"/>
    </contour>
    <contour>
      <point x="464" y="1343" type="line"/>
      <point x="539" y="1362"/>
      <point x="610" y="1366"/>
      <point x="644" y="1366" type="curve" smooth="yes"/>
      <point x="906" y="1366"/>
      <point x="1021" y="1231"/>
      <point x="1021" y="1063" type="curve" smooth="yes"/>
      <point x="1021" y="906"/>
      <point x="917" y="782"/>
      <point x="741" y="782" type="curve" smooth="yes"/>
      <point x="688" y="782"/>
      <point x="520" y="782"/>
      <point x="464" y="797" type="curve"/>
    </contour>
  </outline>
</glyph>
<glyph name="uni024E" format="2">
  <advance width="1505"/>
  <unicode hex="024E"/>
  <outline>
    <contour>
      <point x="0" y="1440" type="line"/>
      <point x="0" y="1403" type="line"/>
      <point x="111" y="1403"/>
      <point x="156" y="1331"/>
      <point x="219" y="1237" type="curve" smooth="yes"/>
      <point x="641" y="600" type="line"/>
      <point x="641" y="229" type="line" smooth="yes"/>
      <point x="641" y="76"/>
      <point x="586" y="37"/>
      <point x="440" y="37" type="curve"/>
      <point x="440" y="0" type="line"/>
      <point x="1065" y="0" type="line"/>
      <point x="1065" y="37" type="line"/>
      <point x="915" y="37"/>
      <point x="864" y="76"/>
      <point x="864" y="229" type="curve" smooth="yes"/>
      <point x="864" y="623" type="line"/>
      <point x="1239" y="1223" type="line" smooth="yes"/>
      <point x="1319" y="1352"/>
      <point x="1380" y="1403"/>
      <point x="1505" y="1403" type="curve"/>
      <point x="1505" y="1440" type="line"/>
      <point x="1001" y="1440" type="line"/>
      <point x="1001" y="1403" type="line"/>
      <point x="1104" y="1403"/>
      <point x="1151" y="1366"/>
      <point x="1151" y="1296" type="curve" smooth="yes"/>
      <point x="1151" y="1280"/>
      <point x="1145" y="1251"/>
      <point x="1130" y="1223" type="curve"/>
      <point x="807" y="700" type="line"/>
      <point x="496" y="1204" type="line"/>
      <point x="465" y="1245"/>
      <point x="455" y="1276"/>
      <point x="455" y="1300" type="curve" smooth="yes"/>
      <point x="455" y="1366"/>
      <point x="506" y="1403"/>
      <point x="627" y="1403" type="curve"/>
      <point x="627" y="1440" type="line"/>
    </contour>
    <contour>
      <point x="61" y="1004" type="line"/>
      <point x="61" y="881" type="line"/>
      <point x="1444" y="881" type="line"/>
      <point x="1444" y="1004" type="line"/>
    </contour>
  </outline>
</glyph>
<glyph name="uni0254" format="2">
  <advance width="950"/>
  <unicode hex="0254"/>
  <outline>
    <contour>
      <point x="476" y="992" type="curve" smooth="yes"/>
      <point x="270" y="992"/>
      <point x="127" y="846"/>
      <point x="67" y="603" type="curve"/>
      <point x="108" y="588" type="line"/>
      <point x="164" y="726"/>
      <point x="243" y="842"/>
      <point x="408" y="842" type="curve" smooth="yes"/>
      <point x="591" y="842"/>
      <point x="715" y="632"/>
      <point x="715" y="385" type="curve" smooth="yes"/>
      <point x="715" y="198"/>
      <point x="622" y="48"/>
      <point x="460" y="48" type="curve" smooth="yes"/>
      <point x="341" y="48"/>
      <point x="310" y="116"/>
      <point x="310" y="210" type="curve" smooth="yes"/>
      <point x="310" y="262"/>
      <point x="270" y="318"/>
      <point x="210" y="318" type="curve" smooth="yes"/>
      <point x="150" y="318"/>
      <point x="90" y="270"/>
      <point x="90" y="210" type="curve" smooth="yes"/>
      <point x="90" y="79"/>
      <point x="232" y="-23"/>
      <point x="430" y="-23" type="curve" smooth="yes"/>
      <point x="685" y="-23"/>
      <point x="890" y="214"/>
      <point x="890" y="509" type="curve" smooth="yes"/>
      <point x="890" y="775"/>
      <point x="703" y="992"/>
    </contour>
  </outline>
</glyph>
<glyph name="uni0255" format="2">
  <advance width="950"/>
  <unicode hex="0255"/>
  <outline>
    <contour>
      <point x="497" y="921" type="curve" smooth="yes"/>
      <point x="618" y="921"/>
      <point x="647" y="853"/>
      <point x="647" y="759" type="curve" smooth="yes"/>
      <point x="647" y="707"/>
      <point x="688" y="651"/>
      <point x="749" y="651" type="curve" smooth="yes"/>
      <point x="809" y="651"/>
      <point x="869" y="700"/>
      <point x="869" y="759" type="curve" smooth="yes"/>
      <point x="869" y="890"/>
      <point x="726" y="992"/>
      <point x="528" y="992" type="curve" smooth="yes"/>
      <point x="273" y="992"/>
      <point x="67" y="756"/>
      <point x="67" y="460" type="curve" smooth="yes"/>
      <point x="67" y="236"/>
      <point x="201" y="45"/>
      <point x="381" y="-8" type="curve"/>
      <point x="376" y="-59"/>
      <point x="374" y="-105"/>
      <point x="374" y="-142" type="curve" smooth="yes"/>
      <point x="374" y="-158"/>
      <point x="395" y="-187"/>
      <point x="426" y="-187" type="curve" smooth="yes"/>
      <point x="459" y="-187"/>
      <point x="487" y="-172"/>
      <point x="487" y="-142" type="curve" smooth="yes"/>
      <point x="487" y="-118"/>
      <point x="489" y="-74"/>
      <point x="494" y="-23" type="curve"/>
      <point x="731" y="-19"/>
      <point x="890" y="97"/>
      <point x="890" y="281" type="curve" smooth="yes"/>
      <point x="890" y="399"/>
      <point x="792" y="487"/>
      <point x="670" y="487" type="curve" smooth="yes"/>
      <point x="527" y="487"/>
      <point x="450" y="336"/>
      <point x="411" y="173" type="curve"/>
      <point x="306" y="248"/>
      <point x="243" y="406"/>
      <point x="243" y="584" type="curve" smooth="yes"/>
      <point x="243" y="771"/>
      <point x="337" y="921"/>
    </contour>
    <contour>
      <point x="670" y="374" type="curve" smooth="yes"/>
      <point x="726" y="374"/>
      <point x="778" y="339"/>
      <point x="778" y="281" type="curve" smooth="yes"/>
      <point x="778" y="193"/>
      <point x="715" y="127"/>
      <point x="551" y="127" type="curve" smooth="yes"/>
      <point x="540" y="127"/>
      <point x="528" y="128"/>
      <point x="518" y="129" type="curve"/>
      <point x="544" y="255"/>
      <point x="591" y="374"/>
    </contour>
  </outline>
</glyph>
<glyph name="uni025B" format="2">
  <advance width="890"/>
  <unicode hex="025B"/>
  <guideline x="0" y="992" angle="0"/>
  <guideline x="0" y="496" angle="0"/>
  <guideline x="0" y="-23" angle="0"/>
  <outline>
    <contour>
      <point x="769" y="230" type="line"/>
      <point x="724" y="163"/>
      <point x="586" y="81"/>
      <point x="485" y="81" type="curve" smooth="yes"/>
      <point x="337" y="81"/>
      <point x="258" y="166"/>
      <point x="258" y="283" type="curve" smooth="yes"/>
      <point x="258" y="403"/>
      <point x="358" y="491"/>
      <point x="447" y="491" type="curve" smooth="yes"/>
      <point x="507" y="491"/>
      <point x="524" y="468"/>
      <point x="589" y="468" type="curve" smooth="yes"/>
      <point x="618" y="468"/>
      <point x="664" y="485"/>
      <point x="664" y="524" type="curve"/>
      <point x="664" y="563"/>
      <point x="618" y="580"/>
      <point x="589" y="580" type="curve" smooth="yes"/>
      <point x="539" y="580"/>
      <point x="516" y="556"/>
      <point x="457" y="556" type="curve" smooth="yes"/>
      <point x="364" y="556"/>
      <point x="270" y="642"/>
      <point x="270" y="732" type="curve" smooth="yes"/>
      <point x="270" y="838"/>
      <point x="337" y="927"/>
      <point x="449" y="927" type="curve" smooth="yes"/>
      <point x="642" y="927"/>
      <point x="580" y="726"/>
      <point x="709" y="726" type="curve" smooth="yes"/>
      <point x="761" y="726"/>
      <point x="797" y="763"/>
      <point x="797" y="803" type="curve" smooth="yes"/>
      <point x="797" y="908"/>
      <point x="607" y="992"/>
      <point x="459" y="992" type="curve" smooth="yes"/>
      <point x="202" y="992"/>
      <point x="86" y="831"/>
      <point x="86" y="732" type="curve" smooth="yes"/>
      <point x="86" y="622"/>
      <point x="142" y="533"/>
      <point x="262" y="499" type="curve"/>
      <point x="139" y="436"/>
      <point x="64" y="364"/>
      <point x="64" y="229" type="curve" smooth="yes"/>
      <point x="64" y="94"/>
      <point x="172" y="-25"/>
      <point x="423" y="-25" type="curve" smooth="yes"/>
      <point x="632" y="-25"/>
      <point x="757" y="101"/>
      <point x="809" y="219" type="curve"/>
    </contour>
  </outline>
</glyph>
<glyph name="uni0278" format="2">
  <advance width="1071"/>
  <unicode hex="0278"/>
  <outline>
    <contour>
      <point x="430" y="-239" type="line" smooth="yes"/>
      <point x="430" y="-393"/>
      <point x="372" y="-430"/>
      <point x="223" y="-430" type="curve"/>
      <point x="223" y="-468" type="line"/>
      <point x="848" y="-468" type="line"/>
      <point x="848" y="-430" type="line"/>
      <point x="701" y="-430"/>
      <point x="640" y="-393"/>
      <point x="640" y="-239" type="curve" smooth="yes"/>
      <point x="640" y="-10" type="line"/>
      <point x="855" y="43"/>
      <point x="1005" y="260"/>
      <point x="1005" y="514" type="curve" smooth="yes"/>
      <point x="1005" y="744"/>
      <point x="855" y="936"/>
      <point x="640" y="983" type="curve"/>
      <point x="640" y="1209" type="line" smooth="yes"/>
      <point x="640" y="1362"/>
      <point x="701" y="1400"/>
      <point x="848" y="1400" type="curve"/>
      <point x="848" y="1437" type="line"/>
      <point x="223" y="1437" type="line"/>
      <point x="223" y="1400" type="line"/>
      <point x="372" y="1400"/>
      <point x="430" y="1362"/>
      <point x="430" y="1209" type="curve" smooth="yes"/>
      <point x="430" y="981" type="line"/>
      <point x="215" y="929"/>
      <point x="67" y="721"/>
      <point x="67" y="472" type="curve" smooth="yes"/>
      <point x="67" y="239"/>
      <point x="215" y="39"/>
      <point x="430" y="-11" type="curve"/>
    </contour>
    <contour>
      <point x="806" y="416" type="curve" smooth="yes"/>
      <point x="806" y="252"/>
      <point x="740" y="112"/>
      <point x="640" y="67" type="curve"/>
      <point x="640" y="882" type="line"/>
      <point x="759" y="806"/>
      <point x="806" y="626"/>
    </contour>
    <contour>
      <point x="266" y="562" type="curve" smooth="yes"/>
      <point x="266" y="724"/>
      <point x="338" y="861"/>
      <point x="430" y="906" type="curve"/>
      <point x="430" y="101" type="line"/>
      <point x="325" y="183"/>
      <point x="266" y="359"/>
    </contour>
  </outline>
</glyph>
<glyph name="uni0279" format="2">
  <advance width="726"/>
  <unicode hex="0279"/>
  <outline>
    <contour>
      <point x="580" y="744" type="line" smooth="yes"/>
      <point x="580" y="879"/>
      <point x="607" y="931"/>
      <point x="734" y="931" type="curve"/>
      <point x="734" y="969" type="line"/>
      <point x="254" y="969" type="line"/>
      <point x="254" y="931" type="line"/>
      <point x="382" y="931"/>
      <point x="408" y="879"/>
      <point x="408" y="744" type="curve" smooth="yes"/>
      <point x="408" y="276" type="line"/>
      <point x="360" y="191"/>
      <point x="310" y="127"/>
      <point x="266" y="127" type="curve" smooth="yes"/>
      <point x="206" y="127"/>
      <point x="198" y="191"/>
      <point x="120" y="191" type="curve" smooth="yes"/>
      <point x="56" y="191"/>
      <point x="19" y="156"/>
      <point x="19" y="93" type="curve" smooth="yes"/>
      <point x="19" y="29"/>
      <point x="79" y="-23"/>
      <point x="154" y="-23" type="curve" smooth="yes"/>
      <point x="251" y="-23"/>
      <point x="337" y="71"/>
      <point x="408" y="179" type="curve"/>
      <point x="408" y="-23" type="line"/>
      <point x="457" y="-23" type="line"/>
      <point x="745" y="108" type="line"/>
      <point x="734" y="145" type="line"/>
      <point x="692" y="135"/>
      <point x="666" y="127"/>
      <point x="644" y="127" type="curve" smooth="yes"/>
      <point x="580" y="127"/>
      <point x="580" y="175"/>
      <point x="580" y="287" type="curve" smooth="yes"/>
    </contour>
  </outline>
</glyph>
<glyph name="uni027B" format="2">
  <advance width="726"/>
  <unicode hex="027B"/>
  <outline>
    <contour>
      <point x="580" y="287" type="line"/>
      <point x="580" y="744" type="line"/>
      <point x="580" y="879"/>
      <point x="607" y="931"/>
      <point x="734" y="931" type="curve"/>
      <point x="734" y="969" type="line"/>
      <point x="254" y="969" type="line"/>
      <point x="254" y="931" type="line"/>
      <point x="382" y="931"/>
      <point x="408" y="879"/>
      <point x="408" y="744" type="curve" smooth="yes"/>
      <point x="408" y="276" type="line"/>
      <point x="360" y="191"/>
      <point x="310" y="127"/>
      <point x="266" y="127" type="curve" smooth="yes"/>
      <point x="206" y="127"/>
      <point x="198" y="191"/>
      <point x="120" y="191" type="curve" smooth="yes"/>
      <point x="56" y="191"/>
      <point x="19" y="156"/>
      <point x="19" y="93" type="curve" smooth="yes"/>
      <point x="19" y="29"/>
      <point x="79" y="-23"/>
      <point x="154" y="-23" type="curve" smooth="yes"/>
      <point x="251" y="-23"/>
      <point x="337" y="71"/>
      <point x="408" y="179" type="curve"/>
      <point x="408" y="-117" type="line"/>
      <point x="408" y="-315"/>
      <point x="554" y="-472"/>
      <point x="738" y="-472" type="curve" smooth="yes"/>
      <point x="913" y="-472"/>
      <point x="1048" y="-420"/>
      <point x="1048" y="-300" type="curve" smooth="yes"/>
      <point x="1048" y="-244"/>
      <point x="1011" y="-218"/>
      <point x="962" y="-218" type="curve" smooth="yes"/>
      <point x="831" y="-218"/>
      <point x="872" y="-401"/>
      <point x="730" y="-401" type="curve" smooth="yes"/>
      <point x="655" y="-401"/>
      <point x="580" y="-318"/>
      <point x="580" y="-218" type="curve" smooth="yes"/>
    </contour>
  </outline>
</glyph>
<glyph name="uni027C" format="2">
  <advance width="727"/>
  <unicode hex="027C"/>
  <outline>
    <contour>
      <point x="184" y="-188" type="line"/>
      <point x="184" y="-323"/>
      <point x="157" y="-376"/>
      <point x="30" y="-376" type="curve"/>
      <point x="30" y="-413" type="line"/>
      <point x="510" y="-413" type="line"/>
      <point x="510" y="-376" type="line"/>
      <point x="382" y="-376"/>
      <point x="356" y="-323"/>
      <point x="356" y="-188" type="curve" smooth="yes"/>
      <point x="356" y="694" type="line"/>
      <point x="405" y="780"/>
      <point x="454" y="844"/>
      <point x="499" y="844" type="curve" smooth="yes"/>
      <point x="559" y="844"/>
      <point x="566" y="780"/>
      <point x="645" y="780" type="curve" smooth="yes"/>
      <point x="709" y="780"/>
      <point x="746" y="814"/>
      <point x="746" y="877" type="curve" smooth="yes"/>
      <point x="746" y="941"/>
      <point x="686" y="994"/>
      <point x="611" y="994" type="curve" smooth="yes"/>
      <point x="514" y="994"/>
      <point x="427" y="900"/>
      <point x="356" y="791" type="curve"/>
      <point x="356" y="994" type="line"/>
      <point x="307" y="994" type="line"/>
      <point x="19" y="862" type="line"/>
      <point x="30" y="825" type="line"/>
      <point x="71" y="836"/>
      <point x="97" y="844"/>
      <point x="120" y="844" type="curve" smooth="yes"/>
      <point x="184" y="844"/>
      <point x="184" y="795"/>
      <point x="184" y="682" type="curve" smooth="yes"/>
    </contour>
  </outline>
</glyph>
<glyph name="uni0291" format="2">
  <advance width="1112"/>
  <unicode hex="0291"/>
  <outline>
    <contour>
      <point x="925" y="932" type="line"/>
      <point x="925" y="969" type="line"/>
      <point x="120" y="969" type="line"/>
      <point x="120" y="700" type="line"/>
      <point x="158" y="700" type="line"/>
      <point x="158" y="763"/>
      <point x="179" y="834"/>
      <point x="206" y="861" type="curve"/>
      <point x="229" y="880"/>
      <point x="281" y="898"/>
      <point x="329" y="898" type="curve" smooth="yes"/>
      <point x="678" y="898" type="line"/>
      <point x="37" y="52" type="line"/>
      <point x="37" y="0" type="line"/>
      <point x="565" y="0" type="line"/>
      <point x="559" y="-54"/>
      <point x="557" y="-103"/>
      <point x="557" y="-142" type="curve" smooth="yes"/>
      <point x="557" y="-158"/>
      <point x="578" y="-187"/>
      <point x="610" y="-187" type="curve" smooth="yes"/>
      <point x="642" y="-187"/>
      <point x="670" y="-172"/>
      <point x="670" y="-142" type="curve" smooth="yes"/>
      <point x="670" y="-114"/>
      <point x="673" y="-61"/>
      <point x="680" y="0" type="curve"/>
      <point x="915" y="3"/>
      <point x="1075" y="97"/>
      <point x="1075" y="281" type="curve" smooth="yes"/>
      <point x="1075" y="399"/>
      <point x="975" y="487"/>
      <point x="853" y="487" type="curve" smooth="yes"/>
      <point x="686" y="487"/>
      <point x="609" y="280"/>
      <point x="577" y="90" type="curve"/>
      <point x="290" y="90" type="line"/>
    </contour>
    <contour>
      <point x="734" y="90" type="curve"/>
      <point x="693" y="90" type="line"/>
      <point x="718" y="229"/>
      <point x="766" y="374"/>
      <point x="853" y="374" type="curve" smooth="yes"/>
      <point x="909" y="374"/>
      <point x="962" y="339"/>
      <point x="962" y="281" type="curve" smooth="yes"/>
      <point x="962" y="174"/>
      <point x="880" y="90"/>
    </contour>
  </outline>
</glyph>
<glyph name="uni0299" format="2">
  <advance width="1166"/>
  <unicode hex="0299"/>
  <guideline x="0" y="992" angle="0"/>
  <outline>
    <contour>
      <point x="214" y="155" type="line"/>
      <point x="214" y="51"/>
      <point x="164" y="26"/>
      <point x="37" y="26" type="curve"/>
      <point x="37" y="0" type="line"/>
      <point x="738" y="0" type="line" smooth="yes"/>
      <point x="975" y="0"/>
      <point x="1129" y="117"/>
      <point x="1129" y="264" type="curve" smooth="yes"/>
      <point x="1129" y="393"/>
      <point x="1019" y="481"/>
      <point x="865" y="500" type="curve"/>
      <point x="865" y="502" type="line"/>
      <point x="1019" y="568"/>
      <point x="1071" y="627"/>
      <point x="1071" y="734" type="curve" smooth="yes"/>
      <point x="1071" y="874"/>
      <point x="906" y="969"/>
      <point x="663" y="969" type="curve" smooth="yes"/>
      <point x="37" y="969" type="line"/>
      <point x="37" y="945" type="line"/>
      <point x="164" y="945"/>
      <point x="214" y="920"/>
      <point x="214" y="814" type="curve" smooth="yes"/>
    </contour>
    <contour>
      <point x="399" y="906" type="line"/>
      <point x="464" y="920"/>
      <point x="526" y="922"/>
      <point x="552" y="922" type="curve" smooth="yes"/>
      <point x="780" y="922"/>
      <point x="878" y="831"/>
      <point x="878" y="717" type="curve" smooth="yes"/>
      <point x="878" y="611"/>
      <point x="790" y="528"/>
      <point x="636" y="528" type="curve" smooth="yes"/>
      <point x="593" y="528"/>
      <point x="447" y="528"/>
      <point x="399" y="537" type="curve"/>
    </contour>
    <contour>
      <point x="399" y="471" type="line"/>
      <point x="474" y="479"/>
      <point x="563" y="481"/>
      <point x="595" y="481" type="curve" smooth="yes"/>
      <point x="834" y="481"/>
      <point x="923" y="379"/>
      <point x="923" y="258" type="curve" smooth="yes"/>
      <point x="923" y="147"/>
      <point x="821" y="55"/>
      <point x="607" y="55" type="curve" smooth="yes"/>
      <point x="539" y="55"/>
      <point x="441" y="64"/>
      <point x="399" y="71" type="curve"/>
    </contour>
  </outline>
</glyph>
<glyph name="uni02A0" format="2">
  <advance width="1084"/>
  <unicode hex="02A0"/>
  <outline>
    <contour>
      <point x="739" y="-184" type="line" smooth="yes"/>
      <point x="739" y="-319"/>
      <point x="712" y="-371"/>
      <point x="585" y="-371" type="curve"/>
      <point x="585" y="-413" type="line"/>
      <point x="1065" y="-413" type="line"/>
      <point x="1065" y="-371" type="line"/>
      <point x="937" y="-371"/>
      <point x="911" y="-323"/>
      <point x="911" y="-184" type="curve" smooth="yes"/>
      <point x="911" y="1216" type="line" smooth="yes"/>
      <point x="911" y="1318"/>
      <point x="983" y="1400"/>
      <point x="1058" y="1400" type="curve" smooth="yes"/>
      <point x="1200" y="1400"/>
      <point x="1158" y="1216"/>
      <point x="1289" y="1216" type="curve" smooth="yes"/>
      <point x="1339" y="1216"/>
      <point x="1376" y="1243"/>
      <point x="1376" y="1299" type="curve" smooth="yes"/>
      <point x="1376" y="1418"/>
      <point x="1241" y="1471"/>
      <point x="1065" y="1471" type="curve" smooth="yes"/>
      <point x="882" y="1471"/>
      <point x="739" y="1314"/>
      <point x="739" y="1115" type="curve" smooth="yes"/>
      <point x="739" y="922" type="line"/>
      <point x="709" y="960"/>
      <point x="626" y="994"/>
      <point x="551" y="994" type="curve" smooth="yes"/>
      <point x="285" y="994"/>
      <point x="67" y="746"/>
      <point x="67" y="439" type="curve" smooth="yes"/>
      <point x="67" y="184"/>
      <point x="225" y="-23"/>
      <point x="420" y="-23" type="curve" smooth="yes"/>
      <point x="577" y="-23"/>
      <point x="667" y="67"/>
      <point x="739" y="154" type="curve"/>
    </contour>
    <contour>
      <point x="739" y="247" type="line"/>
      <point x="709" y="195"/>
      <point x="619" y="127"/>
      <point x="514" y="127" type="curve" smooth="yes"/>
      <point x="367" y="127"/>
      <point x="251" y="311"/>
      <point x="251" y="540" type="curve" smooth="yes"/>
      <point x="251" y="750"/>
      <point x="375" y="922"/>
      <point x="529" y="922" type="curve" smooth="yes"/>
      <point x="581" y="922"/>
      <point x="650" y="891"/>
      <point x="682" y="859" type="curve" smooth="yes"/>
      <point x="712" y="829"/>
      <point x="739" y="791"/>
      <point x="739" y="739" type="curve" smooth="yes"/>
    </contour>
  </outline>
</glyph>
<glyph name="uni0307" format="2">
  <unicode hex="0307"/>
  <outline>
    <contour>
      <point x="-606" y="1374" type="curve" smooth="yes"/>
      <point x="-606" y="1318"/>
      <point x="-556" y="1269"/>
      <point x="-500" y="1269" type="curve" smooth="yes"/>
      <point x="-444" y="1269"/>
      <point x="-396" y="1318"/>
      <point x="-396" y="1374" type="curve" smooth="yes"/>
      <point x="-396" y="1430"/>
      <point x="-444" y="1478"/>
      <point x="-500" y="1478" type="curve" smooth="yes"/>
      <point x="-556" y="1478"/>
      <point x="-606" y="1430"/>
    </contour>
  </outline>
</glyph>
<glyph name="uni0309" format="2">
  <unicode hex="0309"/>
  <outline>
    <contour>
      <point x="-524" y="1113" type="curve"/>
      <point x="-476" y="1113" type="line"/>
      <point x="-476" y="1259"/>
      <point x="-339" y="1307"/>
      <point x="-339" y="1430" type="curve"/>
      <point x="-339" y="1506"/>
      <point x="-408" y="1560"/>
      <point x="-501" y="1560" type="curve" smooth="yes"/>
      <point x="-582" y="1560"/>
      <point x="-646" y="1516"/>
      <point x="-646" y="1447" type="curve" smooth="yes"/>
      <point x="-646" y="1409"/>
      <point x="-618" y="1375"/>
      <point x="-578" y="1375" type="curve" smooth="yes"/>
      <point x="-552" y="1375"/>
      <point x="-535" y="1396"/>
      <point x="-535" y="1416" type="curve" smooth="yes"/>
      <point x="-535" y="1440"/>
      <point x="-569" y="1457"/>
      <point x="-569" y="1480" type="curve"/>
      <point x="-569" y="1501"/>
      <point x="-547" y="1519"/>
      <point x="-509" y="1519" type="curve" smooth="yes"/>
      <point x="-460" y="1519"/>
      <point x="-425" y="1491"/>
      <point x="-425" y="1425" type="curve" smooth="yes"/>
      <point x="-425" y="1306"/>
      <point x="-524" y="1245"/>
    </contour>
  </outline>
</glyph>
<glyph name="uni030A" format="2">
  <unicode hex="030A"/>
  <outline>
    <contour>
      <point x="-771" y="1375" type="curve" smooth="yes"/>
      <point x="-771" y="1224"/>
      <point x="-651" y="1104"/>
      <point x="-500" y="1104" type="curve" smooth="yes"/>
      <point x="-348" y="1104"/>
      <point x="-229" y="1224"/>
      <point x="-229" y="1375" type="curve" smooth="yes"/>
      <point x="-229" y="1527"/>
      <point x="-348" y="1647"/>
      <point x="-500" y="1647" type="curve" smooth="yes"/>
      <point x="-651" y="1647"/>
      <point x="-771" y="1527"/>
    </contour>
    <contour>
      <point x="-685" y="1375" type="curve" smooth="yes"/>
      <point x="-685" y="1476"/>
      <point x="-601" y="1561"/>
      <point x="-500" y="1561" type="curve" smooth="yes"/>
      <point x="-399" y="1561"/>
      <point x="-314" y="1476"/>
      <point x="-314" y="1375" type="curve" smooth="yes"/>
      <point x="-314" y="1275"/>
      <point x="-399" y="1190"/>
      <point x="-500" y="1190" type="curve" smooth="yes"/>
      <point x="-601" y="1190"/>
      <point x="-685" y="1275"/>
    </contour>
  </outline>
</glyph>
<glyph name="uni0318" format="2">
  <unicode hex="0318"/>
  <outline>
    <contour>
      <point x="-440" y="-505" type="line"/>
      <point x="-328" y="-505" type="line"/>
      <point x="-328" y="-131" type="line"/>
      <point x="-440" y="-131" type="line"/>
      <point x="-440" y="-262" type="line"/>
      <point x="-664" y="-262" type="line"/>
      <point x="-664" y="-374" type="line"/>
      <point x="-440" y="-374" type="line"/>
    </contour>
  </outline>
</glyph>
<glyph name="uni0319" format="2">
  <unicode hex="0319"/>
  <outline>
    <contour>
      <point x="-560" y="-131" type="line"/>
      <point x="-672" y="-131" type="line"/>
      <point x="-672" y="-505" type="line"/>
      <point x="-560" y="-505" type="line"/>
      <point x="-560" y="-374" type="line"/>
      <point x="-335" y="-374" type="line"/>
      <point x="-335" y="-262" type="line"/>
      <point x="-560" y="-262" type="line"/>
    </contour>
  </outline>
</glyph>
<glyph name="uni0325" format="2">
  <unicode hex="0325"/>
  <outline>
    <contour>
      <point x="-772" y="-422" type="curve" smooth="yes"/>
      <point x="-772" y="-574"/>
      <point x="-651" y="-693"/>
      <point x="-500" y="-693" type="curve" smooth="yes"/>
      <point x="-348" y="-693"/>
      <point x="-229" y="-574"/>
      <point x="-229" y="-422" type="curve" smooth="yes"/>
      <point x="-229" y="-270"/>
      <point x="-348" y="-150"/>
      <point x="-500" y="-150" type="curve" smooth="yes"/>
      <point x="-651" y="-150"/>
      <point x="-772" y="-270"/>
    </contour>
    <contour>
      <point x="-685" y="-422" type="curve" smooth="yes"/>
      <point x="-685" y="-320"/>
      <point x="-601" y="-237"/>
      <point x="-500" y="-237" type="curve" smooth="yes"/>
      <point x="-398" y="-237"/>
      <point x="-315" y="-320"/>
      <point x="-315" y="-422" type="curve" smooth="yes"/>
      <point x="-315" y="-522"/>
      <point x="-398" y="-607"/>
      <point x="-500" y="-607" type="curve" smooth="yes"/>
      <point x="-601" y="-607"/>
      <point x="-685" y="-522"/>
    </contour>
  </outline>
</glyph>
<glyph name="uni032C" format="2">
  <unicode hex="032C"/>
  <outline>
    <contour>
      <point x="-399" y="-501" type="line"/>
      <point x="-190" y="-150" type="line"/>
      <point x="-223" y="-150" type="line"/>
      <point x="-500" y="-374" type="line"/>
      <point x="-778" y="-150" type="line"/>
      <point x="-815" y="-150" type="line"/>
      <point x="-601" y="-501" type="line"/>
    </contour>
  </outline>
</glyph>
<glyph name="uni032E" format="2">
  <unicode hex="032E"/>
  <outline>
    <contour>
      <point x="-223" y="-150" type="line"/>
      <point x="-245" y="-206"/>
      <point x="-351" y="-341"/>
      <point x="-500" y="-341" type="curve" smooth="yes"/>
      <point x="-650" y="-341"/>
      <point x="-754" y="-206"/>
      <point x="-777" y="-150" type="curve"/>
      <point x="-814" y="-150" type="line"/>
      <point x="-796" y="-244"/>
      <point x="-706" y="-468"/>
      <point x="-500" y="-468" type="curve" smooth="yes"/>
      <point x="-294" y="-468"/>
      <point x="-208" y="-244"/>
      <point x="-189" y="-150" type="curve"/>
    </contour>
  </outline>
</glyph>
<glyph name="uni032F" format="2">
  <unicode hex="032F"/>
  <outline>
    <contour>
      <point x="-777" y="-468" type="line"/>
      <point x="-755" y="-412"/>
      <point x="-649" y="-277"/>
      <point x="-500" y="-277" type="curve" smooth="yes"/>
      <point x="-350" y="-277"/>
      <point x="-246" y="-412"/>
      <point x="-223" y="-468" type="curve"/>
      <point x="-186" y="-468" type="line"/>
      <point x="-204" y="-374"/>
      <point x="-294" y="-150"/>
      <point x="-500" y="-150" type="curve" smooth="yes"/>
      <point x="-706" y="-150"/>
      <point x="-792" y="-374"/>
      <point x="-811" y="-468" type="curve"/>
    </contour>
  </outline>
</glyph>
<glyph name="uni033A" format="2">
  <unicode hex="033A"/>
  <outline>
    <contour>
      <point x="-668" y="-150" type="line"/>
      <point x="-780" y="-150" type="line"/>
      <point x="-780" y="-524" type="line"/>
      <point x="-220" y="-524" type="line"/>
      <point x="-220" y="-150" type="line"/>
      <point x="-332" y="-150" type="line"/>
      <point x="-332" y="-412" type="line"/>
      <point x="-668" y="-412" type="line"/>
    </contour>
  </outline>
</glyph>
<glyph name="uni1784" format="2">
  <advance width="1465"/>
  <unicode hex="1784"/>
  <anchor x="1237" y="0" name="L"/>
  <anchor x="787" y="1740" name="MA"/>
  <anchor x="1237" y="1665" name="U"/>
  <outline>
    <contour>
      <point x="887" y="1215" type="curve" smooth="yes"/>
      <point x="887" y="1267"/>
      <point x="930" y="1310"/>
      <point x="982" y="1310" type="curve" smooth="yes"/>
      <point x="1034" y="1310"/>
      <point x="1077" y="1267"/>
      <point x="1077" y="1215" type="curve" smooth="yes"/>
      <point x="1077" y="1163"/>
      <point x="1027" y="1121"/>
      <point x="982" y="1100" type="curve"/>
      <point x="937" y="1121"/>
      <point x="887" y="1170"/>
    </contour>
    <contour>
      <point x="1240" y="892" type="line"/>
      <point x="1229" y="941"/>
      <point x="1150" y="1016"/>
      <point x="1117" y="1035" type="curve"/>
      <point x="1177" y="1080"/>
      <point x="1207" y="1140"/>
      <point x="1207" y="1215" type="curve" smooth="yes"/>
      <point x="1207" y="1339"/>
      <point x="1105" y="1440"/>
      <point x="982" y="1440" type="curve" smooth="yes"/>
      <point x="858" y="1440"/>
      <point x="757" y="1339"/>
      <point x="757" y="1215" type="curve" smooth="yes"/>
      <point x="757" y="1144"/>
      <point x="787" y="1084"/>
      <point x="847" y="1035" type="curve"/>
      <point x="805" y="1009"/>
      <point x="753" y="1008"/>
      <point x="693" y="1008" type="curve" smooth="yes"/>
      <point x="603" y="1008"/>
      <point x="472" y="1087"/>
      <point x="472" y="1215" type="curve" smooth="yes"/>
      <point x="472" y="1346"/>
      <point x="585" y="1473"/>
      <point x="585" y="1605" type="curve" smooth="yes"/>
      <point x="585" y="1676"/>
      <point x="524" y="1740"/>
      <point x="453" y="1740" type="curve" smooth="yes"/>
      <point x="397" y="1740"/>
      <point x="367" y="1725"/>
      <point x="340" y="1710" type="curve"/>
      <point x="415" y="1710"/>
      <point x="453" y="1642"/>
      <point x="453" y="1609" type="curve" smooth="yes"/>
      <point x="453" y="1489"/>
      <point x="340" y="1320"/>
      <point x="340" y="1215" type="curve" smooth="yes"/>
      <point x="340" y="1050"/>
      <point x="513" y="896"/>
      <point x="712" y="896" type="curve" smooth="yes"/>
      <point x="798" y="896"/>
      <point x="933" y="937"/>
      <point x="982" y="964" type="curve"/>
      <point x="1030" y="937"/>
      <point x="1072" y="919"/>
      <point x="1090" y="870" type="curve"/>
      <point x="1090" y="214" type="line" smooth="yes"/>
      <point x="1090" y="172"/>
      <point x="1072" y="150"/>
      <point x="1038" y="150" type="curve" smooth="yes"/>
      <point x="1019" y="150"/>
      <point x="963" y="188"/>
      <point x="888" y="247" type="curve" smooth="yes"/>
      <point x="857" y="271"/>
      <point x="820" y="300"/>
      <point x="790" y="300" type="curve" smooth="yes"/>
      <point x="760" y="300"/>
      <point x="723" y="271"/>
      <point x="692" y="247" type="curve" smooth="yes"/>
      <point x="617" y="188"/>
      <point x="562" y="150"/>
      <point x="543" y="150" type="curve" smooth="yes"/>
      <point x="509" y="150"/>
      <point x="490" y="172"/>
      <point x="490" y="214" type="curve" smooth="yes"/>
      <point x="490" y="821" type="line"/>
      <point x="464" y="885"/>
      <point x="397" y="900"/>
      <point x="340" y="900" type="curve"/>
      <point x="179" y="870"/>
      <point x="115" y="743"/>
      <point x="115" y="653" type="curve" smooth="yes"/>
      <point x="115" y="536"/>
      <point x="183" y="495"/>
      <point x="228" y="495" type="curve" smooth="yes"/>
      <point x="269" y="495"/>
      <point x="284" y="525"/>
      <point x="284" y="540" type="curve" smooth="yes"/>
      <point x="284" y="600"/>
      <point x="245" y="608"/>
      <point x="245" y="649" type="curve" smooth="yes"/>
      <point x="245" y="713"/>
      <point x="284" y="744"/>
      <point x="340" y="770" type="curve"/>
      <point x="340" y="67" type="line" smooth="yes"/>
      <point x="340" y="34"/>
      <point x="374" y="0"/>
      <point x="408" y="0" type="curve" smooth="yes"/>
      <point x="490" y="0" type="line" smooth="yes"/>
      <point x="535" y="0"/>
      <point x="597" y="46"/>
      <point x="628" y="71" type="curve" smooth="yes"/>
      <point x="698" y="127"/>
      <point x="765" y="180"/>
      <point x="790" y="180" type="curve" smooth="yes"/>
      <point x="815" y="180"/>
      <point x="882" y="127"/>
      <point x="952" y="71" type="curve" smooth="yes"/>
      <point x="984" y="46"/>
      <point x="1045" y="0"/>
      <point x="1090" y="0" type="curve" smooth="yes"/>
      <point x="1173" y="0" type="line" smooth="yes"/>
      <point x="1207" y="0"/>
      <point x="1240" y="34"/>
      <point x="1240" y="67" type="curve" smooth="yes"/>
    </contour>
  </outline>
</glyph>
<glyph name="uni1789" format="2">
  <advance width="2075"/>
  <unicode hex="1789"/>
  <anchor x="1837" y="-600" name="L"/>
  <anchor x="1444" y="1440" name="MA"/>
  <anchor x="1837" y="1440" name="U"/>
  <outline>
    <contour>
      <point x="300" y="79" type="line"/>
      <point x="326" y="15"/>
      <point x="394" y="0"/>
      <point x="450" y="0" type="curve"/>
      <point x="596" y="30"/>
      <point x="675" y="169"/>
      <point x="675" y="247" type="curve" smooth="yes"/>
      <point x="675" y="379"/>
      <point x="574" y="446"/>
      <point x="450" y="450" type="curve"/>
      <point x="450" y="1144" type="line" smooth="yes"/>
      <point x="450" y="1192"/>
      <point x="517" y="1270"/>
      <point x="551" y="1270" type="curve" smooth="yes"/>
      <point x="596" y="1270"/>
      <point x="690" y="1125"/>
      <point x="750" y="1125" type="curve" smooth="yes"/>
      <point x="814" y="1125"/>
      <point x="900" y="1270"/>
      <point x="949" y="1270" type="curve" smooth="yes"/>
      <point x="990" y="1270"/>
      <point x="1050" y="1192"/>
      <point x="1050" y="1144" type="curve" smooth="yes"/>
      <point x="1050" y="0" type="line"/>
      <point x="1200" y="0" type="line"/>
      <point x="1200" y="1162" type="line" smooth="yes"/>
      <point x="1200" y="1256"/>
      <point x="1360" y="1328"/>
      <point x="1450" y="1328" type="curve" smooth="yes"/>
      <point x="1540" y="1328"/>
      <point x="1700" y="1256"/>
      <point x="1700" y="1162" type="curve" smooth="yes"/>
      <point x="1700" y="0" type="line"/>
      <point x="1850" y="0" type="line"/>
      <point x="1850" y="1200" type="line" smooth="yes"/>
      <point x="1850" y="1335"/>
      <point x="1640" y="1440"/>
      <point x="1450" y="1440" type="curve" smooth="yes"/>
      <point x="1329" y="1440"/>
      <point x="1200" y="1397"/>
      <point x="1122" y="1331" type="curve"/>
      <point x="1076" y="1389"/>
      <point x="1018" y="1440"/>
      <point x="971" y="1440" type="curve" smooth="yes"/>
      <point x="892" y="1440"/>
      <point x="810" y="1275"/>
      <point x="750" y="1275" type="curve" smooth="yes"/>
      <point x="690" y="1275"/>
      <point x="600" y="1440"/>
      <point x="521" y="1440" type="curve" smooth="yes"/>
      <point x="427" y="1440"/>
      <point x="300" y="1241"/>
      <point x="300" y="1181" type="curve" smooth="yes"/>
    </contour>
    <contour>
      <point x="1569" y="-263" type="curve" smooth="yes"/>
      <point x="1569" y="-326"/>
      <point x="1629" y="-375"/>
      <point x="1678" y="-375" type="curve"/>
      <point x="1685" y="-379"/>
      <point x="1689" y="-390"/>
      <point x="1689" y="-401" type="curve" smooth="yes"/>
      <point x="1689" y="-461"/>
      <point x="1614" y="-488"/>
      <point x="1565" y="-488" type="curve" smooth="yes"/>
      <point x="1228" y="-488"/>
      <point x="1020" y="-180"/>
      <point x="750" y="-180" type="curve" smooth="yes"/>
      <point x="551" y="-180"/>
      <point x="450" y="-326"/>
      <point x="450" y="-360" type="curve"/>
      <point x="521" y="-304"/>
      <point x="592" y="-289"/>
      <point x="727" y="-289" type="curve" smooth="yes"/>
      <point x="967" y="-289"/>
      <point x="1194" y="-600"/>
      <point x="1554" y="-600" type="curve" smooth="yes"/>
      <point x="1760" y="-600"/>
      <point x="1850" y="-480"/>
      <point x="1850" y="-304" type="curve" smooth="yes"/>
      <point x="1850" y="-203"/>
      <point x="1764" y="-150"/>
      <point x="1689" y="-150" type="curve" smooth="yes"/>
      <point x="1633" y="-150"/>
      <point x="1569" y="-199"/>
    </contour>
    <contour>
      <point x="450" y="320" type="line"/>
      <point x="499" y="320"/>
      <point x="545" y="281"/>
      <point x="545" y="251" type="curve" smooth="yes"/>
      <point x="545" y="187"/>
      <point x="506" y="156"/>
      <point x="450" y="130" type="curve"/>
    </contour>
  </outline>
</glyph>
<glyph name="uni178F" format="2">
  <advance width="1425"/>
  <unicode hex="178F"/>
  <anchor x="1200" y="0" name="L"/>
  <anchor x="750" y="1440" name="MA"/>
  <anchor x="1200" y="1440" name="U"/>
  <outline>
    <contour>
      <point x="300" y="79" type="line"/>
      <point x="326" y="15"/>
      <point x="394" y="0"/>
      <point x="450" y="0" type="curve"/>
      <point x="596" y="30"/>
      <point x="675" y="169"/>
      <point x="675" y="247" type="curve" smooth="yes"/>
      <point x="675" y="379"/>
      <point x="574" y="446"/>
      <point x="450" y="450" type="curve"/>
      <point x="450" y="909" type="line" smooth="yes"/>
      <point x="450" y="973"/>
      <point x="660" y="1009"/>
      <point x="750" y="1009" type="curve" smooth="yes"/>
      <point x="840" y="1009"/>
      <point x="1050" y="973"/>
      <point x="1050" y="909" type="curve" smooth="yes"/>
      <point x="1050" y="0" type="line"/>
      <point x="1200" y="0" type="line"/>
      <point x="1200" y="934" type="line" smooth="yes"/>
      <point x="1200" y="1034"/>
      <point x="940" y="1121"/>
      <point x="750" y="1121" type="curve" smooth="yes"/>
      <point x="610" y="1121"/>
      <point x="432" y="1074"/>
      <point x="348" y="1009" type="curve"/>
      <point x="303" y="1049"/>
      <point x="266" y="1103"/>
      <point x="266" y="1145" type="curve" smooth="yes"/>
      <point x="266" y="1250"/>
      <point x="350" y="1294"/>
      <point x="435" y="1294" type="curve" smooth="yes"/>
      <point x="581" y="1294"/>
      <point x="679" y="1228"/>
      <point x="750" y="1181" type="curve"/>
      <point x="836" y="1241"/>
      <point x="904" y="1290"/>
      <point x="1029" y="1290" type="curve" smooth="yes"/>
      <point x="1106" y="1290"/>
      <point x="1148" y="1207"/>
      <point x="1219" y="1207" type="curve" smooth="yes"/>
      <point x="1305" y="1207"/>
      <point x="1345" y="1238"/>
      <point x="1350" y="1342" type="curve"/>
      <point x="1335" y="1335"/>
      <point x="1324" y="1331"/>
      <point x="1312" y="1331" type="curve" smooth="yes"/>
      <point x="1267" y="1331"/>
      <point x="1209" y="1368"/>
      <point x="1181" y="1387" type="curve" smooth="yes"/>
      <point x="1131" y="1420"/>
      <point x="1092" y="1440"/>
      <point x="1020" y="1440" type="curve" smooth="yes"/>
      <point x="874" y="1440"/>
      <point x="820" y="1381"/>
      <point x="750" y="1309" type="curve"/>
      <point x="654" y="1393"/>
      <point x="539" y="1440"/>
      <point x="394" y="1440" type="curve" smooth="yes"/>
      <point x="274" y="1440"/>
      <point x="169" y="1309"/>
      <point x="169" y="1179" type="curve" smooth="yes"/>
      <point x="169" y="1080"/>
      <point x="245" y="997"/>
      <point x="305" y="958" type="curve"/>
      <point x="301" y="950"/>
      <point x="300" y="942"/>
      <point x="300" y="934" type="curve" smooth="yes"/>
    </contour>
    <contour>
      <point x="450" y="320" type="line"/>
      <point x="499" y="320"/>
      <point x="545" y="281"/>
      <point x="545" y="251" type="curve" smooth="yes"/>
      <point x="545" y="187"/>
      <point x="506" y="156"/>
      <point x="450" y="130" type="curve"/>
    </contour>
  </outline>
</glyph>
<glyph name="uni1799" format="2">
  <advance width="1950"/>
  <unicode hex="1799"/>
  <anchor x="1725" y="0" name="L"/>
  <anchor x="1350" y="1440" name="MA"/>
  <anchor x="1725" y="1440" name="U"/>
  <outline>
    <contour>
      <point x="1725" y="979" type="line" smooth="yes"/>
      <point x="1725" y="1027"/>
      <point x="1665" y="1057"/>
      <point x="1594" y="1091" type="curve" smooth="yes"/>
      <point x="1538" y="1117"/>
      <point x="1489" y="1147"/>
      <point x="1489" y="1211" type="curve" smooth="yes"/>
      <point x="1489" y="1260"/>
      <point x="1523" y="1301"/>
      <point x="1572" y="1301" type="curve" smooth="yes"/>
      <point x="1620" y="1301"/>
      <point x="1673" y="1222"/>
      <point x="1763" y="1222" type="curve" smooth="yes"/>
      <point x="1849" y="1222"/>
      <point x="1894" y="1252"/>
      <point x="1898" y="1357" type="curve"/>
      <point x="1883" y="1350"/>
      <point x="1868" y="1346"/>
      <point x="1857" y="1346" type="curve" smooth="yes"/>
      <point x="1755" y="1346"/>
      <point x="1703" y="1440"/>
      <point x="1620" y="1440" type="curve" smooth="yes"/>
      <point x="1515" y="1440"/>
      <point x="1403" y="1305"/>
      <point x="1403" y="1189" type="curve" smooth="yes"/>
      <point x="1403" y="1114"/>
      <point x="1422" y="1057"/>
      <point x="1497" y="1016" type="curve"/>
      <point x="1538" y="997"/>
      <point x="1575" y="971"/>
      <point x="1575" y="922" type="curve" smooth="yes"/>
      <point x="1575" y="195" type="line" smooth="yes"/>
      <point x="1575" y="139"/>
      <point x="1440" y="112"/>
      <point x="1350" y="112" type="curve" smooth="yes"/>
      <point x="1260" y="112"/>
      <point x="1125" y="139"/>
      <point x="1125" y="195" type="curve" smooth="yes"/>
      <point x="1125" y="979" type="line" smooth="yes"/>
      <point x="1125" y="1027"/>
      <point x="1065" y="1057"/>
      <point x="994" y="1091" type="curve" smooth="yes"/>
      <point x="938" y="1117"/>
      <point x="889" y="1147"/>
      <point x="889" y="1211" type="curve" smooth="yes"/>
      <point x="889" y="1260"/>
      <point x="923" y="1301"/>
      <point x="972" y="1301" type="curve" smooth="yes"/>
      <point x="1020" y="1301"/>
      <point x="1073" y="1222"/>
      <point x="1163" y="1222" type="curve" smooth="yes"/>
      <point x="1249" y="1222"/>
      <point x="1294" y="1252"/>
      <point x="1298" y="1357" type="curve"/>
      <point x="1283" y="1350"/>
      <point x="1268" y="1346"/>
      <point x="1257" y="1346" type="curve" smooth="yes"/>
      <point x="1155" y="1346"/>
      <point x="1103" y="1440"/>
      <point x="1020" y="1440" type="curve" smooth="yes"/>
      <point x="915" y="1440"/>
      <point x="803" y="1305"/>
      <point x="803" y="1189" type="curve" smooth="yes"/>
      <point x="803" y="1114"/>
      <point x="822" y="1057"/>
      <point x="897" y="1016" type="curve"/>
      <point x="938" y="997"/>
      <point x="975" y="971"/>
      <point x="975" y="922" type="curve" smooth="yes"/>
      <point x="975" y="195" type="line" smooth="yes"/>
      <point x="975" y="139"/>
      <point x="802" y="112"/>
      <point x="712" y="112" type="curve" smooth="yes"/>
      <point x="622" y="112"/>
      <point x="450" y="139"/>
      <point x="450" y="195" type="curve" smooth="yes"/>
      <point x="450" y="990" type="line"/>
      <point x="574" y="994"/>
      <point x="675" y="1061"/>
      <point x="675" y="1192" type="curve" smooth="yes"/>
      <point x="675" y="1271"/>
      <point x="596" y="1410"/>
      <point x="450" y="1440" type="curve"/>
      <point x="394" y="1440"/>
      <point x="326" y="1425"/>
      <point x="300" y="1361" type="curve"/>
      <point x="300" y="187" type="line" smooth="yes"/>
      <point x="300" y="87"/>
      <point x="522" y="0"/>
      <point x="712" y="0" type="curve" smooth="yes"/>
      <point x="830" y="0"/>
      <point x="962" y="34"/>
      <point x="1044" y="83" type="curve"/>
      <point x="1115" y="34"/>
      <point x="1231" y="0"/>
      <point x="1350" y="0" type="curve" smooth="yes"/>
      <point x="1540" y="0"/>
      <point x="1725" y="87"/>
      <point x="1725" y="187" type="curve" smooth="yes"/>
    </contour>
    <contour>
      <point x="450" y="1310" type="line"/>
      <point x="506" y="1283"/>
      <point x="545" y="1252"/>
      <point x="545" y="1189" type="curve" smooth="yes"/>
      <point x="545" y="1159"/>
      <point x="499" y="1120"/>
      <point x="450" y="1120" type="curve"/>
    </contour>
  </outline>
</glyph>
<glyph name="uni17BC" format="2">
  <unicode hex="17BC"/>
  <anchor x="-225" y="0" name="_L"/>
  <anchor x="-544" y="0" name="_M"/>
  <outline>
    <contour>
      <point x="-788" y="-259" type="curve" smooth="yes"/>
      <point x="-788" y="-293"/>
      <point x="-754" y="-334"/>
      <point x="-694" y="-338" type="curve"/>
      <point x="-694" y="-450"/>
      <point x="-863" y="-615"/>
      <point x="-863" y="-664" type="curve" smooth="yes"/>
      <point x="-863" y="-716"/>
      <point x="-803" y="-825"/>
      <point x="-619" y="-825" type="curve" smooth="yes"/>
      <point x="-394" y="-825"/>
      <point x="-319" y="-578"/>
      <point x="-301" y="-428" type="curve" smooth="yes"/>
      <point x="-285" y="-289"/>
      <point x="-225" y="-169"/>
      <point x="-225" y="-150" type="curve"/>
      <point x="-311" y="-180"/>
      <point x="-401" y="-308"/>
      <point x="-418" y="-424" type="curve"/>
      <point x="-435" y="-533"/>
      <point x="-503" y="-713"/>
      <point x="-589" y="-713" type="curve" smooth="yes"/>
      <point x="-649" y="-713"/>
      <point x="-709" y="-686"/>
      <point x="-720" y="-645" type="curve"/>
      <point x="-720" y="-608"/>
      <point x="-544" y="-435"/>
      <point x="-544" y="-251" type="curve" smooth="yes"/>
      <point x="-544" y="-191"/>
      <point x="-608" y="-150"/>
      <point x="-668" y="-150" type="curve" smooth="yes"/>
      <point x="-728" y="-150"/>
      <point x="-788" y="-188"/>
    </contour>
  </outline>
</glyph>
<glyph name="uni17BF" format="2">
  <advance width="2775"/>
  <unicode hex="17BF"/>
  <anchor x="2437" y="-600" name="L"/>
  <anchor x="1894" y="2377" name="MA"/>
  <anchor x="2437" y="2377" name="U"/>
  <outline>
    <contour>
      <point x="450" y="320" type="line"/>
      <point x="499" y="320"/>
      <point x="545" y="281"/>
      <point x="545" y="251" type="curve" smooth="yes"/>
      <point x="545" y="187"/>
      <point x="502" y="153"/>
      <point x="450" y="130" type="curve"/>
    </contour>
    <contour>
      <point x="1350" y="75" type="curve" smooth="yes"/>
      <point x="1350" y="34"/>
      <point x="1384" y="0"/>
      <point x="1425" y="0" type="curve" smooth="yes"/>
      <point x="1466" y="0"/>
      <point x="1500" y="34"/>
      <point x="1500" y="75" type="curve" smooth="yes"/>
      <point x="1500" y="116"/>
      <point x="1466" y="150"/>
      <point x="1425" y="150" type="curve" smooth="yes"/>
      <point x="1384" y="150"/>
      <point x="1350" y="116"/>
    </contour>
    <contour>
      <point x="975" y="675" type="curve" smooth="yes"/>
      <point x="975" y="634"/>
      <point x="1009" y="600"/>
      <point x="1050" y="600" type="curve" smooth="yes"/>
      <point x="1091" y="600"/>
      <point x="1125" y="634"/>
      <point x="1125" y="675" type="curve" smooth="yes"/>
      <point x="1125" y="716"/>
      <point x="1091" y="750"/>
      <point x="1050" y="750" type="curve" smooth="yes"/>
      <point x="1009" y="750"/>
      <point x="975" y="716"/>
    </contour>
    <contour>
      <point x="1162" y="420" type="curve" smooth="yes"/>
      <point x="1162" y="461"/>
      <point x="1129" y="495"/>
      <point x="1087" y="495" type="curve" smooth="yes"/>
      <point x="1046" y="495"/>
      <point x="1012" y="461"/>
      <point x="1012" y="420" type="curve" smooth="yes"/>
      <point x="1012" y="379"/>
      <point x="1046" y="345"/>
      <point x="1087" y="345" type="curve" smooth="yes"/>
      <point x="1129" y="345"/>
      <point x="1162" y="379"/>
    </contour>
    <contour>
      <point x="1725" y="675" type="curve" smooth="yes"/>
      <point x="1725" y="634"/>
      <point x="1759" y="600"/>
      <point x="1800" y="600" type="curve" smooth="yes"/>
      <point x="1841" y="600"/>
      <point x="1875" y="634"/>
      <point x="1875" y="675" type="curve" smooth="yes"/>
      <point x="1875" y="716"/>
      <point x="1841" y="750"/>
      <point x="1800" y="750" type="curve" smooth="yes"/>
      <point x="1759" y="750"/>
      <point x="1725" y="716"/>
    </contour>
    <contour>
      <point x="1264" y="180" type="curve" smooth="yes"/>
      <point x="1264" y="221"/>
      <point x="1230" y="255"/>
      <point x="1189" y="255" type="curve" smooth="yes"/>
      <point x="1147" y="255"/>
      <point x="1114" y="221"/>
      <point x="1114" y="180" type="curve" smooth="yes"/>
      <point x="1114" y="139"/>
      <point x="1147" y="105"/>
      <point x="1189" y="105" type="curve" smooth="yes"/>
      <point x="1230" y="105"/>
      <point x="1264" y="139"/>
    </contour>
    <contour>
      <point x="1687" y="420" type="curve" smooth="yes"/>
      <point x="1687" y="379"/>
      <point x="1721" y="345"/>
      <point x="1762" y="345" type="curve" smooth="yes"/>
      <point x="1804" y="345"/>
      <point x="1837" y="379"/>
      <point x="1837" y="420" type="curve" smooth="yes"/>
      <point x="1837" y="461"/>
      <point x="1804" y="495"/>
      <point x="1762" y="495" type="curve" smooth="yes"/>
      <point x="1721" y="495"/>
      <point x="1687" y="461"/>
    </contour>
    <contour>
      <point x="1586" y="180" type="curve" smooth="yes"/>
      <point x="1586" y="139"/>
      <point x="1620" y="105"/>
      <point x="1661" y="105" type="curve" smooth="yes"/>
      <point x="1702" y="105"/>
      <point x="1736" y="139"/>
      <point x="1736" y="180" type="curve" smooth="yes"/>
      <point x="1736" y="221"/>
      <point x="1702" y="255"/>
      <point x="1661" y="255" type="curve" smooth="yes"/>
      <point x="1620" y="255"/>
      <point x="1586" y="221"/>
    </contour>
    <contour>
      <point x="1350" y="1275" type="curve" smooth="yes"/>
      <point x="1350" y="1234"/>
      <point x="1384" y="1200"/>
      <point x="1425" y="1200" type="curve" smooth="yes"/>
      <point x="1466" y="1200"/>
      <point x="1500" y="1234"/>
      <point x="1500" y="1275" type="curve" smooth="yes"/>
      <point x="1500" y="1316"/>
      <point x="1466" y="1350"/>
      <point x="1425" y="1350" type="curve" smooth="yes"/>
      <point x="1384" y="1350"/>
      <point x="1350" y="1316"/>
    </contour>
    <contour>
      <point x="1162" y="930" type="curve" smooth="yes"/>
      <point x="1162" y="971"/>
      <point x="1129" y="1005"/>
      <point x="1087" y="1005" type="curve" smooth="yes"/>
      <point x="1046" y="1005"/>
      <point x="1012" y="971"/>
      <point x="1012" y="930" type="curve" smooth="yes"/>
      <point x="1012" y="889"/>
      <point x="1046" y="855"/>
      <point x="1087" y="855" type="curve" smooth="yes"/>
      <point x="1129" y="855"/>
      <point x="1162" y="889"/>
    </contour>
    <contour>
      <point x="1264" y="1170" type="curve" smooth="yes"/>
      <point x="1264" y="1211"/>
      <point x="1230" y="1245"/>
      <point x="1189" y="1245" type="curve" smooth="yes"/>
      <point x="1147" y="1245"/>
      <point x="1114" y="1211"/>
      <point x="1114" y="1170" type="curve" smooth="yes"/>
      <point x="1114" y="1129"/>
      <point x="1147" y="1095"/>
      <point x="1189" y="1095" type="curve" smooth="yes"/>
      <point x="1230" y="1095"/>
      <point x="1264" y="1129"/>
    </contour>
    <contour>
      <point x="1687" y="930" type="curve" smooth="yes"/>
      <point x="1687" y="889"/>
      <point x="1721" y="855"/>
      <point x="1762" y="855" type="curve" smooth="yes"/>
      <point x="1804" y="855"/>
      <point x="1837" y="889"/>
      <point x="1837" y="930" type="curve" smooth="yes"/>
      <point x="1837" y="971"/>
      <point x="1804" y="1005"/>
      <point x="1762" y="1005" type="curve" smooth="yes"/>
      <point x="1721" y="1005"/>
      <point x="1687" y="971"/>
    </contour>
    <contour>
      <point x="1586" y="1170" type="curve" smooth="yes"/>
      <point x="1586" y="1129"/>
      <point x="1620" y="1095"/>
      <point x="1661" y="1095" type="curve" smooth="yes"/>
      <point x="1702" y="1095"/>
      <point x="1736" y="1129"/>
      <point x="1736" y="1170" type="curve" smooth="yes"/>
      <point x="1736" y="1211"/>
      <point x="1702" y="1245"/>
      <point x="1661" y="1245" type="curve" smooth="yes"/>
      <point x="1620" y="1245"/>
      <point x="1586" y="1211"/>
    </contour>
    <contour>
      <point x="300" y="79" type="line"/>
      <point x="322" y="15"/>
      <point x="397" y="0"/>
      <point x="450" y="0" type="curve"/>
      <point x="600" y="30"/>
      <point x="675" y="169"/>
      <point x="675" y="247" type="curve" smooth="yes"/>
      <point x="675" y="379"/>
      <point x="574" y="446"/>
      <point x="450" y="450" type="curve"/>
      <point x="450" y="979" type="line" smooth="yes"/>
      <point x="450" y="1027"/>
      <point x="390" y="1057"/>
      <point x="319" y="1091" type="curve" smooth="yes"/>
      <point x="263" y="1117"/>
      <point x="214" y="1147"/>
      <point x="214" y="1211" type="curve" smooth="yes"/>
      <point x="214" y="1260"/>
      <point x="248" y="1301"/>
      <point x="297" y="1301" type="curve" smooth="yes"/>
      <point x="345" y="1301"/>
      <point x="398" y="1222"/>
      <point x="488" y="1222" type="curve" smooth="yes"/>
      <point x="574" y="1222"/>
      <point x="619" y="1252"/>
      <point x="623" y="1357" type="curve"/>
      <point x="608" y="1350"/>
      <point x="593" y="1346"/>
      <point x="582" y="1346" type="curve" smooth="yes"/>
      <point x="480" y="1346"/>
      <point x="428" y="1440"/>
      <point x="345" y="1440" type="curve" smooth="yes"/>
      <point x="240" y="1440"/>
      <point x="128" y="1305"/>
      <point x="128" y="1189" type="curve" smooth="yes"/>
      <point x="128" y="1114"/>
      <point x="147" y="1057"/>
      <point x="222" y="1016" type="curve"/>
      <point x="263" y="997"/>
      <point x="300" y="971"/>
      <point x="300" y="922" type="curve" smooth="yes"/>
    </contour>
    <contour>
      <point x="1851" y="1906" type="curve" smooth="yes"/>
      <point x="2103" y="1906"/>
      <point x="2286" y="1820"/>
      <point x="2414" y="1820" type="curve" smooth="yes"/>
      <point x="2433" y="1820"/>
      <point x="2449" y="1833"/>
      <point x="2460" y="1850" type="curve"/>
      <point x="2548" y="1943"/>
      <point x="2624" y="2039"/>
      <point x="2624" y="2169" type="curve" smooth="yes"/>
      <point x="2624" y="2210"/>
      <point x="2616" y="2255"/>
      <point x="2575" y="2311" type="curve"/>
      <point x="2549" y="2330"/>
      <point x="2534" y="2337"/>
      <point x="2504" y="2337" type="curve" smooth="yes"/>
      <point x="2463" y="2337"/>
      <point x="2436" y="2304"/>
      <point x="2436" y="2259" type="curve" smooth="yes"/>
      <point x="2436" y="2240"/>
      <point x="2440" y="2225"/>
      <point x="2448" y="2214" type="curve"/>
      <point x="2466" y="2180"/>
      <point x="2478" y="2146"/>
      <point x="2478" y="2109" type="curve" smooth="yes"/>
      <point x="2478" y="2071"/>
      <point x="2462" y="2020"/>
      <point x="2442" y="1980" type="curve"/>
      <point x="2404" y="2034"/>
      <point x="2353" y="2085"/>
      <point x="2296" y="2129" type="curve"/>
      <point x="2321" y="2177"/>
      <point x="2341" y="2233"/>
      <point x="2341" y="2289" type="curve" smooth="yes"/>
      <point x="2341" y="2334"/>
      <point x="2334" y="2371"/>
      <point x="2293" y="2427" type="curve"/>
      <point x="2266" y="2446"/>
      <point x="2244" y="2457"/>
      <point x="2221" y="2457" type="curve" smooth="yes"/>
      <point x="2176" y="2457"/>
      <point x="2154" y="2431"/>
      <point x="2154" y="2382" type="curve" smooth="yes"/>
      <point x="2154" y="2364"/>
      <point x="2158" y="2349"/>
      <point x="2165" y="2337" type="curve" smooth="yes"/>
      <point x="2184" y="2304"/>
      <point x="2195" y="2270"/>
      <point x="2195" y="2229" type="curve" smooth="yes"/>
      <point x="2195" y="2218"/>
      <point x="2195" y="2208"/>
      <point x="2193" y="2197" type="curve"/>
      <point x="2089" y="2256"/>
      <point x="1977" y="2292"/>
      <point x="1881" y="2292" type="curve" smooth="yes"/>
      <point x="1686" y="2292"/>
      <point x="1499" y="2165"/>
      <point x="1499" y="2034" type="curve" smooth="yes"/>
      <point x="1499" y="1947"/>
      <point x="1555" y="1895"/>
      <point x="1634" y="1895" type="curve" smooth="yes"/>
      <point x="1705" y="1895"/>
      <point x="1806" y="1906"/>
    </contour>
    <contour>
      <point x="2279" y="1974" type="curve"/>
      <point x="2238" y="1974"/>
      <point x="2046" y="2036"/>
      <point x="1870" y="2036" type="curve" smooth="yes"/>
      <point x="1814" y="2036"/>
      <point x="1763" y="2026"/>
      <point x="1705" y="2026" type="curve" smooth="yes"/>
      <point x="1679" y="2026"/>
      <point x="1664" y="2034"/>
      <point x="1664" y="2049" type="curve" smooth="yes"/>
      <point x="1664" y="2105"/>
      <point x="1795" y="2162"/>
      <point x="1893" y="2162" type="curve" smooth="yes"/>
      <point x="2035" y="2162"/>
      <point x="2211" y="2052"/>
    </contour>
    <contour>
      <point x="2550" y="979" type="line"/>
      <point x="2550" y="1027"/>
      <point x="2490" y="1057"/>
      <point x="2419" y="1091" type="curve" smooth="yes"/>
      <point x="2363" y="1117"/>
      <point x="2314" y="1147"/>
      <point x="2314" y="1211" type="curve" smooth="yes"/>
      <point x="2314" y="1260"/>
      <point x="2348" y="1301"/>
      <point x="2397" y="1301" type="curve" smooth="yes"/>
      <point x="2445" y="1301"/>
      <point x="2498" y="1222"/>
      <point x="2588" y="1222" type="curve" smooth="yes"/>
      <point x="2674" y="1222"/>
      <point x="2723" y="1256"/>
      <point x="2723" y="1451" type="curve" smooth="yes"/>
      <point x="2723" y="1609"/>
      <point x="2603" y="1792"/>
      <point x="2415" y="1792" type="curve" smooth="yes"/>
      <point x="2359" y="1792"/>
      <point x="2325" y="1766"/>
      <point x="2325" y="1721" type="curve" smooth="yes"/>
      <point x="2325" y="1650"/>
      <point x="2397" y="1616"/>
      <point x="2476" y="1592" type="curve" smooth="yes"/>
      <point x="2577" y="1560"/>
      <point x="2648" y="1515"/>
      <point x="2648" y="1421" type="curve" smooth="yes"/>
      <point x="2648" y="1384"/>
      <point x="2637" y="1365"/>
      <point x="2618" y="1365" type="curve" smooth="yes"/>
      <point x="2577" y="1365"/>
      <point x="2517" y="1440"/>
      <point x="2445" y="1440" type="curve" smooth="yes"/>
      <point x="2340" y="1440"/>
      <point x="2228" y="1305"/>
      <point x="2228" y="1189" type="curve" smooth="yes"/>
      <point x="2228" y="1114"/>
      <point x="2247" y="1057"/>
      <point x="2322" y="1016" type="curve"/>
      <point x="2363" y="997"/>
      <point x="2400" y="971"/>
      <point x="2400" y="922" type="curve" smooth="yes"/>
      <point x="2400" y="-409" type="line" smooth="yes"/>
      <point x="2400" y="-465"/>
      <point x="2202" y="-488"/>
      <point x="2138" y="-488" type="curve" smooth="yes"/>
      <point x="2075" y="-488"/>
      <point x="1875" y="-465"/>
      <point x="1875" y="-409" type="curve" smooth="yes"/>
      <point x="1875" y="-150" type="line"/>
      <point x="1725" y="-150" type="line"/>
      <point x="1725" y="-431" type="line" smooth="yes"/>
      <point x="1725" y="-529"/>
      <point x="1977" y="-600"/>
      <point x="2138" y="-600" type="curve" smooth="yes"/>
      <point x="2300" y="-600"/>
      <point x="2550" y="-529"/>
      <point x="2550" y="-431" type="curve" smooth="yes"/>
    </contour>
  </outline>
</glyph>
<glyph name="uni17C7" format="2">
  <advance width="825"/>
  <unicode hex="17C7"/>
  <outline>
    <contour>
      <point x="280" y="360" type="curve" smooth="yes"/>
      <point x="280" y="416"/>
      <point x="319" y="455"/>
      <point x="375" y="455" type="curve" smooth="yes"/>
      <point x="431" y="455"/>
      <point x="470" y="416"/>
      <point x="470" y="360" type="curve" smooth="yes"/>
      <point x="470" y="304"/>
      <point x="431" y="265"/>
      <point x="375" y="265" type="curve" smooth="yes"/>
      <point x="319" y="265"/>
      <point x="280" y="304"/>
    </contour>
    <contour>
      <point x="150" y="360" type="curve" smooth="yes"/>
      <point x="150" y="236"/>
      <point x="251" y="135"/>
      <point x="375" y="135" type="curve" smooth="yes"/>
      <point x="499" y="135"/>
      <point x="600" y="236"/>
      <point x="600" y="360" type="curve" smooth="yes"/>
      <point x="600" y="484"/>
      <point x="499" y="585"/>
      <point x="375" y="585" type="curve" smooth="yes"/>
      <point x="251" y="585"/>
      <point x="150" y="484"/>
    </contour>
    <contour>
      <point x="280" y="1080" type="curve" smooth="yes"/>
      <point x="280" y="1136"/>
      <point x="319" y="1175"/>
      <point x="375" y="1175" type="curve" smooth="yes"/>
      <point x="431" y="1175"/>
      <point x="470" y="1136"/>
      <point x="470" y="1080" type="curve" smooth="yes"/>
      <point x="470" y="1024"/>
      <point x="431" y="985"/>
      <point x="375" y="985" type="curve" smooth="yes"/>
      <point x="319" y="985"/>
      <point x="280" y="1024"/>
    </contour>
    <contour>
      <point x="150" y="1080" type="curve" smooth="yes"/>
      <point x="150" y="956"/>
      <point x="251" y="855"/>
      <point x="375" y="855" type="curve" smooth="yes"/>
      <point x="499" y="855"/>
      <point x="600" y="956"/>
      <point x="600" y="1080" type="curve" smooth="yes"/>
      <point x="600" y="1204"/>
      <point x="499" y="1305"/>
      <point x="375" y="1305" type="curve" smooth="yes"/>
      <point x="251" y="1305"/>
      <point x="150" y="1204"/>
    </contour>
  </outline>
</glyph>
<glyph name="uni17CB" format="2">
  <unicode hex="17CB"/>
  <anchor x="-225" y="1965" name="U"/>
  <anchor x="-675" y="1440" name="_MA"/>
  <anchor x="-225" y="1440" name="_U"/>
  <outline>
    <contour>
      <point x="-788" y="1852" type="curve" smooth="yes"/>
      <point x="-788" y="1796"/>
      <point x="-724" y="1762"/>
      <point x="-698" y="1759" type="curve"/>
      <point x="-686" y="1759"/>
      <point x="-686" y="1740"/>
      <point x="-686" y="1729" type="curve" smooth="yes"/>
      <point x="-686" y="1657"/>
      <point x="-728" y="1620"/>
      <point x="-728" y="1601" type="curve" smooth="yes"/>
      <point x="-728" y="1594"/>
      <point x="-720" y="1590"/>
      <point x="-701" y="1590" type="curve" smooth="yes"/>
      <point x="-630" y="1590"/>
      <point x="-563" y="1699"/>
      <point x="-563" y="1849" type="curve" smooth="yes"/>
      <point x="-563" y="1912"/>
      <point x="-611" y="1965"/>
      <point x="-675" y="1965" type="curve" smooth="yes"/>
      <point x="-739" y="1965"/>
      <point x="-788" y="1916"/>
    </contour>
  </outline>
</glyph>
<glyph name="uni17CE" format="2">
  <unicode hex="17CE"/>
  <anchor x="-225" y="2021" name="U"/>
  <anchor x="-675" y="1440" name="_MA"/>
  <anchor x="-225" y="1440" name="_U"/>
  <outline>
    <contour>
      <point x="-890" y="1740" type="line"/>
      <point x="-740" y="1740" type="line"/>
      <point x="-740" y="1590" type="line"/>
      <point x="-610" y="1590" type="line"/>
      <point x="-610" y="1740" type="line"/>
      <point x="-460" y="1740" type="line"/>
      <point x="-460" y="1870" type="line"/>
      <point x="-610" y="1870" type="line"/>
      <point x="-610" y="2020" type="line"/>
      <point x="-740" y="2020" type="line"/>
      <point x="-740" y="1870" type="line"/>
      <point x="-890" y="1870" type="line"/>
    </contour>
  </outline>
</glyph>
<glyph name="uni17D0" format="2">
  <unicode hex="17D0"/>
  <anchor x="-225" y="2265" name="U"/>
  <anchor x="-225" y="1440" name="_U"/>
  <outline>
    <contour>
      <point x="-383" y="1896" type="curve"/>
      <point x="-323" y="1896"/>
      <point x="-263" y="1945"/>
      <point x="-263" y="2009" type="curve" smooth="yes"/>
      <point x="-263" y="2084"/>
      <point x="-334" y="2106"/>
      <point x="-375" y="2106" type="curve" smooth="yes"/>
      <point x="-465" y="2106"/>
      <point x="-525" y="2035"/>
      <point x="-525" y="1956" type="curve" smooth="yes"/>
      <point x="-525" y="1821"/>
      <point x="-424" y="1660"/>
      <point x="-225" y="1660" type="curve" smooth="yes"/>
      <point x="-4" y="1660"/>
      <point x="187" y="1810"/>
      <point x="187" y="2091" type="curve" smooth="yes"/>
      <point x="187" y="2151"/>
      <point x="172" y="2211"/>
      <point x="131" y="2260" type="curve" smooth="yes"/>
      <point x="90" y="2309"/>
      <point x="34" y="2335"/>
      <point x="-30" y="2335" type="curve" smooth="yes"/>
      <point x="-56" y="2335"/>
      <point x="-86" y="2301"/>
      <point x="-86" y="2275" type="curve" smooth="yes"/>
      <point x="-86" y="2241"/>
      <point x="-68" y="2192"/>
      <point x="-9" y="2161" type="curve" smooth="yes"/>
      <point x="51" y="2129"/>
      <point x="71" y="2089"/>
      <point x="71" y="2045" type="curve" smooth="yes"/>
      <point x="71" y="1978"/>
      <point x="39" y="1913"/>
      <point x="-3" y="1865" type="curve" smooth="yes"/>
      <point x="-60" y="1802"/>
      <point x="-135" y="1772"/>
      <point x="-225" y="1772" type="curve" smooth="yes"/>
      <point x="-311" y="1772"/>
      <point x="-383" y="1840"/>
    </contour>
  </outline>
</glyph>
<glyph name="uni17D8" format="2">
  <advance width="4235"/>
  <unicode hex="17D8"/>
  <outline>
    <contour>
      <point x="2620" y="191" type="line" smooth="yes"/>
      <point x="2620" y="135"/>
      <point x="2485" y="112"/>
      <point x="2395" y="112" type="curve" smooth="yes"/>
      <point x="2305" y="112"/>
      <point x="2170" y="135"/>
      <point x="2170" y="191" type="curve" smooth="yes"/>
      <point x="2170" y="1252" type="line" smooth="yes"/>
      <point x="2170" y="1352"/>
      <point x="1985" y="1440"/>
      <point x="1795" y="1440" type="curve" smooth="yes"/>
      <point x="1605" y="1440"/>
      <point x="1420" y="1352"/>
      <point x="1420" y="1252" type="curve" smooth="yes"/>
      <point x="1420" y="79" type="line"/>
      <point x="1446" y="15"/>
      <point x="1514" y="0"/>
      <point x="1570" y="0" type="curve"/>
      <point x="1716" y="30"/>
      <point x="1795" y="169"/>
      <point x="1795" y="247" type="curve" smooth="yes"/>
      <point x="1795" y="379"/>
      <point x="1694" y="446"/>
      <point x="1570" y="450" type="curve"/>
      <point x="1570" y="1245" type="line" smooth="yes"/>
      <point x="1570" y="1301"/>
      <point x="1705" y="1328"/>
      <point x="1795" y="1328" type="curve" smooth="yes"/>
      <point x="1885" y="1328"/>
      <point x="2020" y="1301"/>
      <point x="2020" y="1245" type="curve" smooth="yes"/>
      <point x="2020" y="187" type="line" smooth="yes"/>
      <point x="2020" y="87"/>
      <point x="2205" y="0"/>
      <point x="2395" y="0" type="curve" smooth="yes"/>
      <point x="2585" y="0"/>
      <point x="2770" y="87"/>
      <point x="2770" y="187" type="curve" smooth="yes"/>
      <point x="2770" y="979" type="line" smooth="yes"/>
      <point x="2770" y="1027"/>
      <point x="2710" y="1057"/>
      <point x="2639" y="1091" type="curve" smooth="yes"/>
      <point x="2583" y="1117"/>
      <point x="2534" y="1147"/>
      <point x="2534" y="1211" type="curve" smooth="yes"/>
      <point x="2534" y="1260"/>
      <point x="2568" y="1301"/>
      <point x="2617" y="1301" type="curve" smooth="yes"/>
      <point x="2665" y="1301"/>
      <point x="2718" y="1222"/>
      <point x="2808" y="1222" type="curve" smooth="yes"/>
      <point x="2894" y="1222"/>
      <point x="2939" y="1252"/>
      <point x="2943" y="1357" type="curve"/>
      <point x="2928" y="1350"/>
      <point x="2913" y="1346"/>
      <point x="2902" y="1346" type="curve" smooth="yes"/>
      <point x="2800" y="1346"/>
      <point x="2748" y="1440"/>
      <point x="2665" y="1440" type="curve" smooth="yes"/>
      <point x="2560" y="1440"/>
      <point x="2448" y="1305"/>
      <point x="2448" y="1189" type="curve" smooth="yes"/>
      <point x="2448" y="1114"/>
      <point x="2467" y="1057"/>
      <point x="2542" y="1016" type="curve"/>
      <point x="2583" y="997"/>
      <point x="2620" y="971"/>
      <point x="2620" y="922" type="curve" smooth="yes"/>
    </contour>
    <contour>
      <point x="712" y="0" type="line"/>
      <point x="900" y="0" type="line"/>
      <point x="900" y="1440" type="line"/>
      <point x="712" y="1440" type="line"/>
      <point x="712" y="1354"/>
      <point x="566" y="1087"/>
      <point x="424" y="1087" type="curve" smooth="yes"/>
      <point x="334" y="1087"/>
      <point x="320" y="1196"/>
      <point x="320" y="1215" type="curve" smooth="yes"/>
      <point x="320" y="1226"/>
      <point x="323" y="1234"/>
      <point x="335" y="1237" type="curve" smooth="yes"/>
      <point x="387" y="1249"/>
      <point x="450" y="1309"/>
      <point x="450" y="1369" type="curve" smooth="yes"/>
      <point x="450" y="1421"/>
      <point x="412" y="1477"/>
      <point x="319" y="1477" type="curve" smooth="yes"/>
      <point x="225" y="1477"/>
      <point x="131" y="1376"/>
      <point x="131" y="1237" type="curve" smooth="yes"/>
      <point x="131" y="1125"/>
      <point x="236" y="990"/>
      <point x="390" y="990" type="curve" smooth="yes"/>
      <point x="506" y="990"/>
      <point x="656" y="1106"/>
      <point x="712" y="1215" type="curve"/>
    </contour>
    <contour>
      <point x="3823" y="0" type="line"/>
      <point x="4010" y="0" type="line"/>
      <point x="4010" y="1440" type="line"/>
      <point x="3823" y="1440" type="line"/>
      <point x="3823" y="1354"/>
      <point x="3677" y="1087"/>
      <point x="3534" y="1087" type="curve" smooth="yes"/>
      <point x="3444" y="1087"/>
      <point x="3430" y="1196"/>
      <point x="3430" y="1215" type="curve" smooth="yes"/>
      <point x="3430" y="1226"/>
      <point x="3434" y="1234"/>
      <point x="3445" y="1237" type="curve"/>
      <point x="3498" y="1249"/>
      <point x="3560" y="1309"/>
      <point x="3560" y="1369" type="curve" smooth="yes"/>
      <point x="3560" y="1421"/>
      <point x="3523" y="1477"/>
      <point x="3429" y="1477" type="curve" smooth="yes"/>
      <point x="3335" y="1477"/>
      <point x="3242" y="1376"/>
      <point x="3242" y="1237" type="curve" smooth="yes"/>
      <point x="3242" y="1125"/>
      <point x="3347" y="990"/>
      <point x="3500" y="990" type="curve" smooth="yes"/>
      <point x="3617" y="990"/>
      <point x="3767" y="1106"/>
      <point x="3823" y="1215" type="curve"/>
    </contour>
    <contour>
      <point x="1570" y="320" type="line"/>
      <point x="1619" y="320"/>
      <point x="1665" y="281"/>
      <point x="1665" y="251" type="curve" smooth="yes"/>
      <point x="1665" y="187"/>
      <point x="1626" y="156"/>
      <point x="1570" y="130" type="curve"/>
    </contour>
  </outline>
</glyph>
<glyph name="uni17DC" format="2">
  <advance width="1350"/>
  <unicode hex="17DC"/>
  <anchor x="1125" y="0" name="L"/>
  <anchor x="1125" y="1440" name="U"/>
  <outline>
    <contour>
      <point x="225" y="1031" type="curve"/>
      <point x="379" y="990"/>
      <point x="975" y="716"/>
      <point x="975" y="416" type="curve"/>
      <point x="975" y="202"/>
      <point x="862" y="130"/>
      <point x="671" y="130" type="curve" smooth="yes"/>
      <point x="487" y="130"/>
      <point x="365" y="210"/>
      <point x="365" y="315" type="curve" smooth="yes"/>
      <point x="365" y="364"/>
      <point x="375" y="394"/>
      <point x="394" y="412" type="curve"/>
      <point x="420" y="379"/>
      <point x="450" y="364"/>
      <point x="491" y="364" type="curve"/>
      <point x="547" y="364"/>
      <point x="592" y="401"/>
      <point x="592" y="457" type="curve" smooth="yes"/>
      <point x="592" y="536"/>
      <point x="517" y="589"/>
      <point x="446" y="589" type="curve" smooth="yes"/>
      <point x="409" y="589"/>
      <point x="375" y="577"/>
      <point x="349" y="559" type="curve" smooth="yes"/>
      <point x="270" y="502"/>
      <point x="225" y="409"/>
      <point x="225" y="322" type="curve" smooth="yes"/>
      <point x="225" y="109"/>
      <point x="465" y="0"/>
      <point x="652" y="0" type="curve"/>
      <point x="952" y="0"/>
      <point x="1125" y="146"/>
      <point x="1125" y="416" type="curve" smooth="yes"/>
      <point x="1125" y="770"/>
      <point x="561" y="1051"/>
      <point x="385" y="1122" type="curve"/>
      <point x="385" y="1167"/>
      <point x="457" y="1310"/>
      <point x="667" y="1310" type="curve"/>
      <point x="859" y="1310"/>
      <point x="985" y="1189"/>
      <point x="985" y="952" type="curve" smooth="yes"/>
      <point x="985" y="919"/>
      <point x="1024" y="900"/>
      <point x="1060" y="900" type="curve" smooth="yes"/>
      <point x="1093" y="900"/>
      <point x="1125" y="916"/>
      <point x="1125" y="952" type="curve" smooth="yes"/>
      <point x="1125" y="1282"/>
      <point x="907" y="1440"/>
      <point x="660" y="1440" type="curve" smooth="yes"/>
      <point x="334" y="1440"/>
      <point x="225" y="1170"/>
    </contour>
  </outline>
</glyph>
<glyph name="uni17E1" format="2">
  <advance width="1162"/>
  <unicode hex="17E1"/>
  <outline>
    <contour>
      <point x="454" y="607" type="curve" smooth="yes"/>
      <point x="577" y="607"/>
      <point x="694" y="709"/>
      <point x="694" y="840" type="curve" smooth="yes"/>
      <point x="694" y="941"/>
      <point x="637" y="994"/>
      <point x="566" y="994" type="curve" smooth="yes"/>
      <point x="495" y="994"/>
      <point x="472" y="945"/>
      <point x="472" y="915" type="curve" smooth="yes"/>
      <point x="472" y="874"/>
      <point x="495" y="836"/>
      <point x="555" y="836" type="curve" smooth="yes"/>
      <point x="562" y="836"/>
      <point x="566" y="829"/>
      <point x="566" y="817" type="curve" smooth="yes"/>
      <point x="566" y="769"/>
      <point x="502" y="737"/>
      <point x="457" y="737" type="curve" smooth="yes"/>
      <point x="337" y="737"/>
      <point x="262" y="851"/>
      <point x="262" y="982" type="curve" smooth="yes"/>
      <point x="262" y="1196"/>
      <point x="427" y="1310"/>
      <point x="581" y="1310" type="curve" smooth="yes"/>
      <point x="795" y="1310"/>
      <point x="900" y="1155"/>
      <point x="900" y="757" type="curve" smooth="yes"/>
      <point x="900" y="429"/>
      <point x="640" y="68"/>
      <point x="299" y="68" type="curve" smooth="yes"/>
      <point x="281" y="68"/>
      <point x="262" y="69"/>
      <point x="244" y="71" type="curve"/>
      <point x="305" y="22"/>
      <point x="375" y="0"/>
      <point x="447" y="0" type="curve" smooth="yes"/>
      <point x="729" y="0"/>
      <point x="1050" y="346"/>
      <point x="1050" y="776" type="curve" smooth="yes"/>
      <point x="1050" y="1237"/>
      <point x="862" y="1440"/>
      <point x="581" y="1440" type="curve" smooth="yes"/>
      <point x="319" y="1440"/>
      <point x="112" y="1237"/>
      <point x="112" y="1001" type="curve" smooth="yes"/>
      <point x="112" y="776"/>
      <point x="244" y="607"/>
    </contour>
  </outline>
</glyph>
<glyph name="uni17E9" format="2">
  <advance width="1200"/>
  <unicode hex="17E9"/>
  <outline>
    <contour>
      <point x="150" y="510" type="curve" smooth="yes"/>
      <point x="150" y="262"/>
      <point x="337" y="0"/>
      <point x="637" y="0" type="curve" smooth="yes"/>
      <point x="877" y="0"/>
      <point x="1050" y="172"/>
      <point x="1050" y="397" type="curve" smooth="yes"/>
      <point x="1050" y="544"/>
      <point x="964" y="641"/>
      <point x="810" y="641" type="curve" smooth="yes"/>
      <point x="701" y="641"/>
      <point x="619" y="559"/>
      <point x="619" y="457" type="curve" smooth="yes"/>
      <point x="619" y="360"/>
      <point x="656" y="311"/>
      <point x="731" y="311" type="curve" smooth="yes"/>
      <point x="795" y="311"/>
      <point x="844" y="360"/>
      <point x="844" y="424" type="curve" smooth="yes"/>
      <point x="844" y="461"/>
      <point x="829" y="491"/>
      <point x="802" y="510" type="curve"/>
      <point x="810" y="517"/>
      <point x="821" y="521"/>
      <point x="832" y="521" type="curve" smooth="yes"/>
      <point x="889" y="521"/>
      <point x="920" y="442"/>
      <point x="920" y="379" type="curve" smooth="yes"/>
      <point x="920" y="270"/>
      <point x="814" y="130"/>
      <point x="637" y="130" type="curve" smooth="yes"/>
      <point x="409" y="130"/>
      <point x="280" y="330"/>
      <point x="280" y="510" type="curve" smooth="yes"/>
      <point x="280" y="686"/>
      <point x="424" y="860"/>
      <point x="600" y="860" type="curve" smooth="yes"/>
      <point x="776" y="860"/>
      <point x="821" y="739"/>
      <point x="889" y="739" type="curve" smooth="yes"/>
      <point x="919" y="739"/>
      <point x="949" y="765"/>
      <point x="949" y="799" type="curve" smooth="yes"/>
      <point x="949" y="848"/>
      <point x="826" y="959"/>
      <point x="667" y="984" type="curve"/>
      <point x="595" y="1015"/>
      <point x="450" y="1106"/>
      <point x="450" y="1215" type="curve" smooth="yes"/>
      <point x="450" y="1271"/>
      <point x="480" y="1340"/>
      <point x="574" y="1340" type="curve" smooth="yes"/>
      <point x="675" y="1340"/>
      <point x="802" y="1140"/>
      <point x="896" y="1140" type="curve" smooth="yes"/>
      <point x="960" y="1140"/>
      <point x="1027" y="1181"/>
      <point x="1027" y="1267" type="curve" smooth="yes"/>
      <point x="1027" y="1331"/>
      <point x="965" y="1481"/>
      <point x="965" y="1537" type="curve" smooth="yes"/>
      <point x="965" y="1627"/>
      <point x="1001" y="1687"/>
      <point x="1087" y="1687" type="curve"/>
      <point x="1061" y="1714"/>
      <point x="1031" y="1762"/>
      <point x="960" y="1762" type="curve" smooth="yes"/>
      <point x="874" y="1762"/>
      <point x="825" y="1654"/>
      <point x="825" y="1519" type="curve" smooth="yes"/>
      <point x="825" y="1417"/>
      <point x="885" y="1361"/>
      <point x="885" y="1290" type="curve"/>
      <point x="817" y="1357"/>
      <point x="660" y="1470"/>
      <point x="574" y="1470" type="curve" smooth="yes"/>
      <point x="412" y="1470"/>
      <point x="300" y="1350"/>
      <point x="300" y="1219" type="curve" smooth="yes"/>
      <point x="300" y="1082"/>
      <point x="372" y="1007"/>
      <point x="464" y="966" type="curve"/>
      <point x="282" y="900"/>
      <point x="150" y="710"/>
    </contour>
  </outline>
</glyph>
<glyph name="uni17F5" format="2">
  <advance width="1125"/>
  <unicode hex="17F5"/>
  <outline>
    <contour>
      <point x="223" y="757" type="curve" smooth="yes"/>
      <point x="223" y="495"/>
      <point x="354" y="300"/>
      <point x="560" y="300" type="curve" smooth="yes"/>
      <point x="767" y="300"/>
      <point x="898" y="495"/>
      <point x="898" y="757" type="curve" smooth="yes"/>
      <point x="898" y="952"/>
      <point x="823" y="1114"/>
      <point x="699" y="1181" type="curve"/>
      <point x="1018" y="1571" type="line"/>
      <point x="857" y="1571" type="line"/>
      <point x="560" y="1215" type="line"/>
      <point x="268" y="1571" type="line"/>
      <point x="107" y="1571" type="line"/>
      <point x="425" y="1181" type="line"/>
      <point x="298" y="1117"/>
      <point x="223" y="960"/>
    </contour>
    <contour>
      <point x="373" y="757" type="curve" smooth="yes"/>
      <point x="373" y="964"/>
      <point x="467" y="1103"/>
      <point x="560" y="1103" type="curve" smooth="yes"/>
      <point x="658" y="1103"/>
      <point x="748" y="964"/>
      <point x="748" y="757" type="curve" smooth="yes"/>
      <point x="748" y="551"/>
      <point x="658" y="412"/>
      <point x="560" y="412" type="curve" smooth="yes"/>
      <point x="463" y="412"/>
      <point x="373" y="551"/>
    </contour>
  </outline>
</glyph>
<glyph name="uni19E1" format="2">
  <advance width="1462"/>
  <unicode hex="19E1"/>
  <outline>
    <contour>
      <point x="956" y="15" type="curve"/>
      <point x="956" y="-1200" type="line"/>
      <point x="1144" y="-1200" type="line"/>
      <point x="1144" y="240" type="line"/>
      <point x="956" y="240" type="line"/>
      <point x="956" y="154"/>
      <point x="810" y="-113"/>
      <point x="667" y="-113" type="curve" smooth="yes"/>
      <point x="577" y="-113"/>
      <point x="562" y="-4"/>
      <point x="562" y="15" type="curve" smooth="yes"/>
      <point x="562" y="26"/>
      <point x="566" y="34"/>
      <point x="577" y="37" type="curve"/>
      <point x="634" y="49"/>
      <point x="694" y="109"/>
      <point x="694" y="169" type="curve" smooth="yes"/>
      <point x="694" y="225"/>
      <point x="656" y="277"/>
      <point x="562" y="277" type="curve" smooth="yes"/>
      <point x="469" y="277"/>
      <point x="375" y="176"/>
      <point x="375" y="37" type="curve" smooth="yes"/>
      <point x="375" y="-75"/>
      <point x="480" y="-210"/>
      <point x="634" y="-210" type="curve" smooth="yes"/>
      <point x="750" y="-210"/>
      <point x="900" y="-90"/>
    </contour>
    <contour>
      <point x="644" y="1247" type="curve" smooth="yes"/>
      <point x="767" y="1247"/>
      <point x="884" y="1349"/>
      <point x="884" y="1480" type="curve" smooth="yes"/>
      <point x="884" y="1581"/>
      <point x="827" y="1634"/>
      <point x="756" y="1634" type="curve" smooth="yes"/>
      <point x="685" y="1634"/>
      <point x="662" y="1585"/>
      <point x="662" y="1555" type="curve" smooth="yes"/>
      <point x="662" y="1514"/>
      <point x="685" y="1476"/>
      <point x="745" y="1476" type="curve" smooth="yes"/>
      <point x="752" y="1476"/>
      <point x="756" y="1469"/>
      <point x="756" y="1457" type="curve" smooth="yes"/>
      <point x="756" y="1409"/>
      <point x="692" y="1377"/>
      <point x="647" y="1377" type="curve" smooth="yes"/>
      <point x="527" y="1377"/>
      <point x="452" y="1491"/>
      <point x="452" y="1622" type="curve" smooth="yes"/>
      <point x="452" y="1836"/>
      <point x="617" y="1950"/>
      <point x="771" y="1950" type="curve" smooth="yes"/>
      <point x="985" y="1950"/>
      <point x="1090" y="1795"/>
      <point x="1090" y="1397" type="curve" smooth="yes"/>
      <point x="1090" y="1069"/>
      <point x="830" y="708"/>
      <point x="489" y="708" type="curve" smooth="yes"/>
      <point x="471" y="708"/>
      <point x="452" y="709"/>
      <point x="434" y="711" type="curve"/>
      <point x="495" y="662"/>
      <point x="565" y="640"/>
      <point x="637" y="640" type="curve" smooth="yes"/>
      <point x="919" y="640"/>
      <point x="1240" y="986"/>
      <point x="1240" y="1416" type="curve" smooth="yes"/>
      <point x="1240" y="1877"/>
      <point x="1052" y="2080"/>
      <point x="771" y="2080" type="curve" smooth="yes"/>
      <point x="509" y="2080"/>
      <point x="302" y="1877"/>
      <point x="302" y="1641" type="curve" smooth="yes"/>
      <point x="302" y="1416"/>
      <point x="434" y="1247"/>
    </contour>
  </outline>
</glyph>
<glyph name="uni19E9" format="2">
  <advance width="1500"/>
  <unicode hex="19E9"/>
  <outline>
    <contour>
      <point x="919" y="15" type="curve"/>
      <point x="919" y="-1200" type="line"/>
      <point x="1106" y="-1200" type="line"/>
      <point x="1106" y="240" type="line"/>
      <point x="919" y="240" type="line"/>
      <point x="919" y="154"/>
      <point x="772" y="-113"/>
      <point x="630" y="-113" type="curve" smooth="yes"/>
      <point x="540" y="-113"/>
      <point x="525" y="-4"/>
      <point x="525" y="15" type="curve" smooth="yes"/>
      <point x="525" y="26"/>
      <point x="529" y="34"/>
      <point x="540" y="37" type="curve"/>
      <point x="596" y="49"/>
      <point x="656" y="109"/>
      <point x="656" y="169" type="curve" smooth="yes"/>
      <point x="656" y="225"/>
      <point x="619" y="277"/>
      <point x="525" y="277" type="curve" smooth="yes"/>
      <point x="431" y="277"/>
      <point x="337" y="176"/>
      <point x="337" y="37" type="curve" smooth="yes"/>
      <point x="337" y="-75"/>
      <point x="442" y="-210"/>
      <point x="596" y="-210" type="curve" smooth="yes"/>
      <point x="712" y="-210"/>
      <point x="862" y="-90"/>
    </contour>
    <contour>
      <point x="300" y="1150" type="curve" smooth="yes"/>
      <point x="300" y="902"/>
      <point x="487" y="640"/>
      <point x="787" y="640" type="curve" smooth="yes"/>
      <point x="1027" y="640"/>
      <point x="1200" y="812"/>
      <point x="1200" y="1037" type="curve" smooth="yes"/>
      <point x="1200" y="1184"/>
      <point x="1114" y="1281"/>
      <point x="960" y="1281" type="curve" smooth="yes"/>
      <point x="851" y="1281"/>
      <point x="769" y="1199"/>
      <point x="769" y="1097" type="curve" smooth="yes"/>
      <point x="769" y="1000"/>
      <point x="806" y="951"/>
      <point x="881" y="951" type="curve" smooth="yes"/>
      <point x="945" y="951"/>
      <point x="994" y="1000"/>
      <point x="994" y="1064" type="curve" smooth="yes"/>
      <point x="994" y="1101"/>
      <point x="979" y="1131"/>
      <point x="952" y="1150" type="curve"/>
      <point x="960" y="1157"/>
      <point x="971" y="1161"/>
      <point x="982" y="1161" type="curve" smooth="yes"/>
      <point x="1039" y="1161"/>
      <point x="1070" y="1082"/>
      <point x="1070" y="1019" type="curve" smooth="yes"/>
      <point x="1070" y="910"/>
      <point x="964" y="770"/>
      <point x="787" y="770" type="curve" smooth="yes"/>
      <point x="559" y="770"/>
      <point x="430" y="970"/>
      <point x="430" y="1150" type="curve" smooth="yes"/>
      <point x="430" y="1326"/>
      <point x="574" y="1500"/>
      <point x="750" y="1500" type="curve" smooth="yes"/>
      <point x="926" y="1500"/>
      <point x="971" y="1379"/>
      <point x="1039" y="1379" type="curve" smooth="yes"/>
      <point x="1069" y="1379"/>
      <point x="1099" y="1405"/>
      <point x="1099" y="1439" type="curve" smooth="yes"/>
      <point x="1099" y="1488"/>
      <point x="976" y="1599"/>
      <point x="817" y="1624" type="curve"/>
      <point x="745" y="1655"/>
      <point x="600" y="1746"/>
      <point x="600" y="1855" type="curve" smooth="yes"/>
      <point x="600" y="1911"/>
      <point x="630" y="1979"/>
      <point x="724" y="1979" type="curve" smooth="yes"/>
      <point x="825" y="1979"/>
      <point x="952" y="1780"/>
      <point x="1046" y="1780" type="curve" smooth="yes"/>
      <point x="1110" y="1780"/>
      <point x="1177" y="1821"/>
      <point x="1177" y="1907" type="curve" smooth="yes"/>
      <point x="1177" y="1971"/>
      <point x="1115" y="2121"/>
      <point x="1115" y="2177" type="curve" smooth="yes"/>
      <point x="1115" y="2267"/>
      <point x="1151" y="2327"/>
      <point x="1237" y="2327" type="curve"/>
      <point x="1211" y="2354"/>
      <point x="1181" y="2402"/>
      <point x="1110" y="2402" type="curve" smooth="yes"/>
      <point x="1024" y="2402"/>
      <point x="975" y="2294"/>
      <point x="975" y="2159" type="curve" smooth="yes"/>
      <point x="975" y="2057"/>
      <point x="1035" y="2001"/>
      <point x="1035" y="1930" type="curve"/>
      <point x="967" y="1997"/>
      <point x="810" y="2110"/>
      <point x="724" y="2110" type="curve" smooth="yes"/>
      <point x="562" y="2110"/>
      <point x="450" y="1990"/>
      <point x="450" y="1859" type="curve" smooth="yes"/>
      <point x="450" y="1722"/>
      <point x="522" y="1647"/>
      <point x="614" y="1606" type="curve"/>
      <point x="432" y="1540"/>
      <point x="300" y="1350"/>
    </contour>
  </outline>
</glyph>
<glyph name="uni19EB" format="2">
  <advance width="2662"/>
  <unicode hex="19EB"/>
  <outline>
    <contour>
      <point x="1425" y="15" type="curve"/>
      <point x="1425" y="-1200" type="line"/>
      <point x="1612" y="-1200" type="line"/>
      <point x="1612" y="240" type="line"/>
      <point x="1425" y="240" type="line"/>
      <point x="1425" y="154"/>
      <point x="1279" y="-113"/>
      <point x="1136" y="-113" type="curve" smooth="yes"/>
      <point x="1046" y="-113"/>
      <point x="1031" y="-4"/>
      <point x="1031" y="15" type="curve" smooth="yes"/>
      <point x="1031" y="26"/>
      <point x="1035" y="34"/>
      <point x="1046" y="37" type="curve"/>
      <point x="1102" y="49"/>
      <point x="1162" y="109"/>
      <point x="1162" y="169" type="curve" smooth="yes"/>
      <point x="1162" y="225"/>
      <point x="1125" y="277"/>
      <point x="1031" y="277" type="curve" smooth="yes"/>
      <point x="937" y="277"/>
      <point x="844" y="176"/>
      <point x="844" y="37" type="curve" smooth="yes"/>
      <point x="844" y="-75"/>
      <point x="949" y="-210"/>
      <point x="1102" y="-210" type="curve" smooth="yes"/>
      <point x="1219" y="-210"/>
      <point x="1369" y="-90"/>
    </contour>
    <contour>
      <point x="1764" y="1247" type="curve" smooth="yes"/>
      <point x="1887" y="1247"/>
      <point x="2004" y="1349"/>
      <point x="2004" y="1480" type="curve" smooth="yes"/>
      <point x="2004" y="1581"/>
      <point x="1947" y="1634"/>
      <point x="1876" y="1634" type="curve" smooth="yes"/>
      <point x="1805" y="1634"/>
      <point x="1782" y="1585"/>
      <point x="1782" y="1555" type="curve" smooth="yes"/>
      <point x="1782" y="1514"/>
      <point x="1805" y="1476"/>
      <point x="1865" y="1476" type="curve" smooth="yes"/>
      <point x="1872" y="1476"/>
      <point x="1876" y="1469"/>
      <point x="1876" y="1457" type="curve" smooth="yes"/>
      <point x="1876" y="1409"/>
      <point x="1812" y="1377"/>
      <point x="1767" y="1377" type="curve" smooth="yes"/>
      <point x="1647" y="1377"/>
      <point x="1572" y="1491"/>
      <point x="1572" y="1622" type="curve" smooth="yes"/>
      <point x="1572" y="1836"/>
      <point x="1737" y="1950"/>
      <point x="1891" y="1950" type="curve" smooth="yes"/>
      <point x="2105" y="1950"/>
      <point x="2210" y="1795"/>
      <point x="2210" y="1397" type="curve" smooth="yes"/>
      <point x="2210" y="1069"/>
      <point x="1950" y="712"/>
      <point x="1609" y="712" type="curve" smooth="yes"/>
      <point x="1591" y="712"/>
      <point x="1572" y="713"/>
      <point x="1554" y="715" type="curve"/>
      <point x="1615" y="666"/>
      <point x="1685" y="644"/>
      <point x="1757" y="644" type="curve" smooth="yes"/>
      <point x="2039" y="644"/>
      <point x="2360" y="986"/>
      <point x="2360" y="1416" type="curve" smooth="yes"/>
      <point x="2360" y="1877"/>
      <point x="2172" y="2080"/>
      <point x="1891" y="2080" type="curve" smooth="yes"/>
      <point x="1629" y="2080"/>
      <point x="1422" y="1877"/>
      <point x="1422" y="1641" type="curve" smooth="yes"/>
      <point x="1422" y="1416"/>
      <point x="1554" y="1247"/>
    </contour>
    <contour>
      <point x="644" y="1247" type="curve" smooth="yes"/>
      <point x="767" y="1247"/>
      <point x="884" y="1349"/>
      <point x="884" y="1480" type="curve" smooth="yes"/>
      <point x="884" y="1581"/>
      <point x="827" y="1634"/>
      <point x="756" y="1634" type="curve" smooth="yes"/>
      <point x="685" y="1634"/>
      <point x="662" y="1585"/>
      <point x="662" y="1555" type="curve" smooth="yes"/>
      <point x="662" y="1514"/>
      <point x="685" y="1476"/>
      <point x="745" y="1476" type="curve" smooth="yes"/>
      <point x="752" y="1476"/>
      <point x="756" y="1469"/>
      <point x="756" y="1457" type="curve" smooth="yes"/>
      <point x="756" y="1409"/>
      <point x="692" y="1377"/>
      <point x="647" y="1377" type="curve" smooth="yes"/>
      <point x="527" y="1377"/>
      <point x="452" y="1491"/>
      <point x="452" y="1622" type="curve" smooth="yes"/>
      <point x="452" y="1836"/>
      <point x="617" y="1950"/>
      <point x="771" y="1950" type="curve" smooth="yes"/>
      <point x="985" y="1950"/>
      <point x="1090" y="1795"/>
      <point x="1090" y="1397" type="curve" smooth="yes"/>
      <point x="1090" y="1069"/>
      <point x="830" y="708"/>
      <point x="489" y="708" type="curve" smooth="yes"/>
      <point x="471" y="708"/>
      <point x="452" y="709"/>
      <point x="434" y="711" type="curve"/>
      <point x="495" y="662"/>
      <point x="565" y="640"/>
      <point x="637" y="640" type="curve" smooth="yes"/>
      <point x="919" y="640"/>
      <point x="1240" y="986"/>
      <point x="1240" y="1416" type="curve" smooth="yes"/>
      <point x="1240" y="1877"/>
      <point x="1052" y="2080"/>
      <point x="771" y="2080" type="curve" smooth="yes"/>
      <point x="509" y="2080"/>
      <point x="302" y="1877"/>
      <point x="302" y="1641" type="curve" smooth="yes"/>
      <point x="302" y="1416"/>
      <point x="434" y="1247"/>
    </contour>
  </outline>
</glyph>
<glyph name="uni19EE" format="2">
  <advance width="2625"/>
  <unicode hex="19EE"/>
  <outline>
    <contour>
      <point x="1425" y="15" type="curve"/>
      <point x="1425" y="-1200" type="line"/>
      <point x="1612" y="-1200" type="line"/>
      <point x="1612" y="240" type="line"/>
      <point x="1425" y="240" type="line"/>
      <point x="1425" y="154"/>
      <point x="1279" y="-113"/>
      <point x="1136" y="-113" type="curve" smooth="yes"/>
      <point x="1046" y="-113"/>
      <point x="1031" y="-4"/>
      <point x="1031" y="15" type="curve" smooth="yes"/>
      <point x="1031" y="26"/>
      <point x="1035" y="34"/>
      <point x="1046" y="37" type="curve"/>
      <point x="1102" y="49"/>
      <point x="1162" y="109"/>
      <point x="1162" y="169" type="curve" smooth="yes"/>
      <point x="1162" y="225"/>
      <point x="1125" y="277"/>
      <point x="1031" y="277" type="curve" smooth="yes"/>
      <point x="937" y="277"/>
      <point x="844" y="176"/>
      <point x="844" y="37" type="curve" smooth="yes"/>
      <point x="844" y="-75"/>
      <point x="949" y="-210"/>
      <point x="1102" y="-210" type="curve" smooth="yes"/>
      <point x="1219" y="-210"/>
      <point x="1369" y="-90"/>
    </contour>
    <contour>
      <point x="1402" y="1169" type="curve" smooth="yes"/>
      <point x="1402" y="812"/>
      <point x="1537" y="640"/>
      <point x="1646" y="640" type="curve" smooth="yes"/>
      <point x="1710" y="640"/>
      <point x="1819" y="670"/>
      <point x="1890" y="670" type="curve" smooth="yes"/>
      <point x="2010" y="670"/>
      <point x="2149" y="640"/>
      <point x="2205" y="640" type="curve" smooth="yes"/>
      <point x="2250" y="640"/>
      <point x="2261" y="674"/>
      <point x="2261" y="689" type="curve" smooth="yes"/>
      <point x="2261" y="820"/>
      <point x="2030" y="966"/>
      <point x="2030" y="1112" type="curve"/>
      <point x="2030" y="1184"/>
      <point x="2044" y="1259"/>
      <point x="2115" y="1259" type="curve" smooth="yes"/>
      <point x="2126" y="1259"/>
      <point x="2134" y="1255"/>
      <point x="2141" y="1247" type="curve"/>
      <point x="2122" y="1229"/>
      <point x="2115" y="1202"/>
      <point x="2115" y="1172" type="curve" smooth="yes"/>
      <point x="2115" y="1109"/>
      <point x="2164" y="1060"/>
      <point x="2227" y="1060" type="curve" smooth="yes"/>
      <point x="2287" y="1060"/>
      <point x="2340" y="1097"/>
      <point x="2340" y="1199" type="curve" smooth="yes"/>
      <point x="2340" y="1300"/>
      <point x="2257" y="1379"/>
      <point x="2149" y="1379" type="curve" smooth="yes"/>
      <point x="1987" y="1379"/>
      <point x="1900" y="1270"/>
      <point x="1900" y="1120" type="curve" smooth="yes"/>
      <point x="1900" y="1019"/>
      <point x="1957" y="876"/>
      <point x="2066" y="779" type="curve"/>
      <point x="2040" y="790"/>
      <point x="1912" y="800"/>
      <point x="1879" y="800" type="curve" smooth="yes"/>
      <point x="1837" y="800"/>
      <point x="1747" y="779"/>
      <point x="1699" y="779" type="curve" smooth="yes"/>
      <point x="1579" y="779"/>
      <point x="1552" y="1026"/>
      <point x="1552" y="1150" type="curve" smooth="yes"/>
      <point x="1552" y="1330"/>
      <point x="1706" y="1499"/>
      <point x="1852" y="1630" type="curve"/>
      <point x="2006" y="1784"/>
      <point x="2246" y="1904"/>
      <point x="2246" y="2091" type="curve" smooth="yes"/>
      <point x="2246" y="2200"/>
      <point x="2201" y="2331"/>
      <point x="2107" y="2366" type="curve" smooth="yes"/>
      <point x="2059" y="2384"/>
      <point x="2021" y="2387"/>
      <point x="1950" y="2402" type="curve"/>
      <point x="2066" y="2346"/>
      <point x="2100" y="2222"/>
      <point x="2100" y="2151" type="curve" smooth="yes"/>
      <point x="2100" y="1997"/>
      <point x="1901" y="1881"/>
      <point x="1744" y="1730" type="curve"/>
      <point x="1597" y="1589"/>
      <point x="1402" y="1397"/>
    </contour>
    <contour>
      <point x="644" y="1247" type="curve" smooth="yes"/>
      <point x="767" y="1247"/>
      <point x="884" y="1349"/>
      <point x="884" y="1480" type="curve" smooth="yes"/>
      <point x="884" y="1581"/>
      <point x="827" y="1634"/>
      <point x="756" y="1634" type="curve" smooth="yes"/>
      <point x="685" y="1634"/>
      <point x="662" y="1585"/>
      <point x="662" y="1555" type="curve" smooth="yes"/>
      <point x="662" y="1514"/>
      <point x="685" y="1476"/>
      <point x="745" y="1476" type="curve" smooth="yes"/>
      <point x="752" y="1476"/>
      <point x="756" y="1469"/>
      <point x="756" y="1457" type="curve" smooth="yes"/>
      <point x="756" y="1409"/>
      <point x="692" y="1377"/>
      <point x="647" y="1377" type="curve" smooth="yes"/>
      <point x="527" y="1377"/>
      <point x="452" y="1491"/>
      <point x="452" y="1622" type="curve" smooth="yes"/>
      <point x="452" y="1836"/>
      <point x="617" y="1950"/>
      <point x="771" y="1950" type="curve" smooth="yes"/>
      <point x="985" y="1950"/>
      <point x="1090" y="1795"/>
      <point x="1090" y="1397" type="curve" smooth="yes"/>
      <point x="1090" y="1069"/>
      <point x="830" y="708"/>
      <point x="489" y="708" type="curve" smooth="yes"/>
      <point x="471" y="708"/>
      <point x="452" y="709"/>
      <point x="434" y="711" type="curve"/>
      <point x="495" y="662"/>
      <point x="565" y="640"/>
      <point x="637" y="640" type="curve" smooth="yes"/>
      <point x="919" y="640"/>
      <point x="1240" y="986"/>
      <point x="1240" y="1416" type="curve" smooth="yes"/>
      <point x="1240" y="1877"/>
      <point x="1052" y="2080"/>
      <point x="771" y="2080" type="curve" smooth="yes"/>
      <point x="509" y="2080"/>
      <point x="302" y="1877"/>
      <point x="302" y="1641" type="curve" smooth="yes"/>
      <point x="302" y="1416"/>
      <point x="434" y="1247"/>
    </contour>
  </outline>
</glyph>
<glyph name="dagger" format="2">
  <advance width="1027"/>
  <unicode hex="2020"/>
  <outline>
    <contour>
      <point x="532" y="-450" type="line"/>
      <point x="532" y="-41"/>
      <point x="544" y="315"/>
      <point x="641" y="679" type="curve"/>
      <point x="559" y="742"/>
      <point x="532" y="829"/>
      <point x="532" y="930" type="curve"/>
      <point x="641" y="930"/>
      <point x="746" y="847"/>
      <point x="847" y="847" type="curve" smooth="yes"/>
      <point x="907" y="847"/>
      <point x="967" y="885"/>
      <point x="967" y="952" type="curve" smooth="yes"/>
      <point x="967" y="1012"/>
      <point x="907" y="1054"/>
      <point x="847" y="1054" type="curve" smooth="yes"/>
      <point x="746" y="1054"/>
      <point x="641" y="967"/>
      <point x="532" y="967" type="curve"/>
      <point x="532" y="1095"/>
      <point x="634" y="1204"/>
      <point x="634" y="1331" type="curve" smooth="yes"/>
      <point x="634" y="1399"/>
      <point x="589" y="1474"/>
      <point x="510" y="1474" type="curve" smooth="yes"/>
      <point x="431" y="1474"/>
      <point x="386" y="1399"/>
      <point x="386" y="1331" type="curve" smooth="yes"/>
      <point x="386" y="1204"/>
      <point x="487" y="1095"/>
      <point x="487" y="967" type="curve"/>
      <point x="379" y="967"/>
      <point x="274" y="1054"/>
      <point x="172" y="1054" type="curve" smooth="yes"/>
      <point x="112" y="1054"/>
      <point x="56" y="1012"/>
      <point x="56" y="952" type="curve" smooth="yes"/>
      <point x="56" y="885"/>
      <point x="112" y="847"/>
      <point x="172" y="847" type="curve" smooth="yes"/>
      <point x="274" y="847"/>
      <point x="379" y="930"/>
      <point x="487" y="930" type="curve"/>
      <point x="487" y="829"/>
      <point x="461" y="742"/>
      <point x="379" y="679" type="curve"/>
      <point x="476" y="315"/>
      <point x="487" y="-41"/>
      <point x="487" y="-450" type="curve"/>
    </contour>
  </outline>
</glyph>
<glyph name="daggerdbl" format="2">
  <advance width="915"/>
  <unicode hex="2021"/>
  <outline>
    <contour>
      <point x="480" y="1042" type="curve"/>
      <point x="480" y="1144"/>
      <point x="570" y="1267"/>
      <point x="570" y="1354" type="curve" smooth="yes"/>
      <point x="570" y="1421"/>
      <point x="521" y="1474"/>
      <point x="457" y="1474" type="curve" smooth="yes"/>
      <point x="390" y="1474"/>
      <point x="341" y="1421"/>
      <point x="341" y="1354" type="curve" smooth="yes"/>
      <point x="341" y="1267"/>
      <point x="431" y="1144"/>
      <point x="435" y="1042" type="curve"/>
      <point x="326" y="1042"/>
      <point x="247" y="1117"/>
      <point x="150" y="1117" type="curve" smooth="yes"/>
      <point x="86" y="1117"/>
      <point x="41" y="1080"/>
      <point x="41" y="1024" type="curve" smooth="yes"/>
      <point x="41" y="967"/>
      <point x="86" y="926"/>
      <point x="150" y="926" type="curve" smooth="yes"/>
      <point x="247" y="926"/>
      <point x="326" y="1005"/>
      <point x="435" y="1005" type="curve"/>
      <point x="427" y="915"/>
      <point x="397" y="866"/>
      <point x="330" y="821" type="curve"/>
      <point x="409" y="727"/>
      <point x="435" y="641"/>
      <point x="435" y="521" type="curve" smooth="yes"/>
      <point x="435" y="401"/>
      <point x="409" y="296"/>
      <point x="330" y="202" type="curve"/>
      <point x="397" y="157"/>
      <point x="427" y="109"/>
      <point x="435" y="22" type="curve"/>
      <point x="326" y="22"/>
      <point x="247" y="97"/>
      <point x="150" y="97" type="curve" smooth="yes"/>
      <point x="86" y="97"/>
      <point x="41" y="60"/>
      <point x="41" y="4" type="curve" smooth="yes"/>
      <point x="41" y="-56"/>
      <point x="86" y="-90"/>
      <point x="150" y="-90" type="curve" smooth="yes"/>
      <point x="247" y="-90"/>
      <point x="326" y="-19"/>
      <point x="435" y="-19" type="curve"/>
      <point x="435" y="-120"/>
      <point x="341" y="-244"/>
      <point x="341" y="-330" type="curve" smooth="yes"/>
      <point x="341" y="-398"/>
      <point x="390" y="-450"/>
      <point x="457" y="-450" type="curve" smooth="yes"/>
      <point x="521" y="-450"/>
      <point x="570" y="-398"/>
      <point x="570" y="-330" type="curve" smooth="yes"/>
      <point x="570" y="-244"/>
      <point x="480" y="-120"/>
      <point x="480" y="-19" type="curve"/>
      <point x="589" y="-19"/>
      <point x="667" y="-90"/>
      <point x="765" y="-90" type="curve" smooth="yes"/>
      <point x="829" y="-90"/>
      <point x="874" y="-56"/>
      <point x="874" y="4" type="curve" smooth="yes"/>
      <point x="874" y="60"/>
      <point x="829" y="97"/>
      <point x="765" y="97" type="curve" smooth="yes"/>
      <point x="667" y="97"/>
      <point x="589" y="22"/>
      <point x="480" y="22" type="curve"/>
      <point x="487" y="109"/>
      <point x="517" y="157"/>
      <point x="585" y="202" type="curve"/>
      <point x="506" y="296"/>
      <point x="480" y="401"/>
      <point x="480" y="521" type="curve" smooth="yes"/>
      <point x="480" y="641"/>
      <point x="506" y="727"/>
      <point x="585" y="821" type="curve"/>
      <point x="517" y="866"/>
      <point x="487" y="915"/>
      <point x="480" y="1005" type="curve"/>
      <point x="589" y="1005"/>
      <point x="667" y="926"/>
      <point x="765" y="926" type="curve" smooth="yes"/>
      <point x="829" y="926"/>
      <point x="874" y="967"/>
      <point x="874" y="1024" type="curve" smooth="yes"/>
      <point x="874" y="1080"/>
      <point x="829" y="1117"/>
      <point x="765" y="1117" type="curve" smooth="yes"/>
      <point x="667" y="1117"/>
      <point x="589" y="1042"/>
    </contour>
  </outline>
</glyph>
<glyph name="j.dotless" format="2">
  <advance width="589"/>
  <outline>
    <contour>
      <point x="394" y="994" type="line"/>
      <point x="341" y="994" type="line"/>
      <point x="52" y="862" type="line"/>
      <point x="67" y="825" type="line"/>
      <point x="105" y="836"/>
      <point x="135" y="844"/>
      <point x="154" y="844" type="curve" smooth="yes"/>
      <point x="217" y="844"/>
      <point x="217" y="795"/>
      <point x="217" y="682" type="curve" smooth="yes"/>
      <point x="217" y="-210" type="line" smooth="yes"/>
      <point x="217" y="-338"/>
      <point x="184" y="-379"/>
      <point x="127" y="-379" type="curve" smooth="yes"/>
      <point x="41" y="-379"/>
      <point x="37" y="-251"/>
      <point x="-41" y="-251" type="curve" smooth="yes"/>
      <point x="-98" y="-251"/>
      <point x="-135" y="-281"/>
      <point x="-135" y="-334" type="curve" smooth="yes"/>
      <point x="-135" y="-398"/>
      <point x="-68" y="-450"/>
      <point x="41" y="-450" type="curve" smooth="yes"/>
      <point x="266" y="-450"/>
      <point x="394" y="-405"/>
      <point x="394" y="0" type="curve" smooth="yes"/>
    </contour>
  </outline>
</glyph>
